SplineFontDB: 3.2
FontName: IRMehr
FullName: IRMehr
FamilyName: IRMehr
Weight: Book
Copyright: Copyright (c) 2022, Information Technology Organization of Iran (ito.gov.ir)
Version: 1.001
ItalicAngle: 0
UnderlinePosition: -100
UnderlineWidth: 60
Ascent: 1638
Descent: 410
InvalidEm: 0
sfntRevision: 0x00010042
LayerCount: 2
Layer: 0 1 "Back" 1
Layer: 1 1 "Fore" 0
XUID: [1021 420 722297922 15558331]
StyleMap: 0x0040
FSType: 0
OS2Version: 3
OS2_WeightWidthSlopeOnly: 0
OS2_UseTypoMetrics: 0
CreationTime: 1354501691
ModificationTime: 1662628370
PfmFamily: 17
TTFWeight: 400
TTFWidth: 5
LineGap: 100
VLineGap: 0
Panose: 2 0 5 3 0 0 0 2 0 2
OS2TypoAscent: 2208
OS2TypoAOffset: 0
OS2TypoDescent: -1334
OS2TypoDOffset: 0
OS2TypoLinegap: 1500
OS2WinAscent: 2208
OS2WinAOffset: 0
OS2WinDescent: 1334
OS2WinDOffset: 0
HheadAscent: 2208
HheadAOffset: 0
HheadDescent: -1334
HheadDOffset: 0
OS2SubXSize: 1434
OS2SubYSize: 1331
OS2SubXOff: 0
OS2SubYOff: 293
OS2SupXSize: 1434
OS2SupYSize: 1331
OS2SupXOff: 0
OS2SupYOff: 930
OS2StrikeYSize: 50
OS2StrikeYPos: 250
OS2CapHeight: 2221
OS2XHeight: 594
OS2FamilyClass: 2048
OS2Vendor: 'PARS'
OS2CodePages: 20000041.00000000
OS2UnicodeRanges: 00002003.00000000.00000000.00000000
Lookup: 1 1 0 "'isol' Isolated Forms in Arabic lookup 0" { "'isol' Isolated Forms in Arabic lookup 0 subtable"  } ['isol' ('arab' <'dflt' > ) ]
Lookup: 1 1 0 "'init' Initial Forms in Arabic lookup 1" { "'init' Initial Forms in Arabic lookup 1 subtable"  } ['init' ('arab' <'dflt' > ) ]
Lookup: 1 1 0 "'fina' Terminal Forms in Arabic lookup 2" { "'fina' Terminal Forms in Arabic lookup 2 subtable"  } ['fina' ('arab' <'dflt' > ) ]
Lookup: 1 1 0 "'medi' Medial Forms in Arabic lookup 3" { "'medi' Medial Forms in Arabic lookup 3 subtable"  } ['medi' ('arab' <'dflt' > ) ]
Lookup: 4 1 0 "'ccmp' Glyph Composition/Decomposition in Arabic lookup 4" { "'ccmp' Glyph Composition/Decomposition in Arabic lookup 4 subtable"  } ['ccmp' ('arab' <'dflt' > ) ]

StartChar: quotedbl
Encoding: 34 34 4
Width: 778
Flags: W
LayerCount: 2
Fore
SplineSet
514 703 m 1,0,1
 508 730 508 730 504 752.5 c 128,-1,2
 500 775 500 775 498 785 c 0,3,4
 477 892 477 892 465.5 968 c 128,-1,5
 454 1044 454 1044 454 1070 c 0,6,7
 454 1126 454 1126 478.5 1158.5 c 128,-1,8
 503 1191 503 1191 541 1191 c 0,9,10
 560 1191 560 1191 576 1182 c 128,-1,11
 592 1173 592 1173 604 1158 c 128,-1,12
 616 1143 616 1143 622.5 1122 c 128,-1,13
 629 1101 629 1101 629 1077 c 0,14,15
 629 1063 629 1063 625.5 1035 c 128,-1,16
 622 1007 622 1007 615 961.5 c 128,-1,17
 608 916 608 916 596.5 852 c 128,-1,18
 585 788 585 788 569 703 c 1,19,-1
 514 703 l 1,0,1
204 703 m 1,20,21
 198 730 198 730 194 752.5 c 128,-1,22
 190 775 190 775 188 785 c 0,23,24
 167 892 167 892 155.5 968 c 128,-1,25
 144 1044 144 1044 144 1070 c 0,26,27
 144 1126 144 1126 168.5 1158.5 c 128,-1,28
 193 1191 193 1191 231 1191 c 0,29,30
 250 1191 250 1191 266 1182 c 128,-1,31
 282 1173 282 1173 294 1158 c 128,-1,32
 306 1143 306 1143 312.5 1122 c 128,-1,33
 319 1101 319 1101 319 1077 c 0,34,35
 319 1063 319 1063 315.5 1035 c 128,-1,36
 312 1007 312 1007 305 961.5 c 128,-1,37
 298 916 298 916 286.5 852 c 128,-1,38
 275 788 275 788 259 703 c 1,39,-1
 204 703 l 1,20,21
EndSplineSet
EndChar

StartChar: quotesingle
Encoding: 39 39 5
Width: 484
Flags: W
LayerCount: 2
Fore
SplineSet
204 703 m 1,0,1
 198 730 198 730 194 752.5 c 128,-1,2
 190 775 190 775 188 785 c 0,3,4
 167 892 167 892 155.5 968 c 128,-1,5
 144 1044 144 1044 144 1070 c 0,6,7
 144 1126 144 1126 168.5 1158.5 c 128,-1,8
 193 1191 193 1191 231 1191 c 0,9,10
 250 1191 250 1191 266 1182 c 128,-1,11
 282 1173 282 1173 294 1158 c 128,-1,12
 306 1143 306 1143 312.5 1122 c 128,-1,13
 319 1101 319 1101 319 1077 c 0,14,15
 319 1063 319 1063 315.5 1035 c 128,-1,16
 312 1007 312 1007 305 961.5 c 128,-1,17
 298 916 298 916 286.5 852 c 128,-1,18
 275 788 275 788 259 703 c 1,19,-1
 204 703 l 1,0,1
EndSplineSet
EndChar

StartChar: asterisk
Encoding: 42 42 6
Width: 1126
Flags: W
LayerCount: 2
Fore
SplineSet
568 347 m 1,0,-1
 574 687 l 1,1,-1
 355 467 l 1,2,-1
 250 467 l 1,3,-1
 527 746 l 1,4,-1
 203 746 l 1,5,-1
 223 839 l 1,6,-1
 547 839 l 1,7,-1
 277 1104 l 1,8,-1
 370 1104 l 1,9,-1
 579 899 l 1,10,-1
 585 1199 l 1,11,-1
 704 1239 l 1,12,-1
 699 912 l 1,13,-1
 905 1104 l 1,14,-1
 1013 1104 l 1,15,-1
 730 839 l 1,16,-1
 1065 839 l 1,17,-1
 1043 746 l 1,18,-1
 729 746 l 1,19,-1
 1002 467 l 1,20,-1
 910 467 l 1,21,-1
 696 687 l 1,22,-1
 688 386 l 1,23,-1
 568 347 l 1,0,-1
EndSplineSet
EndChar

StartChar: plus
Encoding: 43 43 7
Width: 1115
GlyphClass: 2
Flags: W
LayerCount: 2
Fore
SplineSet
1002 450 m 1,0,-1
 665 450 l 1,1,-1
 665 97 l 1,2,-1
 516 97 l 1,3,-1
 516 450 l 1,4,-1
 163 450 l 1,5,-1
 163 604 l 1,6,-1
 516 604 l 1,7,-1
 516 940 l 1,8,-1
 665 940 l 1,9,-1
 665 604 l 1,10,-1
 1002 604 l 1,11,-1
 1002 450 l 1,0,-1
EndSplineSet
EndChar

StartChar: hyphen
Encoding: 45 45 8
Width: 1187
Flags: W
LayerCount: 2
Fore
SplineSet
1002 450 m 1,0,-1
 163 450 l 1,1,-1
 163 604 l 1,2,-1
 1002 604 l 1,3,-1
 1002 450 l 1,0,-1
EndSplineSet
EndChar

StartChar: period
Encoding: 46 46 9
Width: 608
GlyphClass: 2
Flags: W
LayerCount: 2
Fore
SplineSet
515 138 m 0,0,1
 515 78 515 78 475.5 38.5 c 128,-1,2
 436 -1 436 -1 377 -1 c 0,3,4
 320 -1 320 -1 281 38.5 c 128,-1,5
 242 78 242 78 242 138 c 0,6,7
 242 193 242 193 281.5 233 c 128,-1,8
 321 273 321 273 377 273 c 0,9,10
 436 273 436 273 475.5 233 c 128,-1,11
 515 193 515 193 515 138 c 0,0,1
EndSplineSet
EndChar

StartChar: slash
Encoding: 47 47 10
Width: 757
Flags: W
LayerCount: 2
Fore
SplineSet
656 1228 m 1,0,-1
 266 -105 l 1,1,-1
 131 -105 l 1,2,-1
 520 1228 l 1,3,-1
 656 1228 l 1,0,-1
EndSplineSet
EndChar

StartChar: less
Encoding: 60 60 11
Width: 992
Flags: W
LayerCount: 2
Fore
SplineSet
54 367 m 1,0,-1
 54 513 l 1,1,-1
 938 902 l 1,2,-1
 938 734 l 1,3,-1
 268 440 l 1,4,-1
 938 146 l 1,5,-1
 938 -21 l 1,6,-1
 54 367 l 1,0,-1
EndSplineSet
EndChar

StartChar: equal
Encoding: 61 61 12
Width: 969
Flags: W
LayerCount: 2
Fore
SplineSet
840 284 m 1,0,-1
 118 284 l 1,1,-1
 118 396 l 1,2,-1
 840 396 l 1,3,-1
 840 284 l 1,0,-1
840 532 m 1,4,-1
 118 532 l 1,5,-1
 118 644 l 1,6,-1
 840 644 l 1,7,-1
 840 532 l 1,4,-1
EndSplineSet
EndChar

StartChar: greater
Encoding: 62 62 13
Width: 992
Flags: W
LayerCount: 2
Fore
SplineSet
54 146 m 1,0,-1
 724 440 l 1,1,-1
 54 734 l 1,2,-1
 54 902 l 1,3,-1
 938 513 l 1,4,-1
 938 367 l 1,5,-1
 54 -21 l 1,6,-1
 54 146 l 1,0,-1
EndSplineSet
EndChar

StartChar: bracketleft
Encoding: 91 91 14
Width: 568
GlyphClass: 2
Flags: W
LayerCount: 2
Fore
SplineSet
514 -254 m 1,0,-1
 114 -254 l 1,1,-1
 114 1157 l 1,2,-1
 514 1157 l 1,3,-1
 514 1101 l 1,4,-1
 406 1101 l 2,5,6
 370 1101 370 1101 347.5 1096 c 128,-1,7
 325 1091 325 1091 312.5 1077.5 c 128,-1,8
 300 1064 300 1064 295.5 1041 c 128,-1,9
 291 1018 291 1018 291 981 c 2,10,-1
 291 -108 l 2,11,12
 291 -135 291 -135 295 -152.5 c 128,-1,13
 299 -170 299 -170 308.5 -180 c 128,-1,14
 318 -190 318 -190 334.5 -194 c 128,-1,15
 351 -198 351 -198 377 -198 c 2,16,-1
 514 -198 l 1,17,-1
 514 -254 l 1,0,-1
EndSplineSet
EndChar

StartChar: bracketright
Encoding: 93 93 15
Width: 568
GlyphClass: 2
Flags: W
LayerCount: 2
Fore
SplineSet
55 -198 m 1,0,-1
 191 -198 l 2,1,2
 218 -198 218 -198 234.5 -194.5 c 128,-1,3
 251 -191 251 -191 260 -181 c 128,-1,4
 269 -171 269 -171 272.5 -153.5 c 128,-1,5
 276 -136 276 -136 276 -108 c 2,6,-1
 276 981 l 2,7,8
 276 1018 276 1018 272 1041 c 128,-1,9
 268 1064 268 1064 255.5 1077.5 c 128,-1,10
 243 1091 243 1091 220.5 1096 c 128,-1,11
 198 1101 198 1101 163 1101 c 2,12,-1
 55 1101 l 1,13,-1
 55 1157 l 1,14,-1
 454 1157 l 1,15,-1
 454 -254 l 1,16,-1
 55 -254 l 1,17,-1
 55 -198 l 1,0,-1
EndSplineSet
EndChar

StartChar: grave
Encoding: 96 96 16
Width: 568
Flags: W
LayerCount: 2
Fore
SplineSet
345 864 m 1,0,-1
 81 1030 l 2,1,2
 59 1047 59 1047 45.5 1065 c 128,-1,3
 32 1083 32 1083 32 1103 c 0,4,5
 32 1128 32 1128 48 1142.5 c 128,-1,6
 64 1157 64 1157 91 1157 c 0,7,8
 109 1157 109 1157 124 1148.5 c 128,-1,9
 139 1140 139 1140 163 1117 c 2,10,-1
 414 864 l 1,11,-1
 345 864 l 1,0,-1
EndSplineSet
EndChar

StartChar: braceleft
Encoding: 123 123 17
Width: 672
GlyphClass: 2
Flags: W
LayerCount: 2
Fore
SplineSet
220 247 m 2,0,1
 220 292 220 292 211.5 324 c 128,-1,2
 203 356 203 356 182.5 378.5 c 128,-1,3
 162 401 162 401 126.5 416.5 c 128,-1,4
 91 432 91 432 37 446 c 1,5,6
 91 459 91 459 126.5 474.5 c 128,-1,7
 162 490 162 490 182.5 512.5 c 128,-1,8
 203 535 203 535 211.5 566.5 c 128,-1,9
 220 598 220 598 220 643 c 2,10,-1
 220 949 l 2,11,12
 220 1089 220 1089 306 1141 c 0,13,14
 326 1154 326 1154 350 1163.5 c 128,-1,15
 374 1173 374 1173 406 1179 c 128,-1,16
 438 1185 438 1185 480.5 1187.5 c 128,-1,17
 523 1190 523 1190 580 1191 c 1,18,-1
 580 1170 l 1,19,20
 528 1159 528 1159 494 1143 c 128,-1,21
 460 1127 460 1127 438 1102 c 128,-1,22
 416 1077 416 1077 407.5 1042 c 128,-1,23
 399 1007 399 1007 399 958 c 2,24,-1
 399 667 l 2,25,26
 399 613 399 613 390 576.5 c 128,-1,27
 381 540 381 540 358 515 c 128,-1,28
 335 490 335 490 296.5 474.5 c 128,-1,29
 258 459 258 459 198 446 c 1,30,31
 258 433 258 433 296.5 417 c 128,-1,32
 335 401 335 401 358 376 c 128,-1,33
 381 351 381 351 390 314 c 128,-1,34
 399 277 399 277 399 223 c 2,35,-1
 399 -69 l 2,36,37
 399 -118 399 -118 408 -152.5 c 128,-1,38
 417 -187 417 -187 439 -211.5 c 128,-1,39
 461 -236 461 -236 495.5 -252.5 c 128,-1,40
 530 -269 530 -269 580 -278 c 1,41,-1
 580 -298 l 1,42,43
 517 -298 517 -298 470.5 -294.5 c 128,-1,44
 424 -291 424 -291 390 -283.5 c 128,-1,45
 356 -276 356 -276 331 -264.5 c 128,-1,46
 306 -253 306 -253 286 -236 c 0,47,48
 252 -208 252 -208 236 -165 c 128,-1,49
 220 -122 220 -122 220 -59 c 2,50,-1
 220 247 l 2,0,1
EndSplineSet
EndChar

StartChar: bar
Encoding: 124 124 18
Width: 375
Flags: W
LayerCount: 2
Fore
SplineSet
113 1179 m 1,0,-1
 263 1179 l 1,1,-1
 263 -32 l 1,2,-1
 113 -32 l 1,3,-1
 113 1179 l 1,0,-1
EndSplineSet
EndChar

StartChar: asciitilde
Encoding: 126 126 19
Width: 887
Flags: W
LayerCount: 2
Fore
SplineSet
838 443 m 1,0,1
 808 403 808 403 783.5 375.5 c 128,-1,2
 759 348 759 348 734 331 c 128,-1,3
 709 314 709 314 683.5 306 c 128,-1,4
 658 298 658 298 628 298 c 0,5,6
 607 298 607 298 587 301 c 128,-1,7
 567 304 567 304 546 311 c 128,-1,8
 525 318 525 318 501.5 328.5 c 128,-1,9
 478 339 478 339 449 355 c 0,10,11
 389 386 389 386 346 400.5 c 128,-1,12
 303 415 303 415 258 415 c 0,13,14
 220 415 220 415 195 399 c 128,-1,15
 170 383 170 383 140 343 c 1,16,-1
 49 421 l 1,17,18
 93 498 93 498 142.5 531 c 128,-1,19
 192 564 192 564 261 564 c 0,20,21
 282 564 282 564 302 561.5 c 128,-1,22
 322 559 322 559 348 551 c 128,-1,23
 374 543 374 543 408 528.5 c 128,-1,24
 442 514 442 514 490 493 c 0,25,26
 519 480 519 480 540.5 472 c 128,-1,27
 562 464 562 464 577.5 458.5 c 128,-1,28
 593 453 593 453 605 451 c 128,-1,29
 617 449 617 449 628 449 c 0,30,31
 658 449 658 449 685 466.5 c 128,-1,32
 712 484 712 484 744 525 c 1,33,-1
 838 443 l 1,0,1
EndSplineSet
EndChar

StartChar: agrave
Encoding: 224 224 20
Width: 1075
Flags: W
LayerCount: 2
Fore
SplineSet
741 331 m 1,0,1
 720 266 720 266 690.5 213 c 128,-1,2
 661 160 661 160 626 114 c 0,3,4
 519 -19 519 -19 400 -19 c 0,5,6
 208 -19 208 -19 159 214 c 0,7,8
 133 334 133 334 157 451 c 128,-1,9
 181 568 181 568 252 683 c 0,10,11
 325 801 325 801 433 860 c 128,-1,12
 541 919 541 919 684 919 c 0,13,14
 712 919 712 919 746 918.5 c 128,-1,15
 780 918 780 918 815.5 916 c 128,-1,16
 851 914 851 914 886 912 c 128,-1,17
 921 910 921 910 952 908 c 1,18,-1
 946 646 l 1,19,-1
 946 647 l 1,20,-1
 950 254 l 2,21,22
 952 209 952 209 954.5 179.5 c 128,-1,23
 957 150 957 150 958 139 c 0,24,25
 961 114 961 114 985 114 c 0,26,27
 1053 114 1053 114 1214 346 c 1,28,-1
 1218 179 l 1,29,30
 1073 -19 1073 -19 925 -19 c 0,31,32
 785 -19 785 -19 753 126 c 0,33,34
 749 146 749 146 747 182 c 128,-1,35
 745 218 745 218 745 264 c 2,36,-1
 741 331 l 1,0,1
737 758 m 1,37,38
 688 775 688 775 647 783.5 c 128,-1,39
 606 792 606 792 561 792 c 0,40,41
 497 792 497 792 453.5 749.5 c 128,-1,42
 410 707 410 707 387 625 c 0,43,44
 362 522 362 522 357 425 c 128,-1,45
 352 328 352 328 368 248 c 0,46,47
 388 146 388 146 437 146 c 0,48,49
 493 146 493 146 589 280 c 0,50,51
 637 352 637 352 674 430 c 128,-1,52
 711 508 711 508 739 599 c 1,53,-1
 737 758 l 1,37,38
634 519 m 1,54,-1
 370 685 l 2,55,56
 348 702 348 702 334.5 720 c 128,-1,57
 321 738 321 738 321 758 c 0,58,59
 321 783 321 783 337 797.5 c 128,-1,60
 353 812 353 812 380 812 c 0,61,62
 398 812 398 812 413 803.5 c 128,-1,63
 428 795 428 795 452 772 c 2,64,-1
 703 519 l 1,65,-1
 634 519 l 1,54,-1
EndSplineSet
EndChar

StartChar: ocircumflex.001
Encoding: 65539 -1 26
Width: 1112
Flags: W
LayerCount: 2
Fore
SplineSet
416 -19 m 0,0,1
 301 -19 301 -19 205 70 c 0,2,3
 110 160 110 160 85 288 c 0,4,5
 32 528 32 528 170 726 c 0,6,7
 307 928 307 928 522 928 c 0,8,9
 643 928 643 928 742 842 c 1,10,11
 837 753 837 753 864 626 c 0,12,13
 890 499 890 499 869 388.5 c 128,-1,14
 848 278 848 278 781 179 c 0,15,16
 711 79 711 79 619.5 30 c 128,-1,17
 528 -19 528 -19 416 -19 c 0,0,1
483 98 m 0,18,19
 536 98 536 98 573.5 133 c 128,-1,20
 611 168 611 168 637 236 c 0,21,22
 665 310 665 310 668.5 393.5 c 128,-1,23
 672 477 672 477 652 574 c 0,24,25
 602 813 602 813 466 813 c 0,26,27
 365 813 365 813 313 670 c 0,28,29
 284 595 284 595 281 510.5 c 128,-1,30
 278 426 278 426 298 332 c 0,31,32
 324 213 324 213 370 155.5 c 128,-1,33
 416 98 416 98 483 98 c 0,18,19
EndSplineSet
EndChar

StartChar: dagger
Encoding: 8224 8224 30
Width: 932
Flags: W
LayerCount: 2
Fore
SplineSet
347 -231 m 1,0,-1
 567 622 l 1,1,-1
 248 592 l 1,2,-1
 297 700 l 1,3,-1
 576 668 l 1,4,-1
 607 1066 l 1,5,-1
 755 1093 l 1,6,-1
 621 668 l 1,7,-1
 941 700 l 1,8,-1
 895 592 l 1,9,-1
 612 622 l 1,10,-1
 496 -213 l 1,11,-1
 347 -231 l 1,0,-1
EndSplineSet
EndChar

StartChar: degree
Encoding: 176 176 31
Width: 409
Flags: W
LayerCount: 2
Fore
SplineSet
395 844 m 0,0,1
 344 844 344 844 307.5 880 c 128,-1,2
 271 916 271 916 271 968 c 0,3,4
 271 1021 271 1021 307.5 1057 c 128,-1,5
 344 1093 344 1093 395 1093 c 0,6,7
 447 1093 447 1093 483 1057 c 128,-1,8
 519 1021 519 1021 519 968 c 0,9,10
 519 916 519 916 483 880 c 128,-1,11
 447 844 447 844 395 844 c 0,0,1
395 888 m 256,12,13
 427 888 427 888 450.5 912 c 128,-1,14
 474 936 474 936 474 968 c 256,15,16
 474 1000 474 1000 450.5 1024 c 128,-1,17
 427 1048 427 1048 395 1048 c 256,18,19
 363 1048 363 1048 339 1024 c 128,-1,20
 315 1000 315 1000 315 968 c 256,21,22
 315 936 315 936 339 912 c 128,-1,23
 363 888 363 888 395 888 c 256,12,13
EndSplineSet
EndChar

StartChar: bullet
Encoding: 8226 8226 32
Width: 931
Flags: W
LayerCount: 2
Fore
SplineSet
817 662 m 256,0,1
 817 517 817 517 713.5 414 c 128,-1,2
 610 311 610 311 465 311 c 256,3,4
 320 311 320 311 217 414 c 128,-1,5
 114 517 114 517 114 662 c 256,6,7
 114 807 114 807 217 910 c 128,-1,8
 320 1013 320 1013 465 1013 c 256,9,10
 610 1013 610 1013 713.5 910 c 128,-1,11
 817 807 817 807 817 662 c 256,0,1
EndSplineSet
EndChar

StartChar: registered
Encoding: 174 174 33
Width: 897
Flags: W
LayerCount: 2
Fore
SplineSet
580 445 m 0,0,1
 448 445 448 445 354.5 538.5 c 128,-1,2
 261 632 261 632 261 764 c 256,3,4
 261 896 261 896 354.5 990 c 128,-1,5
 448 1084 448 1084 580 1084 c 0,6,7
 714 1084 714 1084 807 990 c 128,-1,8
 900 896 900 896 900 764 c 256,9,10
 900 632 900 632 806.5 538.5 c 128,-1,11
 713 445 713 445 580 445 c 0,0,1
580 484 m 0,12,13
 695 484 695 484 777.5 567 c 128,-1,14
 860 650 860 650 860 764 c 256,15,16
 860 878 860 878 777.5 961 c 128,-1,17
 695 1044 695 1044 580 1044 c 0,18,19
 466 1044 466 1044 383.5 961 c 128,-1,20
 301 878 301 878 301 764 c 256,21,22
 301 650 301 650 383.5 567 c 128,-1,23
 466 484 466 484 580 484 c 0,12,13
529 737 m 1,24,-1
 501 596 l 1,25,-1
 394 596 l 1,26,-1
 403 639 l 1,27,-1
 456 639 l 1,28,-1
 511 915 l 1,29,-1
 458 915 l 1,30,-1
 466 959 l 1,31,-1
 598 959 l 2,32,33
 751 959 751 959 751 875 c 0,34,35
 751 800 751 800 650 750 c 1,36,-1
 685 639 l 1,37,-1
 747 639 l 1,38,-1
 738 596 l 1,39,-1
 641 596 l 1,40,-1
 591 737 l 1,41,-1
 529 737 l 1,24,-1
538 782 m 1,42,-1
 574 782 l 2,43,44
 697 782 697 782 697 866 c 0,45,46
 697 915 697 915 607 915 c 2,47,-1
 564 915 l 1,48,-1
 538 782 l 1,42,-1
EndSplineSet
EndChar

StartChar: copyright
Encoding: 169 169 34
Width: 1244
Flags: W
LayerCount: 2
Fore
SplineSet
725 -27 m 0,0,1
 495 -27 495 -27 330.5 137 c 128,-1,2
 166 301 166 301 166 533 c 256,3,4
 166 765 166 765 330.5 929 c 128,-1,5
 495 1093 495 1093 725 1093 c 0,6,7
 958 1093 958 1093 1122 929 c 128,-1,8
 1286 765 1286 765 1286 533 c 256,9,10
 1286 301 1286 301 1122 137 c 128,-1,11
 958 -27 958 -27 725 -27 c 0,0,1
725 18 m 0,12,13
 939 18 939 18 1090 169 c 128,-1,14
 1241 320 1241 320 1241 533 c 256,15,16
 1241 746 1241 746 1090 897 c 128,-1,17
 939 1048 939 1048 725 1048 c 0,18,19
 513 1048 513 1048 362 897 c 128,-1,20
 211 746 211 746 211 533 c 256,21,22
 211 320 211 320 362 169 c 128,-1,23
 513 18 513 18 725 18 c 0,12,13
890 246 m 1,24,25
 785 213 785 213 704 213 c 0,26,27
 580 213 580 213 508 279.5 c 128,-1,28
 436 346 436 346 436 462 c 0,29,30
 436 625 436 625 541 734.5 c 128,-1,31
 646 844 646 844 805 844 c 0,32,33
 896 844 896 844 1003 814 c 1,34,-1
 967 675 l 1,35,-1
 915 684 l 1,36,-1
 923 766 l 1,37,38
 854 798 854 798 792 798 c 0,39,40
 688 798 688 798 616 700 c 128,-1,41
 544 602 544 602 544 462 c 0,42,43
 544 271 544 271 722 271 c 0,44,45
 823 271 823 271 902 307 c 1,46,-1
 890 246 l 1,24,25
EndSplineSet
EndChar

StartChar: trademark
Encoding: 8482 8482 35
Width: 1333
Flags: W
LayerCount: 2
Fore
SplineSet
440 1021 m 1,0,-1
 307 1021 l 1,1,-1
 288 923 l 1,2,-1
 225 923 l 1,3,-1
 254 1066 l 1,4,-1
 751 1066 l 1,5,-1
 723 923 l 1,6,-1
 661 923 l 1,7,-1
 679 1021 l 1,8,-1
 546 1021 l 1,9,-1
 456 569 l 1,10,-1
 554 569 l 1,11,-1
 545 524 l 1,12,-1
 243 524 l 1,13,-1
 253 569 l 1,14,-1
 350 569 l 1,15,-1
 440 1021 l 1,0,-1
1011 569 m 1,16,-1
 942 956 l 1,17,-1
 857 524 l 1,18,-1
 688 524 l 1,19,-1
 697 569 l 1,20,-1
 794 569 l 1,21,-1
 884 1021 l 1,22,-1
 787 1021 l 1,23,-1
 796 1066 l 1,24,-1
 1036 1066 l 1,25,-1
 1092 747 l 1,26,-1
 1265 1066 l 1,27,-1
 1481 1066 l 1,28,-1
 1473 1021 l 1,29,-1
 1375 1021 l 1,30,-1
 1285 569 l 1,31,-1
 1383 569 l 1,32,-1
 1373 524 l 1,33,-1
 1178 524 l 1,34,-1
 1270 985 l 1,35,-1
 1041 569 l 1,36,-1
 1011 569 l 1,16,-1
EndSplineSet
EndChar

StartChar: logicalnot
Encoding: 172 172 39
Width: 932
Flags: W
LayerCount: 2
Fore
SplineSet
177 510 m 1,0,-1
 193 590 l 1,1,-1
 975 590 l 1,2,-1
 906 248 l 1,3,-1
 814 248 l 1,4,-1
 866 510 l 1,5,-1
 177 510 l 1,0,-1
EndSplineSet
EndChar

StartChar: florin
Encoding: 402 402 40
Width: 679
Flags: W
LayerCount: 2
Fore
SplineSet
158 -231 m 1,0,-1
 210 -18 l 1,1,-1
 286 364 l 1,2,-1
 108 364 l 1,3,-1
 117 409 l 1,4,-1
 294 409 l 1,5,-1
 298 427 l 2,6,7
 330 586 330 586 463 692.5 c 128,-1,8
 596 799 596 799 761 799 c 0,9,10
 818 799 818 799 860 784 c 1,11,-1
 764 678 l 1,12,13
 712 729 712 729 643 729 c 0,14,15
 500 729 500 729 457 512 c 2,16,-1
 436 409 l 1,17,-1
 623 409 l 1,18,-1
 614 364 l 1,19,-1
 427 364 l 1,20,-1
 313 -213 l 1,21,-1
 158 -231 l 1,0,-1
EndSplineSet
EndChar

StartChar: ellipsis
Encoding: 8230 8230 41
Width: 1827
Flags: W
LayerCount: 2
Fore
SplineSet
758 113 m 0,0,1
 758 144 758 144 809.5 245.5 c 128,-1,2
 861 347 861 347 876 355 c 0,3,4
 907 369 907 369 964.5 307.5 c 128,-1,5
 1022 246 1022 246 1026 211 c 1,6,7
 1026 166 1026 166 977.5 79.5 c 128,-1,8
 929 -7 929 -7 908 -7 c 0,9,10
 899 -7 899 -7 851 26.5 c 128,-1,11
 803 60 803 60 778 79 c 0,12,13
 758 96 758 96 758 113 c 0,0,1
1308 113 m 0,14,15
 1308 144 1308 144 1359 245.5 c 128,-1,16
 1410 347 1410 347 1426 355 c 0,17,18
 1457 369 1457 369 1514.5 307.5 c 128,-1,19
 1572 246 1572 246 1575 211 c 0,20,21
 1575 166 1575 166 1527 79.5 c 128,-1,22
 1479 -7 1479 -7 1458 -7 c 0,23,24
 1449 -7 1449 -7 1401 26.5 c 128,-1,25
 1353 60 1353 60 1328 79 c 0,26,27
 1308 96 1308 96 1308 113 c 0,14,15
211 113 m 0,28,29
 211 144 211 144 262 245.5 c 128,-1,30
 313 347 313 347 329 355 c 0,31,32
 360 369 360 369 417.5 307.5 c 128,-1,33
 475 246 475 246 478 211 c 0,34,35
 478 166 478 166 430 79.5 c 128,-1,36
 382 -7 382 -7 361 -7 c 0,37,38
 352 -7 352 -7 304 26.5 c 128,-1,39
 256 60 256 60 231 79 c 0,40,41
 211 96 211 96 211 113 c 0,28,29
EndSplineSet
EndChar

StartChar: endash
Encoding: 8211 8211 42
Width: 434
Flags: W
LayerCount: 2
Fore
SplineSet
434 154 m 1,0,-1
 0 154 l 1,1,-1
 0 234 l 1,2,-1
 434 234 l 1,3,-1
 434 154 l 1,0,-1
EndSplineSet
EndChar

StartChar: emdash
Encoding: 8212 8212 43
Width: 1862
Flags: W
LayerCount: 2
Fore
SplineSet
1866 572 m 1,0,-1
 -4 572 l 1,1,-1
 -4 732 l 1,2,-1
 1866 732 l 1,3,-1
 1866 572 l 1,0,-1
EndSplineSet
EndChar

StartChar: quotedblleft
Encoding: 8220 8220 44
Width: 683
Flags: W
LayerCount: 2
Fore
SplineSet
374 959 m 0,0,1
 376 1034 376 1034 427 1107.5 c 128,-1,2
 478 1181 478 1181 540 1211 c 1,3,-1
 576 1144 l 1,4,5
 557 1134 557 1134 531.5 1106 c 128,-1,6
 506 1078 506 1078 495 1034 c 1,7,8
 571 1001 571 1001 568 938 c 0,9,10
 568 919 568 919 560.5 902 c 128,-1,11
 553 885 553 885 540.5 872.5 c 128,-1,12
 528 860 528 860 511 852.5 c 128,-1,13
 494 845 494 845 475 845 c 0,14,15
 451 845 451 845 432 855 c 128,-1,16
 413 865 413 865 400.5 881 c 128,-1,17
 388 897 388 897 381 917.5 c 128,-1,18
 374 938 374 938 374 959 c 0,0,1
121 959 m 0,19,20
 122 1034 122 1034 173 1107.5 c 128,-1,21
 224 1181 224 1181 287 1211 c 1,22,-1
 323 1144 l 1,23,24
 305 1134 305 1134 279.5 1106 c 128,-1,25
 254 1078 254 1078 242 1034 c 1,26,27
 319 1001 319 1001 315 938 c 0,28,29
 315 919 315 919 307.5 902 c 128,-1,30
 300 885 300 885 287 872.5 c 128,-1,31
 274 860 274 860 257 852.5 c 128,-1,32
 240 845 240 845 221 845 c 0,33,34
 198 845 198 845 179.5 855 c 128,-1,35
 161 865 161 865 148 881 c 128,-1,36
 135 897 135 897 128 917.5 c 128,-1,37
 121 938 121 938 121 959 c 0,19,20
EndSplineSet
EndChar

StartChar: quotedblright
Encoding: 8221 8221 45
Width: 673
Flags: W
LayerCount: 2
Fore
SplineSet
323 1097 m 0,0,1
 321 1022 321 1022 270 948.5 c 128,-1,2
 219 875 219 875 157 845 c 1,3,-1
 121 912 l 1,4,5
 140 922 140 922 165.5 950 c 128,-1,6
 191 978 191 978 202 1022 c 1,7,8
 126 1055 126 1055 129 1118 c 0,9,10
 129 1137 129 1137 136.5 1153.5 c 128,-1,11
 144 1170 144 1170 156.5 1183 c 128,-1,12
 169 1196 169 1196 186 1203.5 c 128,-1,13
 203 1211 203 1211 222 1211 c 0,14,15
 246 1211 246 1211 265 1201 c 128,-1,16
 284 1191 284 1191 296.5 1175 c 128,-1,17
 309 1159 309 1159 316 1138.5 c 128,-1,18
 323 1118 323 1118 323 1097 c 0,0,1
576 1097 m 0,19,20
 575 1022 575 1022 524 948.5 c 128,-1,21
 473 875 473 875 410 845 c 1,22,-1
 374 912 l 1,23,24
 392 922 392 922 417.5 950 c 128,-1,25
 443 978 443 978 455 1022 c 1,26,27
 378 1055 378 1055 382 1118 c 0,28,29
 382 1137 382 1137 389.5 1153.5 c 128,-1,30
 397 1170 397 1170 410 1183 c 128,-1,31
 423 1196 423 1196 440 1203.5 c 128,-1,32
 457 1211 457 1211 476 1211 c 0,33,34
 499 1211 499 1211 517.5 1201 c 128,-1,35
 536 1191 536 1191 549 1175 c 128,-1,36
 562 1159 562 1159 569 1138.5 c 128,-1,37
 576 1118 576 1118 576 1097 c 0,19,20
EndSplineSet
EndChar

StartChar: divide
Encoding: 247 247 46
Width: 1133
Flags: W
LayerCount: 2
Fore
SplineSet
454 229 m 1,0,-1
 681 229 l 1,1,-1
 681 3 l 1,2,-1
 454 3 l 1,3,-1
 454 229 l 1,0,-1
454 867 m 1,4,-1
 681 867 l 1,5,-1
 681 640 l 1,6,-1
 454 640 l 1,7,-1
 454 867 l 1,4,-1
1002 360 m 1,8,-1
 163 360 l 1,9,-1
 163 514 l 1,10,-1
 1002 514 l 1,11,-1
 1002 360 l 1,8,-1
EndSplineSet
EndChar

StartChar: lozenge
Encoding: 9674 9674 47
Width: 1118
Flags: W
LayerCount: 2
Fore
SplineSet
1003 699 m 1,0,-1
 560 197 l 1,1,-1
 117 699 l 1,2,-1
 560 1202 l 1,3,-1
 1003 699 l 1,0,-1
848 699 m 1,4,-1
 560 1036 l 1,5,-1
 271 699 l 1,6,-1
 560 364 l 1,7,-1
 848 699 l 1,4,-1
EndSplineSet
EndChar

StartChar: fraction
Encoding: 8260 8260 48
Width: 742
Flags: W
LayerCount: 2
Fore
SplineSet
740 1101 m 1,0,-1
 101 -82 l 1,1,-1
 -9 -82 l 1,2,-1
 629 1101 l 1,3,-1
 740 1101 l 1,0,-1
EndSplineSet
EndChar

StartChar: guilsinglleft
Encoding: 8249 8249 49
Width: 1117
Flags: W
LayerCount: 2
Fore
SplineSet
955 58 m 1,0,-1
 150 444 l 1,1,-1
 150 534 l 1,2,-1
 955 918 l 1,3,-1
 955 784 l 1,4,-1
 331 489 l 1,5,-1
 955 192 l 1,6,-1
 955 58 l 1,0,-1
EndSplineSet
EndChar

StartChar: daggerdbl
Encoding: 8225 8225 52
Width: 932
Flags: W
LayerCount: 2
Fore
SplineSet
349 -231 m 1,0,-1
 481 185 l 1,1,-1
 161 154 l 1,2,-1
 211 261 l 1,3,-1
 490 229 l 1,4,-1
 567 616 l 1,5,-1
 247 586 l 1,6,-1
 297 693 l 1,7,-1
 575 661 l 1,8,-1
 608 1066 l 1,9,-1
 758 1093 l 1,10,-1
 620 661 l 1,11,-1
 940 693 l 1,12,-1
 889 586 l 1,13,-1
 611 616 l 1,14,-1
 535 229 l 1,15,-1
 855 261 l 1,16,-1
 804 154 l 1,17,-1
 525 185 l 1,18,-1
 499 -213 l 1,19,-1
 349 -231 l 1,0,-1
EndSplineSet
EndChar

StartChar: middot.001
Encoding: 8729 8729 53
Width: 620
Flags: W
LayerCount: 2
Fore
SplineSet
429 516 m 1,0,-1
 190 516 l 1,1,-1
 190 789 l 1,2,-1
 429 789 l 1,3,-1
 429 516 l 1,0,-1
EndSplineSet
EndChar

StartChar: quotesinglbase
Encoding: 8218 8218 54
Width: 418
Flags: W
LayerCount: 2
Fore
SplineSet
103 128 m 1,0,-1
 247 231 l 1,1,-1
 353 90 l 1,2,3
 345 -56 345 -56 262.5 -134.5 c 128,-1,4
 180 -213 180 -213 36 -213 c 1,5,-1
 76 -168 l 1,6,7
 189 -158 189 -158 211 -18 c 1,8,-1
 103 128 l 1,0,-1
EndSplineSet
EndChar

StartChar: quotedblbase
Encoding: 8222 8222 55
Width: 684
Flags: W
LayerCount: 2
Fore
SplineSet
91 92 m 1,0,-1
 204 178 l 1,1,-1
 292 64 l 1,2,3
 270 -213 270 -213 31 -213 c 1,4,-1
 60 -168 l 1,5,6
 166 -148 166 -148 179 -16 c 1,7,-1
 91 92 l 1,0,-1
401 92 m 1,8,-1
 516 178 l 1,9,-1
 602 64 l 1,10,11
 581 -213 581 -213 341 -213 c 1,12,-1
 372 -168 l 1,13,14
 476 -148 476 -148 490 -16 c 1,15,-1
 401 92 l 1,8,-1
EndSplineSet
EndChar

StartChar: perthousand
Encoding: 8240 8240 56
Width: 1571
Flags: W
LayerCount: 2
Fore
SplineSet
385 533 m 0,0,1
 304 533 304 533 254.5 584.5 c 128,-1,2
 205 636 205 636 205 722 c 0,3,4
 205 865 205 865 286.5 965.5 c 128,-1,5
 368 1066 368 1066 483 1066 c 0,6,7
 567 1066 567 1066 617.5 1014.5 c 128,-1,8
 668 963 668 963 668 877 c 0,9,10
 668 733 668 733 585.5 633 c 128,-1,11
 503 533 503 533 385 533 c 0,0,1
311 715 m 0,12,13
 311 578 311 578 398 578 c 0,14,15
 463 578 463 578 517 671.5 c 128,-1,16
 571 765 571 765 571 881 c 0,17,18
 571 1022 571 1022 483 1022 c 0,19,20
 416 1022 416 1022 363.5 928 c 128,-1,21
 311 834 311 834 311 715 c 0,12,13
850 0 m 0,22,23
 769 0 769 0 719.5 51.5 c 128,-1,24
 670 103 670 103 670 189 c 0,25,26
 670 331 670 331 751 432 c 128,-1,27
 832 533 832 533 947 533 c 0,28,29
 1031 533 1031 533 1081.5 481.5 c 128,-1,30
 1132 430 1132 430 1132 344 c 0,31,32
 1132 200 1132 200 1049.5 100 c 128,-1,33
 967 0 967 0 850 0 c 0,22,23
776 182 m 0,34,35
 776 44 776 44 862 44 c 0,36,37
 929 44 929 44 982 138 c 128,-1,38
 1035 232 1035 232 1035 348 c 0,39,40
 1035 490 1035 490 948 490 c 0,41,42
 880 490 880 490 828 395.5 c 128,-1,43
 776 301 776 301 776 182 c 0,34,35
131 -27 m 1,44,-1
 1111 1093 l 1,45,-1
 1206 1093 l 1,46,-1
 225 -27 l 1,47,-1
 131 -27 l 1,44,-1
1376 0 m 0,48,49
 1294 0 1294 0 1244.5 51.5 c 128,-1,50
 1195 103 1195 103 1195 189 c 0,51,52
 1195 331 1195 331 1276.5 432 c 128,-1,53
 1358 533 1358 533 1473 533 c 0,54,55
 1557 533 1557 533 1607.5 481.5 c 128,-1,56
 1658 430 1658 430 1658 344 c 0,57,58
 1658 200 1658 200 1575.5 100 c 128,-1,59
 1493 0 1493 0 1376 0 c 0,48,49
1301 183 m 0,60,61
 1301 44 1301 44 1389 44 c 0,62,63
 1453 44 1453 44 1507 138 c 128,-1,64
 1561 232 1561 232 1561 347 c 0,65,66
 1561 490 1561 490 1473 490 c 0,67,68
 1406 490 1406 490 1353.5 395.5 c 128,-1,69
 1301 301 1301 301 1301 183 c 0,60,61
EndSplineSet
EndChar

StartChar: multiply
Encoding: 215 215 60
Width: 1015
Flags: W
LayerCount: 2
Fore
SplineSet
852 761 m 1,0,-1
 614 522 l 1,1,-1
 864 273 l 1,2,-1
 759 168 l 1,3,-1
 509 416 l 1,4,-1
 259 166 l 1,5,-1
 150 274 l 1,6,-1
 400 525 l 1,7,-1
 161 762 l 1,8,-1
 266 868 l 1,9,-1
 505 631 l 1,10,-1
 742 869 l 1,11,-1
 852 761 l 1,0,-1
EndSplineSet
EndChar

StartChar: macron
Encoding: 175 175 61
Width: 1118
Flags: W
LayerCount: 2
Fore
SplineSet
1134 1259 m 1,0,-1
 -16 1259 l 1,1,-1
 -16 1389 l 1,2,-1
 1134 1389 l 1,3,-1
 1134 1259 l 1,0,-1
EndSplineSet
EndChar

StartChar: periodcentered
Encoding: 183 183 62
Width: 724
Flags: W
LayerCount: 2
Fore
SplineSet
482 832 m 1,0,-1
 243 832 l 1,1,-1
 243 1117 l 1,2,-1
 482 1117 l 1,3,-1
 482 832 l 1,0,-1
EndSplineSet
EndChar

StartChar: H22073
Encoding: 9633 9633 63
Width: 1237
Flags: W
LayerCount: 2
Fore
SplineSet
146 944 m 1,0,-1
 1090 944 l 1,1,-1
 1090 0 l 1,2,-1
 146 0 l 1,3,-1
 146 944 l 1,0,-1
222 868 m 1,4,-1
 222 76 l 1,5,-1
 1014 76 l 1,6,-1
 1014 868 l 1,7,-1
 222 868 l 1,4,-1
EndSplineSet
EndChar

StartChar: H18543
Encoding: 9642 9642 64
Width: 1089
Flags: W
LayerCount: 2
Fore
SplineSet
886 894 m 1,0,-1
 886 200 l 1,1,-1
 192 200 l 1,2,-1
 192 894 l 1,3,-1
 886 894 l 1,0,-1
EndSplineSet
EndChar

StartChar: H18551
Encoding: 9643 9643 65
Width: 1089
Flags: W
LayerCount: 2
Fore
SplineSet
888 930 m 1,0,-1
 888 235 l 1,1,-1
 193 235 l 1,2,-1
 193 930 l 1,3,-1
 888 930 l 1,0,-1
774 816 m 1,4,-1
 307 816 l 1,5,-1
 307 349 l 1,6,-1
 774 349 l 1,7,-1
 774 816 l 1,4,-1
EndSplineSet
EndChar

StartChar: H18533
Encoding: 9679 9679 66
Width: 1339
Flags: W
LayerCount: 2
Fore
SplineSet
204 775 m 0,0,1
 204 976 204 976 345 1117 c 128,-1,2
 486 1258 486 1258 685 1258 c 0,3,4
 885 1258 885 1258 1026 1117 c 128,-1,5
 1167 976 1167 976 1167 775 c 0,6,7
 1167 577 1167 577 1026 436 c 128,-1,8
 885 295 885 295 685 295 c 0,9,10
 486 295 486 295 345 436 c 128,-1,11
 204 577 204 577 204 775 c 0,0,1
EndSplineSet
EndChar

StartChar: openbullet
Encoding: 9702 9702 67
Width: 1089
Flags: W
LayerCount: 2
Fore
SplineSet
544 1392 m 0,0,1
 700 1392 700 1392 810.5 1281.5 c 128,-1,2
 921 1171 921 1171 921 1015 c 256,3,4
 921 859 921 859 810.5 749 c 128,-1,5
 700 639 700 639 544 639 c 256,6,7
 388 639 388 639 278 749 c 128,-1,8
 168 859 168 859 168 1015 c 256,9,10
 168 1171 168 1171 277.5 1281.5 c 128,-1,11
 387 1392 387 1392 544 1392 c 0,0,1
544 1278 m 0,12,13
 435 1278 435 1278 358.5 1200.5 c 128,-1,14
 282 1123 282 1123 282 1015 c 0,15,16
 282 906 282 906 359 829.5 c 128,-1,17
 436 753 436 753 544 753 c 256,18,19
 652 753 652 753 729.5 829.5 c 128,-1,20
 807 906 807 906 807 1015 c 0,21,22
 807 1123 807 1123 730.5 1200.5 c 128,-1,23
 654 1278 654 1278 544 1278 c 0,12,13
EndSplineSet
EndChar

StartChar: uniFFFC
Encoding: 65532 65532 68
Width: 2048
Flags: W
LayerCount: 2
Fore
SplineSet
2048 1150 m 1,0,-1
 1948 1150 l 1,1,-1
 1948 1373 l 1,2,-1
 1725 1373 l 1,3,-1
 1725 1473 l 1,4,-1
 2048 1473 l 1,5,-1
 2048 1150 l 1,0,-1
1473 1373 m 1,6,-1
 1150 1373 l 1,7,-1
 1150 1473 l 1,8,-1
 1473 1473 l 1,9,-1
 1473 1373 l 1,6,-1
2048 575 m 1,10,-1
 1948 575 l 1,11,-1
 1948 898 l 1,12,-1
 2048 898 l 1,13,-1
 2048 575 l 1,10,-1
1782 611 m 2,14,15
 1782 370 1782 370 1571 370 c 0,16,17
 1485 370 1485 370 1433 415 c 1,18,-1
 1506 494 l 1,19,20
 1531 468 1531 468 1571 468 c 0,21,22
 1666 468 1666 468 1666 606 c 2,23,-1
 1666 1090 l 1,24,-1
 1782 1090 l 1,25,-1
 1782 611 l 2,14,15
898 1373 m 1,26,-1
 575 1373 l 1,27,-1
 575 1473 l 1,28,-1
 898 1473 l 1,29,-1
 898 1373 l 1,26,-1
2048 0 m 1,30,-1
 1725 0 l 1,31,-1
 1725 100 l 1,32,-1
 1948 100 l 1,33,-1
 1948 323 l 1,34,-1
 2048 323 l 1,35,-1
 2048 0 l 1,30,-1
1423 591 m 0,36,37
 1423 382 1423 382 1149 382 c 2,38,-1
 909 382 l 1,39,-1
 909 1090 l 1,40,-1
 1144 1090 l 2,41,42
 1393 1090 1393 1090 1393 904 c 0,43,44
 1393 813 1393 813 1304 759 c 1,45,46
 1423 713 1423 713 1423 591 c 0,36,37
323 1373 m 1,47,-1
 100 1373 l 1,48,-1
 100 1150 l 1,49,-1
 0 1150 l 1,50,-1
 0 1473 l 1,51,-1
 323 1473 l 1,52,-1
 323 1373 l 1,47,-1
1473 0 m 1,53,-1
 1150 0 l 1,54,-1
 1150 100 l 1,55,-1
 1473 100 l 1,56,-1
 1473 0 l 1,53,-1
854 735 m 0,57,58
 854 562 854 562 772 466 c 128,-1,59
 690 370 690 370 537 370 c 256,60,61
 384 370 384 370 303.5 466 c 128,-1,62
 223 562 223 562 223 735 c 0,63,64
 223 910 223 910 303.5 1006 c 128,-1,65
 384 1102 384 1102 537 1102 c 256,66,67
 690 1102 690 1102 772 1006 c 128,-1,68
 854 910 854 910 854 735 c 0,57,58
100 575 m 1,69,-1
 0 575 l 1,70,-1
 0 898 l 1,71,-1
 100 898 l 1,72,-1
 100 575 l 1,69,-1
898 0 m 1,73,-1
 575 0 l 1,74,-1
 575 100 l 1,75,-1
 898 100 l 1,76,-1
 898 0 l 1,73,-1
323 0 m 1,77,-1
 0 0 l 1,78,-1
 0 323 l 1,79,-1
 100 323 l 1,80,-1
 100 100 l 1,81,-1
 323 100 l 1,82,-1
 323 0 l 1,77,-1
1277 893 m 0,83,84
 1277 992 1277 992 1114 992 c 2,85,-1
 1025 992 l 1,86,-1
 1025 798 l 1,87,-1
 1126 798 l 2,88,89
 1277 798 1277 798 1277 893 c 0,83,84
1307 591 m 0,90,91
 1307 700 1307 700 1136 700 c 2,92,-1
 1025 700 l 1,93,-1
 1025 480 l 1,94,-1
 1149 480 l 2,95,96
 1307 480 1307 480 1307 591 c 0,90,91
738 735 m 0,97,98
 738 1004 738 1004 537 1004 c 0,99,100
 339 1004 339 1004 339 735 c 0,101,102
 339 468 339 468 537 468 c 0,103,104
 738 468 738 468 738 735 c 0,97,98
EndSplineSet
EndChar

StartChar: zerowidthnonjoiner
Encoding: 8204 8204 88
Width: 0
GlyphClass: 2
Flags: W
LayerCount: 2
Fore
SplineSet
36 1289 m 1,0,-1
 36 -275 l 1,1,-1
 -36 -275 l 1,2,-1
 -36 1289 l 1,3,-1
 36 1289 l 1,0,-1
EndSplineSet
EndChar

StartChar: zerowidthjoiner
Encoding: 8205 8205 89
Width: 0
GlyphClass: 2
Flags: W
LayerCount: 2
Fore
SplineSet
36 -275 m 1,0,-1
 -36 -275 l 1,1,-1
 -36 1114 l 1,2,-1
 -170 978 l 1,3,-1
 -219 1027 l 1,4,-1
 -48 1196 l 1,5,-1
 -219 1364 l 1,6,-1
 -170 1413 l 1,7,-1
 0 1242 l 1,8,-1
 170 1413 l 1,9,-1
 219 1364 l 1,10,-1
 48 1196 l 1,11,-1
 219 1027 l 1,12,-1
 170 978 l 1,13,-1
 36 1114 l 1,14,-1
 36 -275 l 1,0,-1
EndSplineSet
EndChar

StartChar: lefttorightmark
Encoding: 8206 8206 90
Width: 0
GlyphClass: 2
Flags: W
LayerCount: 2
Fore
SplineSet
430 1198 m 1,0,-1
 213 984 l 1,1,-1
 164 1033 l 1,2,-1
 301 1163 l 1,3,-1
 35 1163 l 1,4,-1
 35 -275 l 1,5,-1
 -36 -275 l 1,6,-1
 -36 1234 l 1,7,-1
 301 1234 l 1,8,-1
 164 1364 l 1,9,-1
 213 1413 l 1,10,-1
 430 1198 l 1,0,-1
EndSplineSet
EndChar

StartChar: righttoleftmark
Encoding: 8207 8207 91
Width: 0
GlyphClass: 2
Flags: W
LayerCount: 2
Fore
SplineSet
35 -275 m 1,0,-1
 -36 -275 l 1,1,-1
 -36 1163 l 1,2,-1
 -302 1163 l 1,3,-1
 -165 1033 l 1,4,-1
 -214 984 l 1,5,-1
 -431 1198 l 1,6,-1
 -214 1413 l 1,7,-1
 -165 1364 l 1,8,-1
 -302 1234 l 1,9,-1
 35 1234 l 1,10,-1
 35 -275 l 1,0,-1
EndSplineSet
EndChar

StartChar: afii57388.001
Encoding: 1644 1644 92
Width: 353
GlyphClass: 2
Flags: W
LayerCount: 2
Fore
SplineSet
210 654 m 0,0,1
 200 627 200 627 185 603 c 0,2,3
 180 597 180 597 173.5 593.5 c 128,-1,4
 167 590 167 590 162 590 c 128,-1,5
 157 590 157 590 154.5 593 c 128,-1,6
 152 596 152 596 155 603 c 0,7,8
 187 660 187 660 202.5 713.5 c 128,-1,9
 218 767 218 767 218 800 c 1,10,11
 194 806 194 806 179 816 c 128,-1,12
 164 826 164 826 155 837.5 c 128,-1,13
 146 849 146 849 143 859 c 128,-1,14
 140 869 140 869 140 874 c 0,15,16
 140 890 140 890 145.5 907 c 128,-1,17
 151 924 151 924 160.5 937.5 c 128,-1,18
 170 951 170 951 183.5 959.5 c 128,-1,19
 197 968 197 968 213 968 c 0,20,21
 272 968 272 968 272 874 c 0,22,23
 272 859 272 859 268 835 c 128,-1,24
 264 811 264 811 256 781.5 c 128,-1,25
 248 752 248 752 236.5 719.5 c 128,-1,26
 225 687 225 687 210 654 c 0,0,1
EndSplineSet
EndChar

StartChar: afii57409
Encoding: 1569 1569 93
Width: 672
GlyphClass: 2
Flags: W
AnchorPoint: "Anchor-3" 405 -390 basechar 0
AnchorPoint: "Anchor-2" 405 630 basechar 0
LayerCount: 2
Fore
SplineSet
587 107 m 1,0,-1
 184 -40 l 1,1,-1
 160 106 l 1,2,-1
 290 151 l 1,3,4
 204 220 204 220 216 312 c 0,5,6
 239 444 239 444 370 499 c 1,7,8
 458 528 458 528 538 508 c 1,9,-1
 510 356 l 1,10,11
 496 373 496 373 465 377 c 0,12,13
 428 382 428 382 398 365 c 0,14,15
 363 347 363 347 357 308 c 0,16,17
 353 276 353 276 378 249 c 128,-1,18
 403 222 403 222 432 218 c 0,19,20
 475 212 475 212 509.5 230.5 c 128,-1,21
 544 249 544 249 555 279 c 1,22,-1
 587 107 l 1,0,-1
EndSplineSet
EndChar

StartChar: afii57440
Encoding: 1600 1600 94
Width: 586
GlyphClass: 2
Flags: W
LayerCount: 2
Fore
SplineSet
620 0 m 1,0,-1
 -34 0 l 1,1,-1
 -34 283 l 1,2,-1
 620 283 l 1,3,-1
 620 0 l 1,0,-1
EndSplineSet
EndChar

StartChar: afii57453
Encoding: 1613 1613 95
Width: 0
GlyphClass: 4
Flags: W
AnchorPoint: "Anchor-3" 0 0 mark 0
AnchorPoint: "Anchor-1" 0 0 mark 0
LayerCount: 2
Fore
SplineSet
234 57 m 1,0,-1
 207 -64 l 1,1,-1
 -250 -206 l 1,2,-1
 -232 -85 l 1,3,-1
 234 57 l 1,0,-1
234 263 m 1,4,-1
 207 143 l 1,5,-1
 -250 1 l 1,6,-1
 -232 121 l 1,7,-1
 234 263 l 1,4,-1
EndSplineSet
EndChar

StartChar: afii57381
Encoding: 1642 1642 96
Width: 958
GlyphClass: 2
Flags: W
LayerCount: 2
Fore
SplineSet
426 884 m 1,0,-1
 165 884 l 1,1,-1
 165 1161 l 1,2,-1
 426 1161 l 1,3,-1
 426 884 l 1,0,-1
958 1172 m 1,4,-1
 376 -85 l 1,5,-1
 166 -85 l 1,6,-1
 740 1172 l 1,7,-1
 958 1172 l 1,4,-1
957 -75 m 1,8,-1
 695 -75 l 1,9,-1
 695 202 l 1,10,-1
 957 202 l 1,11,-1
 957 -75 l 1,8,-1
EndSplineSet
EndChar

StartChar: afii57461
Encoding: 1643 1643 97
Width: 536
GlyphClass: 2
Flags: W
LayerCount: 2
Fore
SplineSet
518 521 m 1,0,-1
 115 -382 l 1,1,-1
 19 -352 l 1,2,-1
 425 551 l 1,3,-1
 518 521 l 1,0,-1
EndSplineSet
EndChar

StartChar: afii63167
Encoding: 1645 1645 98
Width: 1118
GlyphClass: 2
Flags: W
LayerCount: 2
Fore
SplineSet
694 729 m 1,0,-1
 1057 733 l 1,1,-1
 1057 610 l 1,2,-1
 702 612 l 1,3,-1
 971 352 l 1,4,-1
 883 264 l 1,5,-1
 616 539 l 1,6,-1
 623 168 l 1,7,-1
 498 168 l 1,8,-1
 502 539 l 1,9,-1
 236 264 l 1,10,-1
 147 352 l 1,11,-1
 422 614 l 1,12,-1
 63 610 l 1,13,-1
 63 733 l 1,14,-1
 420 729 l 1,15,-1
 170 975 l 1,16,-1
 258 1065 l 1,17,-1
 502 817 l 1,18,-1
 498 1176 l 1,19,-1
 623 1176 l 1,20,-1
 616 813 l 1,21,-1
 860 1065 l 1,22,-1
 948 975 l 1,23,-1
 694 729 l 1,0,-1
EndSplineSet
EndChar

StartChar: afii57459
Encoding: 65543 -1 99
Width: 647
GlyphClass: 2
Flags: W
LayerCount: 2
Fore
SplineSet
448 593 m 1,0,1
 440 649 440 649 397 688 c 0,2,3
 351 729 351 729 288 729 c 0,4,5
 222 729 222 729 222 669 c 0,6,7
 222 654 222 654 232 642 c 0,8,9
 285 580 285 580 362 580 c 0,10,11
 397 580 397 580 448 593 c 1,0,1
415 339 m 1,12,13
 371 332 371 332 330 332 c 0,14,15
 207 332 207 332 132 393 c 0,16,17
 54 457 54 457 54 568 c 0,18,19
 54 722 54 722 137.5 846.5 c 128,-1,20
 221 971 221 971 328 971 c 0,21,22
 480 971 480 971 573 793 c 0,23,24
 647 650 647 650 647 495 c 0,25,26
 647 282 647 282 506.5 141 c 128,-1,27
 366 0 366 0 150 0 c 2,28,-1
 -19 0 l 1,29,-1
 -19 283 l 1,30,-1
 183 283 l 2,31,32
 306 283 306 283 327 286 c 0,33,34
 404 295 404 295 415 339 c 1,12,13
EndSplineSet
EndChar

StartChar: afii57543
Encoding: 65544 -1 100
Width: 805
Flags: W
LayerCount: 2
Fore
SplineSet
559 0 m 2,0,1
 510 0 510 0 481 30 c 0,2,3
 464 47 464 47 449 84 c 0,4,5
 437 114 437 114 429 114 c 0,6,7
 426 114 426 114 369 57 c 128,-1,8
 312 0 312 0 257 0 c 2,9,-1
 -19 0 l 1,10,-1
 -19 283 l 1,11,-1
 218 283 l 2,12,13
 351 283 351 283 453 577 c 1,14,-1
 661 480 l 1,15,16
 659 469 659 469 618.5 404 c 128,-1,17
 578 339 578 339 578 313 c 0,18,19
 578 283 578 283 621 283 c 2,20,-1
 823 283 l 1,21,-1
 823 0 l 1,22,-1
 559 0 l 2,0,1
EndSplineSet
EndChar

StartChar: afii57534
Encoding: 1749 1749 101
Width: 989
GlyphClass: 2
Flags: W
LayerCount: 2
Fore
SplineSet
989 374 m 0,0,1
 989 256 989 256 887 142 c 0,2,3
 759 0 759 0 554 0 c 0,4,5
 380 0 380 0 265 105 c 128,-1,6
 150 210 150 210 150 378 c 0,7,8
 150 528 150 528 283 672 c 0,9,10
 347 743 347 743 575 921 c 1,11,12
 989 614 989 614 989 374 c 0,0,1
722 410 m 0,13,14
 722 456 722 456 649 528 c 0,15,16
 591 585 591 585 523 628 c 1,17,18
 469 584 469 584 423 524 c 0,19,20
 369 451 369 451 369 403 c 0,21,22
 369 269 369 269 538 269 c 0,23,24
 722 269 722 269 722 410 c 0,13,14
EndSplineSet
EndChar

StartChar: afii64240
Encoding: 65546 -1 103
Width: 374
Flags: W
LayerCount: 2
Fore
SplineSet
57 0 m 1,0,-1
 57 259 l 1,1,-1
 314 259 l 1,2,-1
 314 0 l 1,3,-1
 57 0 l 1,0,-1
EndSplineSet
EndChar

StartChar: afii64241
Encoding: 65547 -1 104
Width: 632
Flags: W
LayerCount: 2
Fore
SplineSet
355 2 m 1,0,-1
 355 261 l 1,1,-1
 612 261 l 1,2,-1
 612 2 l 1,3,-1
 355 2 l 1,0,-1
21 2 m 1,4,-1
 21 261 l 1,5,-1
 278 261 l 1,6,-1
 278 2 l 1,7,-1
 21 2 l 1,4,-1
EndSplineSet
EndChar

StartChar: afii63954
Encoding: 65548 -1 105
Width: 664
Flags: W
LayerCount: 2
Fore
SplineSet
452 335 m 1,0,-1
 195 335 l 1,1,-1
 195 594 l 1,2,-1
 452 594 l 1,3,-1
 452 335 l 1,0,-1
619 0 m 1,4,-1
 362 0 l 1,5,-1
 362 259 l 1,6,-1
 619 259 l 1,7,-1
 619 0 l 1,4,-1
285 0 m 1,8,-1
 29 0 l 1,9,-1
 29 259 l 1,10,-1
 285 259 l 1,11,-1
 285 0 l 1,8,-1
EndSplineSet
EndChar

StartChar: afii57382
Encoding: 65549 -1 106
Width: 630
Flags: W
LayerCount: 2
Fore
SplineSet
363 -260 m 1,0,-1
 363 -1 l 1,1,-1
 620 -1 l 1,2,-1
 620 -260 l 1,3,-1
 363 -260 l 1,0,-1
29 -260 m 1,4,-1
 29 -1 l 1,5,-1
 286 -1 l 1,6,-1
 286 -260 l 1,7,-1
 29 -260 l 1,4,-1
196 -596 m 1,8,-1
 196 -337 l 1,9,-1
 453 -337 l 1,10,-1
 453 -596 l 1,11,-1
 196 -596 l 1,8,-1
EndSplineSet
EndChar

StartChar: afii64242
Encoding: 65550 -1 107
Width: 637
Flags: W
LayerCount: 2
Fore
SplineSet
142 0 m 2,0,-1
 -19 0 l 1,1,-1
 -19 283 l 1,2,-1
 170 283 l 2,3,4
 241 283 241 283 266 292 c 0,5,6
 320 313 320 313 320 383 c 0,7,8
 320 487 320 487 255 617 c 1,9,-1
 498 714 l 1,10,11
 524 612 524 612 524 510 c 0,12,13
 524 289 524 289 435 153 c 0,14,15
 333 0 333 0 142 0 c 2,0,-1
EndSplineSet
EndChar

StartChar: afii57373
Encoding: 65551 -1 112
Width: 529
Flags: W
LayerCount: 2
Fore
SplineSet
503 1160 m 1,0,-1
 194 998 l 1,1,-1
 138 1068 l 1,2,-1
 237 1125 l 1,3,4
 172 1181 172 1181 172 1252 c 0,5,6
 172 1327 172 1327 237.5 1384 c 128,-1,7
 303 1441 303 1441 386 1427 c 1,8,-1
 396 1316 l 1,9,10
 380 1330 380 1330 349 1330 c 0,11,12
 312 1330 312 1330 289 1314 c 128,-1,13
 266 1298 266 1298 261 1270.5 c 128,-1,14
 256 1243 256 1243 276.5 1217.5 c 128,-1,15
 297 1192 297 1192 326 1192 c 0,16,17
 369 1192 369 1192 407 1217.5 c 128,-1,18
 445 1243 445 1243 452 1275 c 1,19,-1
 503 1160 l 1,0,-1
EndSplineSet
EndChar

StartChar: afii57374
Encoding: 65552 -1 113
Width: 729
GlyphClass: 2
Flags: W
LayerCount: 2
Fore
SplineSet
748 0 m 1,0,-1
 617 0 l 2,1,2
 533 0 533 0 469 37 c 0,3,4
 445 51 445 51 379 109 c 1,5,6
 278 0 278 0 87 0 c 2,7,-1
 -19 0 l 1,8,-1
 -19 283 l 1,9,-1
 197 283 l 1,10,11
 163 321 163 321 124 402 c 0,12,13
 79 498 79 498 79 563 c 0,14,15
 79 688 79 688 191 787 c 0,16,17
 295 879 295 879 401 879 c 0,18,19
 496 879 496 879 583 790 c 0,20,21
 676 695 676 695 676 574 c 0,22,23
 676 507 676 507 634 419 c 0,24,25
 600 348 600 348 560 301 c 1,26,27
 592 282 592 282 646 283 c 2,28,-1
 748 284 l 1,29,-1
 748 0 l 1,0,-1
475 567 m 0,30,31
 475 609 475 609 379 609 c 0,32,33
 281 609 281 609 281 567 c 0,34,35
 281 548 281 548 320 495 c 0,36,37
 361 439 361 439 380 439 c 0,38,39
 400 439 400 439 438 494 c 0,40,41
 475 546 475 546 475 567 c 0,30,31
EndSplineSet
EndChar

StartChar: afii57375
Encoding: 1619 1619 114
Width: 1133
GlyphClass: 2
Flags: W
LayerCount: 2
Fore
SplineSet
144 1194 m 1,0,1
 183 1303 183 1303 258 1383 c 0,2,3
 367 1492 367 1492 512 1492 c 0,4,5
 533 1492 533 1492 576 1488 c 128,-1,6
 619 1484 619 1484 641 1484 c 0,7,8
 743 1484 743 1484 795 1535 c 0,9,10
 837 1576 837 1576 871 1671 c 1,11,-1
 1069 1610 l 1,12,13
 997 1295 997 1295 706 1295 c 0,14,15
 688 1295 688 1295 652 1298 c 128,-1,16
 616 1301 616 1301 598 1301 c 0,17,18
 476 1301 476 1301 401 1218 c 0,19,20
 366 1179 366 1179 345 1127 c 1,21,-1
 144 1194 l 1,0,1
EndSplineSet
EndChar

StartChar: afii57391
Encoding: 59450 59450 115
Width: 1024
GlyphClass: 2
Flags: W
LayerCount: 2
Fore
SplineSet
1024 0 m 1,0,-1
 -70 0 l 1,1,-1
 -70 188 l 1,2,-1
 1024 188 l 1,3,-1
 1024 0 l 1,0,-1
EndSplineSet
EndChar

StartChar: afii57471
Encoding: 65553 -1 116
Width: 1852
Flags: W
LayerCount: 2
Fore
SplineSet
1811 522 m 1,0,1
 1778 443 1778 443 1720 325 c 1,2,3
 1720 284 1720 284 1803 284 c 2,4,-1
 1881 284 l 1,5,-1
 1881 0 l 1,6,-1
 1792 0 l 2,7,8
 1624 0 1624 0 1624 197 c 1,9,10
 1532 114 1532 114 1301 56.5 c 128,-1,11
 1070 -1 1070 -1 825 -1 c 0,12,13
 534 -1 534 -1 356 82 c 0,14,15
 150 179 150 179 150 369 c 0,16,17
 150 584 150 584 511 821 c 0,18,19
 662 919 662 919 872 1014 c 1,20,-1
 872 730 l 1,21,22
 359 571 359 571 359 405 c 0,23,24
 359 350 359 350 506 313 c 0,25,26
 648 278 648 278 847 278 c 0,27,28
 1133 278 1133 278 1327 350 c 0,29,30
 1558 436 1558 436 1558 597 c 1,31,-1
 1811 522 l 1,0,1
EndSplineSet
EndChar

StartChar: afii52258
Encoding: 65554 -1 117
Width: 1917
GlyphClass: 2
Flags: W
LayerCount: 2
Fore
SplineSet
1655 563 m 0,0,1
 1655 601 1655 601 1567 601 c 0,2,3
 1478 601 1478 601 1478 563 c 0,4,5
 1478 546 1478 546 1514.5 496.5 c 128,-1,6
 1551 447 1551 447 1568 447 c 0,7,8
 1586 447 1586 447 1620.5 495.5 c 128,-1,9
 1655 544 1655 544 1655 563 c 0,0,1
1372 310 m 1,10,11
 1338 348 1338 348 1306 415 c 0,12,13
 1267 498 1267 498 1267 563 c 0,14,15
 1267 688 1267 688 1380 787 c 0,16,17
 1484 879 1484 879 1589 879 c 0,18,19
 1685 879 1685 879 1772 790 c 0,20,21
 1865 695 1865 695 1865 574 c 0,22,23
 1865 507 1865 507 1822 419 c 0,24,25
 1789 348 1789 348 1749 301 c 1,26,27
 1781 282 1781 282 1835 283 c 2,28,-1
 1936 284 l 1,29,-1
 1936 0 l 1,30,-1
 1806 0 l 2,31,32
 1721 0 1721 0 1658 37 c 0,33,34
 1634 51 1634 51 1567 109 c 1,35,36
 1415 28 1415 28 1256 9 c 0,37,38
 1182 0 1182 0 928 0 c 0,39,40
 150 0 150 0 150 356 c 0,41,42
 150 537 150 537 414 743 c 0,43,44
 628 910 628 910 871 1001 c 1,45,-1
 872 726 l 1,46,47
 735 699 735 699 554 604 c 0,48,49
 353 497 353 497 353 422 c 0,50,51
 353 284 353 284 928 284 c 0,52,53
 1178 284 1178 284 1190 284 c 0,54,55
 1315 288 1315 288 1372 310 c 1,10,11
EndSplineSet
EndChar

StartChar: afii62889
Encoding: 65555 -1 123
Width: 1705
Flags: W
LayerCount: 2
Fore
SplineSet
1378 315 m 1,0,1
 1370 371 1370 371 1327 410 c 0,2,3
 1281 451 1281 451 1217 451 c 0,4,5
 1152 451 1152 451 1152 391 c 0,6,7
 1152 376 1152 376 1162 364 c 0,8,9
 1215 302 1215 302 1292 302 c 0,10,11
 1327 302 1327 302 1378 315 c 1,0,1
1573 284 m 1,12,-1
 1725 284 l 1,13,-1
 1725 0 l 1,14,-1
 1549 0 l 1,15,16
 1477 -262 1477 -262 1248 -420 c 0,17,18
 1030 -569 1030 -569 754 -569 c 0,19,20
 477 -569 477 -569 310 -428 c 0,21,22
 149 -292 149 -292 149 -77 c 0,23,24
 149 137 149 137 356 345 c 0,25,26
 531 522 531 522 826 669 c 1,27,-1
 826 394 l 1,28,29
 662 330 662 330 515 214 c 0,30,31
 337 76 337 76 337 -35 c 0,32,33
 337 -143 337 -143 472 -209 c 0,34,35
 602 -273 602 -273 797 -273 c 0,36,37
 1036 -273 1036 -273 1188 -183 c 0,38,39
 1345 -91 1345 -91 1345 61 c 1,40,41
 1301 54 1301 54 1260 54 c 0,42,43
 1137 54 1137 54 1062 115 c 0,44,45
 984 179 984 179 984 290 c 0,46,47
 984 443 984 443 1067.5 566.5 c 128,-1,48
 1151 690 1151 690 1258 690 c 0,49,50
 1385 690 1385 690 1475 558 c 0,51,52
 1555 442 1555 442 1573 284 c 1,12,-1
EndSplineSet
EndChar

StartChar: afii62887
Encoding: 65556 -1 124
Width: 1792
Flags: W
LayerCount: 2
Fore
SplineSet
1792 434 m 0,0,1
 1792 232 1792 232 1510 110 c 0,2,3
 1258 0 1258 0 906 0 c 0,4,5
 592 0 592 0 382 91 c 0,6,7
 150 192 150 192 150 369 c 0,8,9
 150 584 150 584 511 821 c 0,10,11
 662 919 662 919 872 1014 c 1,12,-1
 872 730 l 1,13,14
 353 577 353 577 353 435 c 0,15,16
 353 365 353 365 535 322 c 0,17,18
 703 283 703 283 941 283 c 0,19,20
 1202 283 1202 283 1379 330 c 0,21,22
 1581 384 1581 384 1581 480 c 0,23,24
 1581 527 1581 527 1509 676 c 1,25,-1
 1738 775 l 1,26,27
 1792 659 1792 659 1792 434 c 0,0,1
EndSplineSet
EndChar

StartChar: afii62888
Encoding: 1697 1697 125
Width: 1801
GlyphClass: 2
Flags: W
LayerCount: 2
Fore
SplineSet
1602 635 m 1,0,1
 1594 690 1594 690 1551 729 c 0,2,3
 1505 770 1505 770 1442 770 c 0,4,5
 1377 770 1377 770 1377 711 c 0,6,7
 1377 695 1377 695 1386 684 c 0,8,9
 1438 623 1438 623 1517 623 c 0,10,11
 1549 623 1549 623 1602 635 c 1,0,1
1569 381 m 1,12,13
 1525 373 1525 373 1484 373 c 0,14,15
 1362 373 1362 373 1287 434 c 0,16,17
 1208 498 1208 498 1208 610 c 0,18,19
 1208 763 1208 763 1291.5 887.5 c 128,-1,20
 1375 1012 1375 1012 1482 1012 c 0,21,22
 1649 1012 1649 1012 1737 810 c 0,23,24
 1801 663 1801 663 1801 498 c 0,25,26
 1801 0 1801 0 928 0 c 0,27,28
 150 0 150 0 150 356 c 0,29,30
 150 537 150 537 415 743 c 0,31,32
 629 910 629 910 872 1001 c 1,33,-1
 872 726 l 1,34,35
 735 699 735 699 554 604 c 0,36,37
 353 497 353 497 353 422 c 0,38,39
 353 284 353 284 928 284 c 0,40,41
 1153 284 1153 284 1337 307 c 0,42,43
 1557 334 1557 334 1569 381 c 1,12,13
EndSplineSet
Substitution2: "'medi' Medial Forms in Arabic lookup 3 subtable" afii57374
Substitution2: "'fina' Terminal Forms in Arabic lookup 2 subtable" afii52258
Substitution2: "'init' Initial Forms in Arabic lookup 1 subtable" afii57459
EndChar

StartChar: afii57567
Encoding: 1705 1705 132
Width: 2118
GlyphClass: 2
Flags: W
AnchorPoint: "Anchor-3" 915 -570 basechar 0
AnchorPoint: "Anchor-2" 1020 1335 basechar 0
LayerCount: 2
Fore
SplineSet
925 0 m 0,0,1
 635 0 635 0 447 57 c 0,2,3
 150 146 150 146 150 365 c 0,4,5
 150 546 150 546 427 752 c 0,6,7
 646 916 646 916 897 1009 c 1,8,-1
 898 734 l 1,9,10
 751 706 751 706 574 624 c 0,11,12
 367 528 367 528 367 454 c 0,13,14
 367 372 367 372 553 324 c 0,15,16
 711 284 711 284 925 284 c 0,17,18
 1228 284 1228 284 1373 304 c 0,19,20
 1631 339 1631 339 1631 443 c 0,21,22
 1631 511 1631 511 1533 653 c 1,23,24
 1446 770 1446 770 1358 887 c 1,25,-1
 1510 1150 l 1,26,-1
 2117 1298 l 1,27,-1
 2117 1032 l 1,28,-1
 1647 906 l 1,29,30
 1841 652 1841 652 1841 502 c 0,31,32
 1841 193 1841 193 1591 84 c 0,33,34
 1399 0 1399 0 925 0 c 0,0,1
EndSplineSet
Substitution2: "'medi' Medial Forms in Arabic lookup 3 subtable" afii52306
Substitution2: "'fina' Terminal Forms in Arabic lookup 2 subtable" afii62964
Substitution2: "'init' Initial Forms in Arabic lookup 1 subtable" afii52305
EndChar

StartChar: afii62964
Encoding: 64399 64399 133
Width: 2032
GlyphClass: 2
Flags: W
AnchorPoint: "Anchor-3" 945 -510 basechar 0
AnchorPoint: "Anchor-2" 1140 1305 basechar 0
LayerCount: 2
Fore
SplineSet
1631 443 m 0,0,1
 1631 528 1631 528 1533 663 c 1,2,3
 1446 775 1446 775 1358 887 c 1,4,-1
 1510 1150 l 1,5,-1
 2117 1298 l 1,6,-1
 2117 1032 l 1,7,-1
 1647 906 l 1,8,9
 1841 652 1841 652 1841 502 c 0,10,11
 1841 386 1841 386 1809 304 c 1,12,13
 1835 283 1835 283 1869 283 c 2,14,-1
 2051 283 l 1,15,-1
 2051 0 l 1,16,-1
 1878 0 l 2,17,18
 1824 0 1824 0 1798 43 c 0,19,20
 1796 47 1796 47 1769 123 c 0,21,22
 1753 166 1753 166 1724 166 c 1,23,24
 1592 57 1592 57 1414 25 c 0,25,26
 1276 0 1276 0 925 0 c 0,27,28
 635 0 635 0 447 57 c 0,29,30
 150 146 150 146 150 365 c 0,31,32
 150 546 150 546 427 752 c 0,33,34
 646 916 646 916 897 1009 c 1,35,-1
 898 734 l 1,36,37
 751 706 751 706 574 624 c 0,38,39
 367 528 367 528 367 454 c 0,40,41
 367 372 367 372 553 324 c 0,42,43
 711 284 711 284 925 284 c 0,44,45
 1228 284 1228 284 1373 304 c 0,46,47
 1631 339 1631 339 1631 443 c 0,0,1
EndSplineSet
EndChar

StartChar: afii52305
Encoding: 64400 64400 134
Width: 836
GlyphClass: 2
Flags: W
AnchorPoint: "Anchor-3" 345 -525 basechar 0
AnchorPoint: "Anchor-2" 480 1350 basechar 0
LayerCount: 2
Fore
SplineSet
351 366 m 0,0,1
 351 477 351 477 79 848 c 1,2,-1
 230 1112 l 1,3,-1
 837 1260 l 1,4,-1
 837 994 l 1,5,-1
 367 868 l 1,6,7
 420 798 420 798 479 682 c 0,8,9
 561 521 561 521 561 426 c 0,10,11
 561 0 561 0 213 0 c 2,12,-1
 -19 0 l 1,13,-1
 -19 283 l 1,14,-1
 236 283 l 2,15,16
 280 283 280 283 315.5 306.5 c 128,-1,17
 351 330 351 330 351 366 c 0,0,1
EndSplineSet
EndChar

StartChar: afii52306
Encoding: 64401 64401 135
Width: 800
GlyphClass: 2
Flags: W
AnchorPoint: "Anchor-3" 360 -675 basechar 0
AnchorPoint: "Anchor-2" 345 1320 basechar 0
LayerCount: 2
Fore
SplineSet
590 283 m 2,0,-1
 820 283 l 1,1,-1
 820 0 l 1,2,-1
 598 0 l 2,3,4
 527 0 527 0 497.5 63.5 c 128,-1,5
 468 127 468 127 444 127 c 1,6,7
 355 0 355 0 146 0 c 2,8,-1
 -19 0 l 1,9,-1
 -19 283 l 1,10,-1
 236 283 l 2,11,12
 280 283 280 283 315.5 306.5 c 128,-1,13
 351 330 351 330 351 366 c 0,14,15
 351 466 351 466 253 613 c 1,16,17
 166 731 166 731 79 848 c 1,18,-1
 230 1112 l 1,19,-1
 837 1260 l 1,20,-1
 837 994 l 1,21,-1
 367 868 l 1,22,23
 421 797 421 797 479 683 c 0,24,25
 561 522 561 522 561 426 c 0,26,27
 561 414 561 414 557 382 c 128,-1,28
 553 350 553 350 553 334 c 0,29,30
 553 283 553 283 590 283 c 2,0,-1
EndSplineSet
EndChar

StartChar: afii57509
Encoding: 1711 1711 136
Width: 2117
GlyphClass: 2
Flags: W
AnchorPoint: "Anchor-3" 900 -555 basechar 0
AnchorPoint: "Anchor-2" 1020 1455 basechar 0
LayerCount: 2
Fore
SplineSet
2068 1371 m 1,0,-1
 1592 1261 l 1,1,-1
 1574 1332 l 1,2,-1
 2048 1442 l 1,3,-1
 2068 1371 l 1,0,-1
925 0 m 0,4,5
 635 0 635 0 447 57 c 0,6,7
 150 146 150 146 150 365 c 0,8,9
 150 546 150 546 427 752 c 0,10,11
 646 916 646 916 897 1009 c 1,12,-1
 898 734 l 1,13,14
 751 706 751 706 574 624 c 0,15,16
 367 528 367 528 367 454 c 0,17,18
 367 372 367 372 553 324 c 0,19,20
 711 284 711 284 925 284 c 0,21,22
 1228 284 1228 284 1373 304 c 0,23,24
 1631 339 1631 339 1631 443 c 0,25,26
 1631 511 1631 511 1533 653 c 1,27,28
 1446 770 1446 770 1358 887 c 1,29,-1
 1510 1150 l 1,30,-1
 2117 1298 l 1,31,-1
 2117 1032 l 1,32,-1
 1647 906 l 1,33,34
 1841 652 1841 652 1841 502 c 0,35,36
 1841 193 1841 193 1591 84 c 0,37,38
 1399 0 1399 0 925 0 c 0,4,5
EndSplineSet
Substitution2: "'medi' Medial Forms in Arabic lookup 3 subtable" afii62966
Substitution2: "'fina' Terminal Forms in Arabic lookup 2 subtable" afii62967
Substitution2: "'init' Initial Forms in Arabic lookup 1 subtable" afii62965
EndChar

StartChar: afii62967
Encoding: 64403 64403 137
Width: 2032
GlyphClass: 2
Flags: W
AnchorPoint: "Anchor-3" 855 -600 basechar 0
AnchorPoint: "Anchor-2" 1140 1305 basechar 0
LayerCount: 2
Fore
SplineSet
2068 1371 m 1,0,-1
 1592 1261 l 1,1,-1
 1574 1332 l 1,2,-1
 2048 1442 l 1,3,-1
 2068 1371 l 1,0,-1
1631 443 m 0,4,5
 1631 528 1631 528 1533 663 c 1,6,7
 1446 775 1446 775 1358 887 c 1,8,-1
 1510 1150 l 1,9,-1
 2117 1298 l 1,10,-1
 2117 1032 l 1,11,-1
 1647 906 l 1,12,13
 1841 652 1841 652 1841 502 c 0,14,15
 1841 386 1841 386 1809 304 c 1,16,17
 1835 283 1835 283 1869 283 c 2,18,-1
 2051 283 l 1,19,-1
 2051 0 l 1,20,-1
 1878 0 l 2,21,22
 1824 0 1824 0 1798 43 c 0,23,24
 1796 47 1796 47 1769 123 c 0,25,26
 1753 166 1753 166 1724 166 c 1,27,28
 1592 57 1592 57 1414 25 c 0,29,30
 1276 0 1276 0 925 0 c 0,31,32
 635 0 635 0 447 57 c 0,33,34
 150 146 150 146 150 365 c 0,35,36
 150 546 150 546 427 752 c 0,37,38
 646 916 646 916 897 1009 c 1,39,-1
 898 734 l 1,40,41
 751 706 751 706 574 624 c 0,42,43
 367 528 367 528 367 454 c 0,44,45
 367 372 367 372 553 324 c 0,46,47
 711 284 711 284 925 284 c 0,48,49
 1228 284 1228 284 1373 304 c 0,50,51
 1631 339 1631 339 1631 443 c 0,4,5
EndSplineSet
EndChar

StartChar: afii62965
Encoding: 64404 64404 138
Width: 836
GlyphClass: 2
Flags: W
AnchorPoint: "Anchor-3" 240 -480 basechar 0
AnchorPoint: "Anchor-2" 390 1485 basechar 0
LayerCount: 2
Fore
SplineSet
783 1342 m 1,0,-1
 308 1232 l 1,1,-1
 290 1303 l 1,2,-1
 763 1413 l 1,3,-1
 783 1342 l 1,0,-1
351 366 m 0,4,5
 351 477 351 477 79 848 c 1,6,-1
 230 1112 l 1,7,-1
 837 1260 l 1,8,-1
 837 994 l 1,9,-1
 367 868 l 1,10,11
 420 798 420 798 479 682 c 0,12,13
 561 521 561 521 561 426 c 0,14,15
 561 0 561 0 213 0 c 2,16,-1
 -19 0 l 1,17,-1
 -19 283 l 1,18,-1
 236 283 l 2,19,20
 280 283 280 283 315.5 306.5 c 128,-1,21
 351 330 351 330 351 366 c 0,4,5
EndSplineSet
EndChar

StartChar: afii62966
Encoding: 64405 64405 139
Width: 800
GlyphClass: 2
Flags: W
AnchorPoint: "Anchor-3" 330 -510 basechar 0
AnchorPoint: "Anchor-2" 420 1530 basechar 0
LayerCount: 2
Fore
SplineSet
793 1332 m 1,0,-1
 317 1222 l 1,1,-1
 299 1293 l 1,2,-1
 773 1403 l 1,3,-1
 793 1332 l 1,0,-1
590 283 m 2,4,-1
 820 283 l 1,5,-1
 820 0 l 1,6,-1
 598 0 l 2,7,8
 527 0 527 0 497.5 63.5 c 128,-1,9
 468 127 468 127 444 127 c 1,10,11
 355 0 355 0 146 0 c 2,12,-1
 -19 0 l 1,13,-1
 -19 283 l 1,14,-1
 236 283 l 2,15,16
 280 283 280 283 315.5 306.5 c 128,-1,17
 351 330 351 330 351 366 c 0,18,19
 351 466 351 466 253 613 c 1,20,21
 166 731 166 731 79 848 c 1,22,-1
 230 1112 l 1,23,-1
 837 1260 l 1,24,-1
 837 994 l 1,25,-1
 367 868 l 1,26,27
 421 797 421 797 479 683 c 0,28,29
 561 522 561 522 561 426 c 0,30,31
 561 414 561 414 557 382 c 128,-1,32
 553 350 553 350 553 334 c 0,33,34
 553 283 553 283 590 283 c 2,4,-1
EndSplineSet
EndChar

StartChar: afii57555
Encoding: 1740 1740 140
Width: 1612
GlyphClass: 2
Flags: W
AnchorPoint: "Anchor-3" 720 -1035 basechar 0
AnchorPoint: "Anchor-2" 915 930 basechar 0
LayerCount: 2
Fore
SplineSet
1612 460 m 1,0,1
 1578 465 1578 465 1539 465 c 0,2,3
 1424 465 1424 465 1336 433 c 0,4,5
 1239 398 1239 398 1239 344 c 0,6,7
 1239 316 1239 316 1320 293 c 0,8,9
 1432 262 1432 262 1472 236 c 0,10,11
 1554 183 1554 183 1554 83 c 0,12,13
 1554 -221 1554 -221 1242 -410 c 0,14,15
 991 -562 991 -562 735 -562 c 0,16,17
 510 -562 510 -562 347 -453 c 0,18,19
 150 -321 150 -321 150 -81 c 0,20,21
 150 142 150 142 373 359 c 0,22,23
 508 490 508 490 764 644 c 1,24,-1
 764 357 l 1,25,26
 615 298 615 298 488 191 c 0,27,28
 339 65 339 65 339 -40 c 0,29,30
 339 -148 339 -148 476 -212 c 0,31,32
 603 -272 603 -272 793 -272 c 0,33,34
 1003 -272 1003 -272 1178 -177 c 0,35,36
 1332 -92 1332 -92 1332 -21 c 0,37,38
 1332 22 1332 22 1237 52 c 0,39,40
 1067 106 1067 106 1059 109 c 0,41,42
 963 154 963 154 963 232 c 0,43,44
 963 437 963 437 1206 594 c 0,45,46
 1407 725 1407 725 1612 744 c 1,47,-1
 1612 460 l 1,0,1
EndSplineSet
Substitution2: "'medi' Medial Forms in Arabic lookup 3 subtable" afii62832
Substitution2: "'fina' Terminal Forms in Arabic lookup 2 subtable" afii52364
Substitution2: "'init' Initial Forms in Arabic lookup 1 subtable" uniFBFE
EndChar

StartChar: afii52364
Encoding: 64509 64509 141
Width: 1703
GlyphClass: 2
Flags: W
AnchorPoint: "Anchor-3" 765 -1020 basechar 0
AnchorPoint: "Anchor-2" 870 795 basechar 0
LayerCount: 2
Fore
SplineSet
1723 0 m 1,0,-1
 1693 0 l 2,1,2
 1642 0 1642 0 1609.5 13.5 c 128,-1,3
 1577 27 1577 27 1575 27 c 0,4,5
 1569 27 1569 27 1563 24 c 1,6,7
 1535 -212 1535 -212 1274 -389.5 c 128,-1,8
 1013 -567 1013 -567 705 -567 c 0,9,10
 460 -567 460 -567 305.5 -439 c 128,-1,11
 151 -311 151 -311 151 -114 c 0,12,13
 151 69 151 69 292 257 c 0,14,15
 450 467 450 467 758 645 c 1,16,-1
 758 356 l 1,17,18
 345 133 345 133 345 -26 c 0,19,20
 345 -147 345 -147 476 -214 c 0,21,22
 595 -275 595 -275 775 -272 c 0,23,24
 906 -270 906 -270 1085 -218 c 0,25,26
 1319 -149 1319 -149 1319 -50 c 0,27,28
 1319 -12 1319 -12 1212 -7 c 0,29,30
 1088 -1 1088 -1 1052 48 c 0,31,32
 1008 106 1008 106 1008 199 c 0,33,34
 1008 283 1008 283 1069 283 c 2,35,-1
 1723 283 l 1,36,-1
 1723 0 l 1,0,-1
EndSplineSet
EndChar

StartChar: afii62945
Encoding: 65557 -1 147
Width: 1856
GlyphClass: 3
Flags: W
LayerCount: 2
Fore
SplineSet
1806 650 m 0,0,1
 1823 0 1823 0 1430 0 c 0,2,3
 1291 0 1291 0 1181 135 c 1,4,5
 1110 0 1110 0 924 0 c 0,6,7
 639 0 639 0 596 342 c 1,8,-1
 520 131 l 1,9,10
 338 222 338 222 289 256 c 0,11,12
 150 354 150 354 150 462 c 0,13,14
 150 560 150 560 232 622 c 0,15,16
 294 668 294 668 409 698 c 1,17,18
 494 716 494 716 578 734 c 1,19,-1
 576 801 l 1,20,-1
 789 855 l 1,21,22
 785 800 785 800 785 735 c 0,23,24
 785 283 785 283 941 283 c 0,25,26
 1062 283 1062 283 1090 383 c 0,27,28
 1094 398 1094 398 1094 415 c 0,29,30
 1094 431 1094 431 1082.5 497.5 c 128,-1,31
 1071 564 1071 564 1071 626 c 1,32,-1
 1317 713 l 1,33,34
 1317 696 1317 696 1306 613 c 128,-1,35
 1295 530 1295 530 1295 478 c 0,36,37
 1295 283 1295 283 1441 283 c 0,38,39
 1596 283 1596 283 1596 527 c 0,40,41
 1596 562 1596 562 1593 604 c 0,42,43
 1582 755 1582 755 1524 1023 c 1,44,-1
 1752 1100 l 1,45,46
 1777 961 1777 961 1785 906 c 0,47,48
 1803 777 1803 777 1806 650 c 0,0,1
592 380 m 0,49,50
 594 380 594 380 589 427 c 0,51,52
 583 484 583 484 583 511 c 1,53,54
 427 493 427 493 427 476 c 0,55,56
 427 460 427 460 483 426 c 0,57,58
 542 389 542 389 592 380 c 0,49,50
EndSplineSet
EndChar

StartChar: afii64184
Encoding: 65010 65010 148
Width: 1856
GlyphClass: 3
Flags: W
AnchorPoint: "Anchor-1" 1620 -390 baselig 0
AnchorPoint: "Anchor-0" 1665 1200 baselig 0
AnchorPoint: "Anchor-1" 975 -435 baselig 1
AnchorPoint: "Anchor-0" 1170 720 baselig 1
AnchorPoint: "Anchor-1" 480 -480 baselig 2
AnchorPoint: "Anchor-0" 480 930 baselig 2
LayerCount: 2
Fore
SplineSet
1206 1077 m 1,0,-1
 1131 1044 l 1,1,2
 1130 1079 1130 1079 1126 1115 c 0,3,4
 1115 1203 1115 1203 1087 1286 c 1,5,-1
 1168 1337 l 1,6,7
 1213 1204 1213 1204 1213 1124 c 0,8,9
 1213 1091 1213 1091 1206 1077 c 1,0,-1
1386 996 m 0,10,11
 1389 975 1389 975 1389 953 c 0,12,13
 1389 884 1389 884 1358 830 c 0,14,15
 1320 765 1320 765 1255 765 c 0,16,17
 1227 765 1227 765 1197.5 782 c 128,-1,18
 1168 799 1168 799 1168 799 c 1,19,20
 1155 786 1155 786 1143 774 c 0,21,22
 1116 750 1116 750 1068 742 c 0,23,24
 1057 740 1057 740 1047 740 c 0,25,26
 997 740 997 740 964 783 c 0,27,28
 935 822 935 822 935 874 c 0,29,30
 935 918 935 918 954 975 c 1,31,-1
 1061 966 l 1,32,33
 1047 906 1047 906 1050 888 c 0,34,35
 1051 871 1051 871 1076 871 c 0,36,37
 1122 871 1122 871 1122 939 c 0,38,39
 1122 959 1122 959 1119 986 c 1,40,-1
 1228 991 l 1,41,42
 1235 965 1235 965 1232 943 c 0,43,44
 1228 909 1228 909 1228 922 c 1,45,46
 1228 917 1228 917 1239.5 909 c 128,-1,47
 1251 901 1251 901 1263 903 c 0,48,49
 1289 907 1289 907 1289 934 c 0,50,51
 1289 962 1289 962 1258 1027 c 1,52,-1
 1365 1075 l 1,53,54
 1374 1048 1374 1048 1386 996 c 0,10,11
1806 650 m 0,55,56
 1823 0 1823 0 1430 0 c 0,57,58
 1291 0 1291 0 1181 135 c 1,59,60
 1110 0 1110 0 924 0 c 0,61,62
 639 0 639 0 596 342 c 1,63,-1
 520 131 l 1,64,65
 338 222 338 222 289 256 c 0,66,67
 150 354 150 354 150 462 c 0,68,69
 150 560 150 560 232 622 c 0,70,71
 294 668 294 668 409 698 c 1,72,73
 494 716 494 716 578 734 c 1,74,-1
 576 801 l 1,75,-1
 789 855 l 1,76,77
 785 800 785 800 785 735 c 0,78,79
 785 283 785 283 941 283 c 0,80,81
 1062 283 1062 283 1090 383 c 0,82,83
 1094 398 1094 398 1094 415 c 0,84,85
 1094 431 1094 431 1082.5 497.5 c 128,-1,86
 1071 564 1071 564 1071 626 c 1,87,-1
 1317 713 l 1,88,89
 1317 696 1317 696 1306 613 c 128,-1,90
 1295 530 1295 530 1295 478 c 0,91,92
 1295 283 1295 283 1441 283 c 0,93,94
 1596 283 1596 283 1596 527 c 0,95,96
 1596 562 1596 562 1593 604 c 0,97,98
 1582 755 1582 755 1524 1023 c 1,99,-1
 1752 1100 l 1,100,101
 1777 961 1777 961 1785 906 c 0,102,103
 1803 777 1803 777 1806 650 c 0,55,56
592 380 m 0,104,105
 594 380 594 380 589 427 c 0,106,107
 583 484 583 484 583 511 c 1,108,109
 427 493 427 493 427 476 c 0,110,111
 427 460 427 460 483 426 c 0,112,113
 542 389 542 389 592 380 c 0,104,105
EndSplineSet
Ligature2: "'rlig' Required Ligatures in Arabic lookup 5 subtable" afii62817 afii62818 uniFC63 afii62828
Ligature2: "'rlig' Required Ligatures in Arabic lookup 5 subtable" afii62817 afii62818 afii57457 uni0670 afii62828
EndChar

StartChar: afii57415.001
Encoding: 1575 1575 162
Width: 448
GlyphClass: 2
Flags: W
AnchorPoint: "Anchor-3" 300 -465 basechar 0
AnchorPoint: "Anchor-2" 270 1455 basechar 0
LayerCount: 2
Fore
SplineSet
410 60 m 1,0,-1
 177 0 l 1,1,2
 224 303 224 303 207 622 c 0,3,4
 196 821 196 821 192 879 c 0,5,6
 177 1061 177 1061 150 1170 c 1,7,-1
 382 1246 l 1,8,9
 420 1064 420 1064 442 678 c 0,10,11
 463 306 463 306 410 60 c 1,0,-1
EndSplineSet
Substitution2: "'fina' Terminal Forms in Arabic lookup 2 subtable" afii62760
EndChar

StartChar: afii62760.001
Encoding: 65558 -1 163
Width: 579
GlyphClass: 2
Flags: W
LayerCount: 2
Fore
SplineSet
608 283 m 1,0,-1
 608 0 l 1,1,-1
 477 0 l 2,2,3
 287 0 287 0 209 135 c 0,4,5
 150 238 150 238 150 449 c 0,6,7
 150 499 150 499 153 568 c 0,8,9
 171 945 171 945 231 1246 c 1,10,-1
 476 1170 l 1,11,12
 405 845 405 845 391 591 c 0,13,14
 387 511 387 511 387 470 c 0,15,16
 387 366 387 366 414 327 c 0,17,18
 443 283 443 283 523 283 c 2,19,-1
 608 283 l 1,0,-1
EndSplineSet
EndChar

StartChar: afii57421
Encoding: 1581 1581 182
Width: 1074
GlyphClass: 2
Flags: W
AnchorPoint: "Anchor-3" 570 -1410 basechar 0
AnchorPoint: "Anchor-2" 600 1020 basechar 0
LayerCount: 2
Fore
SplineSet
385 -278 m 0,0,1
 385 -441 385 -441 544 -550 c 0,2,3
 714 -667 714 -667 991 -667 c 0,4,5
 1032 -667 1032 -667 1074 -664 c 1,6,-1
 1074 -942 l 1,7,8
 1022 -946 1022 -946 972 -946 c 0,9,10
 606 -946 606 -946 373 -758 c 128,-1,11
 140 -570 140 -570 140 -278 c 0,12,13
 140 62 140 62 591 434 c 1,14,15
 487 522 487 522 352 522 c 0,16,17
 252 522 252 522 150 481 c 1,18,-1
 150 739 l 1,19,20
 234 791 234 791 352 791 c 0,21,22
 436 791 436 791 531 753 c 0,23,24
 545 747 545 747 679 682 c 0,25,26
 801 622 801 622 993 622 c 0,27,28
 1032 622 1032 622 1061 626 c 1,29,-1
 1061 385 l 1,30,31
 798 313 798 313 602 136 c 0,32,33
 385 -60 385 -60 385 -278 c 0,0,1
EndSplineSet
Substitution2: "'medi' Medial Forms in Arabic lookup 3 subtable" afii62775
Substitution2: "'fina' Terminal Forms in Arabic lookup 2 subtable" afii62776
Substitution2: "'init' Initial Forms in Arabic lookup 1 subtable" afii62774
EndChar

StartChar: afii62776
Encoding: 65186 65186 183
Width: 1173
GlyphClass: 2
Flags: W
AnchorPoint: "Anchor-3" 615 -1410 basechar 0
AnchorPoint: "Anchor-2" 615 1065 basechar 0
LayerCount: 2
Fore
SplineSet
1173 -942 m 1,0,1
 1132 -944 1132 -944 1093 -944 c 0,2,3
 677 -944 677 -944 441 -759 c 0,4,5
 211 -580 211 -580 211 -278 c 0,6,7
 211 -80 211 -80 350 109 c 0,8,9
 441 235 441 235 624 385 c 1,10,11
 534 462 534 462 385 462 c 0,12,13
 295 462 295 462 150 404 c 1,14,-1
 150 661 l 1,15,16
 189 686 189 686 262 709 c 0,17,18
 340 734 340 734 385 734 c 0,19,20
 460 734 460 734 553 695 c 0,21,22
 681 641 681 641 712 633 c 0,23,24
 879 589 879 589 1080 619 c 1,25,-1
 1080 379 l 1,26,27
 1054 371 1054 371 996.5 337.5 c 128,-1,28
 939 304 939 304 916 283 c 1,29,-1
 1193 283 l 1,30,-1
 1193 0 l 1,31,-1
 938 0 l 2,32,33
 856 0 856 0 824 46 c 0,34,35
 808 68 808 68 797 131 c 0,36,37
 788 176 788 176 764 176 c 1,38,39
 456 -27 456 -27 456 -278 c 0,40,41
 456 -456 456 -456 628.5 -561 c 128,-1,42
 801 -666 801 -666 1093 -666 c 0,43,44
 1132 -666 1132 -666 1173 -664 c 1,45,-1
 1173 -942 l 1,0,1
EndSplineSet
EndChar

StartChar: afii62774
Encoding: 65187 65187 184
Width: 1032
GlyphClass: 2
Flags: W
AnchorPoint: "Anchor-3" 405 -510 basechar 0
AnchorPoint: "Anchor-2" 525 1020 basechar 0
LayerCount: 2
Fore
SplineSet
622 118 m 0,0,1
 556 68 556 68 402 32 c 0,2,3
 264 0 264 0 159 0 c 2,4,-1
 -19 0 l 1,5,-1
 -19 283 l 1,6,-1
 193 283 l 2,7,8
 472 283 472 283 565 395 c 1,9,10
 440 481 440 481 323 481 c 0,11,12
 243 481 243 481 119 431 c 1,13,-1
 119 689 l 1,14,15
 203 741 203 741 326 741 c 0,16,17
 404 741 404 741 509 697 c 0,18,19
 588 662 588 662 667 627 c 1,20,21
 815 572 815 572 983 572 c 0,22,23
 1012 572 1012 572 1032 575 c 1,24,-1
 1032 330 l 1,25,26
 801 253 801 253 622 118 c 0,0,1
EndSplineSet
EndChar

StartChar: afii62775
Encoding: 65188 65188 185
Width: 1054
GlyphClass: 2
Flags: W
AnchorPoint: "Anchor-3" 420 -630 basechar 0
AnchorPoint: "Anchor-2" 540 1065 basechar 0
LayerCount: 2
Fore
SplineSet
1001 615 m 1,0,-1
 1001 370 l 1,1,2
 889 342 889 342 828 283 c 1,3,-1
 1074 283 l 1,4,-1
 1074 0 l 1,5,-1
 838 0 l 2,6,7
 765 0 765 0 735 48 c 0,8,9
 718 75 718 75 708 138 c 0,10,11
 700 186 700 186 684 186 c 0,12,13
 678 186 678 186 628 146 c 0,14,15
 572 102 572 102 536 86 c 0,16,17
 471 59 471 59 349 31 c 0,18,19
 213 0 213 0 130 0 c 2,20,-1
 -19 0 l 1,21,-1
 -19 283 l 1,22,-1
 164 283 l 2,23,24
 439 283 439 283 536 401 c 1,25,26
 425 477 425 477 294 477 c 0,27,28
 204 477 204 477 90 431 c 1,29,-1
 90 689 l 1,30,31
 174 741 174 741 297 741 c 0,32,33
 377 741 377 741 474 704 c 0,34,35
 549 673 549 673 624 641 c 0,36,37
 692 616 692 616 817 610 c 0,38,39
 927 605 927 605 1001 615 c 1,0,-1
EndSplineSet
EndChar

StartChar: afii57423
Encoding: 1583 1583 190
Width: 974
GlyphClass: 2
Flags: W
AnchorPoint: "Anchor-3" 435 -600 basechar 0
AnchorPoint: "Anchor-2" 480 1395 basechar 0
LayerCount: 2
Fore
SplineSet
974 443 m 0,0,1
 974 0 974 0 384 0 c 2,2,-1
 203 0 l 1,3,-1
 203 283 l 1,4,-1
 473 283 l 2,5,6
 619 283 619 283 673 294 c 0,7,8
 790 318 790 318 790 400 c 0,9,10
 790 508 790 508 650 650 c 0,11,12
 516 785 516 785 348 861 c 1,13,-1
 348 1142 l 1,14,15
 974 858 974 858 974 443 c 0,0,1
EndSplineSet
Substitution2: "'fina' Terminal Forms in Arabic lookup 2 subtable" afii62780
EndChar

StartChar: afii62780
Encoding: 65194 65194 191
Width: 1122
GlyphClass: 2
Flags: W
AnchorPoint: "Anchor-3" 405 -555 basechar 0
AnchorPoint: "Anchor-2" 450 1320 basechar 0
LayerCount: 2
Fore
SplineSet
1159 0 m 1,0,-1
 964 0 l 2,1,2
 898 0 898 0 868 60.5 c 128,-1,3
 838 121 838 121 829 121 c 0,4,5
 824 121 824 121 773 89 c 0,6,7
 712 52 712 52 629 31 c 0,8,9
 506 0 506 0 324 0 c 0,10,11
 198 0 198 0 150 10 c 1,12,-1
 150 283 l 1,13,-1
 633 283 l 2,14,15
 722 283 722 283 722 328 c 0,16,17
 722 335 722 335 720 343 c 0,18,19
 633 641 633 641 440 946 c 1,20,-1
 669 1074 l 1,21,22
 855 729 855 729 951 334 c 0,23,24
 963 283 963 283 1045 283 c 2,25,-1
 1159 283 l 1,26,-1
 1159 0 l 1,0,-1
EndSplineSet
EndChar

StartChar: afii57425
Encoding: 1585 1585 194
Width: 722
GlyphClass: 2
Flags: W
AnchorPoint: "Anchor-3" 360 -1185 basechar 0
AnchorPoint: "Anchor-2" 465 690 basechar 0
LayerCount: 2
Fore
SplineSet
722 32 m 0,0,1
 722 -251 722 -251 560 -458 c 0,2,3
 406 -654 406 -654 150 -732 c 1,4,-1
 150 -450 l 1,5,6
 531 -322 531 -322 531 -26 c 0,7,8
 531 70 531 70 478 193 c 0,9,10
 427 311 427 311 357 389 c 1,11,-1
 586 512 l 1,12,13
 619 490 619 490 669 331 c 0,14,15
 722 160 722 160 722 32 c 0,0,1
EndSplineSet
Substitution2: "'fina' Terminal Forms in Arabic lookup 2 subtable" afii62782
PairPos2: "'kern' Horizontal Kerning in Arabic lookup 0 subtable" afii57415 dx=0 dy=0 dh=0 dv=0 dx=0 dy=0 dh=-90 dv=0
PairPos2: "'kern' Horizontal Kerning in Arabic lookup 0 subtable" uni0675 dx=0 dy=0 dh=0 dv=0 dx=0 dy=0 dh=-90 dv=0
PairPos2: "'kern' Horizontal Kerning in Arabic lookup 0 subtable" uni0672 dx=0 dy=0 dh=0 dv=0 dx=0 dy=0 dh=-90 dv=0
PairPos2: "'kern' Horizontal Kerning in Arabic lookup 0 subtable" afii62823 dx=0 dy=0 dh=0 dv=0 dx=0 dy=0 dh=-80 dv=0
PairPos2: "'kern' Horizontal Kerning in Arabic lookup 0 subtable" afii62817 dx=0 dy=0 dh=0 dv=0 dx=0 dy=0 dh=-80 dv=0
PairPos2: "'kern' Horizontal Kerning in Arabic lookup 0 subtable" afii57410 dx=0 dy=0 dh=0 dv=0 dx=0 dy=0 dh=-250 dv=0
PairPos2: "'kern' Horizontal Kerning in Arabic lookup 0 subtable" afii57443 dx=0 dy=0 dh=0 dv=0 dx=0 dy=0 dh=-80 dv=0
PairPos2: "'kern' Horizontal Kerning in Arabic lookup 0 subtable" afii62768 dx=0 dy=0 dh=0 dv=0 dx=0 dy=0 dh=-80 dv=0
PairPos2: "'kern' Horizontal Kerning in Arabic lookup 0 subtable" afii62765 dx=0 dy=0 dh=0 dv=0 dx=0 dy=0 dh=-80 dv=0
PairPos2: "'kern' Horizontal Kerning in Arabic lookup 0 subtable" afii62757 dx=0 dy=0 dh=0 dv=0 dx=0 dy=0 dh=-80 dv=0
PairPos2: "'kern' Horizontal Kerning in Arabic lookup 0 subtable" afii57411 dx=0 dy=0 dh=0 dv=0 dx=0 dy=0 dh=-90 dv=0
PairPos2: "'kern' Horizontal Kerning in Arabic lookup 0 subtable" afii52399 dx=0 dy=0 dh=0 dv=0 dx=0 dy=0 dh=-150 dv=0
PairPos2: "'kern' Horizontal Kerning in Arabic lookup 0 subtable" afii62965 dx=0 dy=0 dh=0 dv=0 dx=0 dy=0 dh=-250 dv=0
PairPos2: "'kern' Horizontal Kerning in Arabic lookup 0 subtable" afii57509 dx=0 dy=0 dh=0 dv=0 dx=0 dy=0 dh=-250 dv=0
PairPos2: "'kern' Horizontal Kerning in Arabic lookup 0 subtable" afii52305 dx=0 dy=0 dh=0 dv=0 dx=0 dy=0 dh=-250 dv=0
PairPos2: "'kern' Horizontal Kerning in Arabic lookup 0 subtable" afii57567 dx=0 dy=0 dh=0 dv=0 dx=0 dy=0 dh=-250 dv=0
EndChar

StartChar: afii62782
Encoding: 65198 65198 195
Width: 907
GlyphClass: 2
Flags: W
AnchorPoint: "Anchor-3" 300 -1155 basechar 0
AnchorPoint: "Anchor-2" 480 825 basechar 0
LayerCount: 2
Fore
SplineSet
926 283 m 1,0,-1
 926 0 l 1,1,-1
 867 0 l 2,2,3
 775 0 775 0 731 32 c 1,4,5
 731 -274 731 -274 554 -480 c 0,6,7
 402 -655 402 -655 150 -732 c 1,8,-1
 150 -450 l 1,9,10
 539 -319 539 -319 539 -26 c 0,11,12
 539 70 539 70 490 184 c 0,13,14
 444 292 444 292 374 370 c 1,15,-1
 607 491 l 1,16,17
 619 483 619 483 661 377 c 0,18,19
 698 283 698 283 740 283 c 2,20,-1
 926 283 l 1,0,-1
EndSplineSet
PairPos2: "'kern' Horizontal Kerning in Arabic lookup 0 subtable" afii57415 dx=0 dy=0 dh=0 dv=0 dx=0 dy=0 dh=-70 dv=0
PairPos2: "'kern' Horizontal Kerning in Arabic lookup 0 subtable" uni0675 dx=0 dy=0 dh=0 dv=0 dx=0 dy=0 dh=-70 dv=0
PairPos2: "'kern' Horizontal Kerning in Arabic lookup 0 subtable" uni0672 dx=0 dy=0 dh=0 dv=0 dx=0 dy=0 dh=-70 dv=0
PairPos2: "'kern' Horizontal Kerning in Arabic lookup 0 subtable" afii62823 dx=0 dy=0 dh=0 dv=0 dx=0 dy=0 dh=-70 dv=0
PairPos2: "'kern' Horizontal Kerning in Arabic lookup 0 subtable" afii62817 dx=0 dy=0 dh=0 dv=0 dx=0 dy=0 dh=-50 dv=0
PairPos2: "'kern' Horizontal Kerning in Arabic lookup 0 subtable" afii57410 dx=0 dy=0 dh=0 dv=0 dx=0 dy=0 dh=-250 dv=0
PairPos2: "'kern' Horizontal Kerning in Arabic lookup 0 subtable" afii57443 dx=0 dy=0 dh=0 dv=0 dx=0 dy=0 dh=-50 dv=0
PairPos2: "'kern' Horizontal Kerning in Arabic lookup 0 subtable" afii62768 dx=0 dy=0 dh=0 dv=0 dx=0 dy=0 dh=-70 dv=0
PairPos2: "'kern' Horizontal Kerning in Arabic lookup 0 subtable" afii62765 dx=0 dy=0 dh=0 dv=0 dx=0 dy=0 dh=-70 dv=0
PairPos2: "'kern' Horizontal Kerning in Arabic lookup 0 subtable" afii62757 dx=0 dy=0 dh=0 dv=0 dx=0 dy=0 dh=-70 dv=0
PairPos2: "'kern' Horizontal Kerning in Arabic lookup 0 subtable" afii57411 dx=0 dy=0 dh=0 dv=0 dx=0 dy=0 dh=-70 dv=0
PairPos2: "'kern' Horizontal Kerning in Arabic lookup 0 subtable" afii52399 dx=0 dy=0 dh=0 dv=0 dx=0 dy=0 dh=-100 dv=0
PairPos2: "'kern' Horizontal Kerning in Arabic lookup 0 subtable" afii62965 dx=0 dy=0 dh=0 dv=0 dx=0 dy=0 dh=-250 dv=0
PairPos2: "'kern' Horizontal Kerning in Arabic lookup 0 subtable" afii57509 dx=0 dy=0 dh=0 dv=0 dx=0 dy=0 dh=-250 dv=0
PairPos2: "'kern' Horizontal Kerning in Arabic lookup 0 subtable" afii52305 dx=0 dy=0 dh=0 dv=0 dx=0 dy=0 dh=-250 dv=0
PairPos2: "'kern' Horizontal Kerning in Arabic lookup 0 subtable" afii57567 dx=0 dy=0 dh=0 dv=0 dx=0 dy=0 dh=-250 dv=0
EndChar

StartChar: afii57427
Encoding: 1587 1587 198
Width: 2465
GlyphClass: 2
Flags: W
AnchorPoint: "Anchor-3" 1380 -945 basechar 0
AnchorPoint: "Anchor-2" 1815 1080 basechar 0
LayerCount: 2
Fore
SplineSet
2465 545 m 0,0,1
 2465 320 2465 320 2368 171 c 0,2,3
 2258 0 2258 0 2058 0 c 0,4,5
 1926 0 1926 0 1855 123 c 1,6,7
 1767 0 1767 0 1686 0 c 2,8,-1
 1615 0 l 2,9,10
 1572 0 1572 0 1545 19 c 1,11,12
 1497 -234 1497 -234 1261 -405 c 0,13,14
 1032 -569 1032 -569 754 -569 c 0,15,16
 477 -569 477 -569 310 -428 c 0,17,18
 149 -292 149 -292 149 -77 c 0,19,20
 149 137 149 137 356 345 c 0,21,22
 531 522 531 522 826 669 c 1,23,-1
 826 394 l 1,24,25
 662 330 662 330 515 214 c 0,26,27
 337 76 337 76 337 -35 c 0,28,29
 337 -143 337 -143 472 -209 c 0,30,31
 602 -273 602 -273 797 -273 c 0,32,33
 1045 -273 1045 -273 1204 -167 c 0,34,35
 1376 -52 1376 -52 1376 150 c 0,36,37
 1376 324 1376 324 1272 505 c 1,38,-1
 1515 583 l 1,39,40
 1549 506 1549 506 1571 369 c 0,41,42
 1585 283 1585 283 1620 283 c 2,43,-1
 1670 283 l 2,44,45
 1723 283 1723 283 1802 408 c 0,46,47
 1871 519 1871 519 1883 583 c 1,48,-1
 2084 509 l 1,49,50
 2083 505 2083 505 1989 324 c 0,51,52
 1986 319 1986 319 1986 313 c 0,53,54
 1986 283 1986 283 2028 283 c 2,55,-1
 2158 283 l 2,56,57
 2251 283 2251 283 2251 376 c 0,58,59
 2251 504 2251 504 2204 613 c 1,60,-1
 2458 685 l 1,61,62
 2465 634 2465 634 2465 545 c 0,0,1
EndSplineSet
Substitution2: "'medi' Medial Forms in Arabic lookup 3 subtable" afii62785
Substitution2: "'fina' Terminal Forms in Arabic lookup 2 subtable" afii62786
Substitution2: "'init' Initial Forms in Arabic lookup 1 subtable" afii62784
EndChar

StartChar: afii62786
Encoding: 65202 65202 199
Width: 2531
GlyphClass: 2
Flags: W
AnchorPoint: "Anchor-3" 1200 -990 basechar 0
AnchorPoint: "Anchor-2" 1695 1110 basechar 0
LayerCount: 2
Fore
SplineSet
2421 0 m 2,0,1
 2344 0 2344 0 2297 50 c 0,2,3
 2286 62 2286 62 2252 123 c 1,4,5
 2169 0 2169 0 2060 0 c 0,6,7
 1992 0 1992 0 1928 46 c 0,8,9
 1879 81 1879 81 1855 123 c 1,10,11
 1767 0 1767 0 1686 0 c 2,12,-1
 1615 0 l 2,13,14
 1572 0 1572 0 1545 19 c 1,15,16
 1497 -234 1497 -234 1261 -405 c 0,17,18
 1032 -569 1032 -569 754 -569 c 0,19,20
 477 -569 477 -569 310 -428 c 0,21,22
 149 -292 149 -292 149 -77 c 0,23,24
 149 137 149 137 356 345 c 0,25,26
 531 522 531 522 826 669 c 1,27,-1
 826 394 l 1,28,29
 662 330 662 330 515 214 c 0,30,31
 337 76 337 76 337 -35 c 0,32,33
 337 -143 337 -143 472 -209 c 0,34,35
 602 -273 602 -273 797 -273 c 0,36,37
 1045 -273 1045 -273 1204 -167 c 0,38,39
 1376 -52 1376 -52 1376 150 c 0,40,41
 1376 324 1376 324 1272 505 c 1,42,-1
 1515 583 l 1,43,44
 1549 506 1549 506 1571 369 c 0,45,46
 1585 283 1585 283 1620 283 c 2,47,-1
 1670 283 l 2,48,49
 1723 283 1723 283 1802 408 c 0,50,51
 1871 519 1871 519 1883 583 c 1,52,-1
 2084 509 l 1,53,54
 2083 505 2083 505 1989 324 c 0,55,56
 1986 319 1986 319 1986 313 c 0,57,58
 1986 283 1986 283 2028 283 c 2,59,-1
 2073 283 l 2,60,61
 2126 283 2126 283 2204 408 c 0,62,63
 2273 519 2273 519 2285 583 c 1,64,-1
 2487 509 l 1,65,66
 2486 505 2486 505 2392 324 c 0,67,68
 2389 319 2389 319 2389 313 c 0,69,70
 2389 283 2389 283 2431 283 c 2,71,-1
 2550 283 l 1,72,-1
 2550 0 l 1,73,-1
 2421 0 l 2,0,1
EndSplineSet
EndChar

StartChar: afii62784
Encoding: 65203 65203 200
Width: 1286
GlyphClass: 2
Flags: W
AnchorPoint: "Anchor-3" 615 -675 basechar 0
AnchorPoint: "Anchor-2" 705 930 basechar 0
LayerCount: 2
Fore
SplineSet
477 0 m 0,0,1
 410 0 410 0 344 46 c 0,2,3
 293 82 293 82 269 123 c 1,4,5
 182 0 182 0 101 0 c 2,6,-1
 -19 0 l 1,7,-1
 -19 283 l 1,8,-1
 85 283 l 2,9,10
 139 283 139 283 217 408 c 0,11,12
 286 519 286 519 298 583 c 1,13,-1
 499 509 l 1,14,15
 498 505 498 505 405 324 c 0,16,17
 402 319 402 319 402 313 c 0,18,19
 402 283 402 283 444 283 c 2,20,-1
 498 283 l 2,21,22
 552 283 552 283 630 408 c 0,23,24
 699 519 699 519 711 583 c 1,25,-1
 913 509 l 1,26,27
 912 505 912 505 818 324 c 0,28,29
 815 319 815 319 815 313 c 0,30,31
 815 283 815 283 857 283 c 2,32,-1
 986 283 l 2,33,34
 1079 283 1079 283 1079 376 c 0,35,36
 1079 504 1079 504 1032 613 c 1,37,-1
 1286 685 l 1,38,39
 1293 634 1293 634 1293 545 c 0,40,41
 1293 320 1293 320 1196 171 c 0,42,43
 1086 0 1086 0 887 0 c 0,44,45
 755 0 755 0 684 123 c 1,46,47
 655 82 655 82 603 46 c 0,48,49
 536 0 536 0 477 0 c 0,0,1
EndSplineSet
EndChar

StartChar: afii62785
Encoding: 65204 65204 201
Width: 1369
GlyphClass: 2
Flags: W
AnchorPoint: "Anchor-3" 555 -660 basechar 0
AnchorPoint: "Anchor-2" 795 975 basechar 0
LayerCount: 2
Fore
SplineSet
-19 283 m 1,0,-1
 85 283 l 2,1,2
 139 283 139 283 217 408 c 0,3,4
 286 519 286 519 298 583 c 1,5,-1
 499 509 l 1,6,7
 498 505 498 505 405 324 c 0,8,9
 402 319 402 319 402 313 c 0,10,11
 402 283 402 283 444 283 c 2,12,-1
 498 283 l 2,13,14
 552 283 552 283 630 408 c 0,15,16
 699 519 699 519 711 583 c 1,17,-1
 913 509 l 1,18,19
 912 505 912 505 818 324 c 0,20,21
 815 319 815 319 815 313 c 0,22,23
 815 283 815 283 857 283 c 2,24,-1
 901 283 l 2,25,26
 954 283 954 283 1033 408 c 0,27,28
 1102 519 1102 519 1114 583 c 1,29,-1
 1315 509 l 1,30,31
 1314 505 1314 505 1220 324 c 0,32,33
 1218 319 1218 319 1218 313 c 0,34,35
 1218 283 1218 283 1260 283 c 2,36,-1
 1388 283 l 1,37,-1
 1388 0 l 1,38,-1
 1249 0 l 2,39,40
 1172 0 1172 0 1126 50 c 0,41,42
 1114 62 1114 62 1080 123 c 1,43,44
 997 0 997 0 889 0 c 0,45,46
 821 0 821 0 757 46 c 0,47,48
 708 81 708 81 684 123 c 1,49,50
 601 0 601 0 477 0 c 0,51,52
 410 0 410 0 344 46 c 0,53,54
 293 82 293 82 269 123 c 1,55,56
 182 0 182 0 101 0 c 2,57,-1
 -19 0 l 1,58,-1
 -19 283 l 1,0,-1
EndSplineSet
EndChar

StartChar: afii57429
Encoding: 1589 1589 206
Width: 2392
GlyphClass: 2
Flags: W
AnchorPoint: "Anchor-3" 1440 -840 basechar 0
AnchorPoint: "Anchor-2" 1485 1035 basechar 0
LayerCount: 2
Fore
SplineSet
1615 0 m 2,0,1
 1573 0 1573 0 1545 20 c 1,2,3
 1497 -234 1497 -234 1261 -404 c 0,4,5
 1032 -569 1032 -569 754 -569 c 0,6,7
 477 -569 477 -569 310 -428 c 0,8,9
 149 -292 149 -292 149 -77 c 0,10,11
 149 137 149 137 356 345 c 0,12,13
 531 522 531 522 826 669 c 1,14,-1
 826 394 l 1,15,16
 662 330 662 330 515 214 c 0,17,18
 337 76 337 76 337 -35 c 0,19,20
 337 -143 337 -143 472 -209 c 0,21,22
 602 -273 602 -273 797 -273 c 0,23,24
 1045 -273 1045 -273 1204 -167 c 0,25,26
 1376 -52 1376 -52 1376 150 c 0,27,28
 1376 324 1376 324 1272 505 c 1,29,-1
 1515 583 l 1,30,31
 1549 506 1549 506 1571 369 c 0,32,33
 1585 283 1585 283 1620 283 c 2,34,-1
 1697 283 l 2,35,36
 1852 283 1852 283 1991 316 c 0,37,38
 2158 356 2158 356 2190 425 c 0,39,40
 2203 450 2203 450 2203 468 c 0,41,42
 2203 514 2203 514 2124 514 c 0,43,44
 2030 514 2030 514 1929 462 c 0,45,46
 1814 402 1814 402 1744 300 c 1,47,-1
 1744 553 l 1,48,49
 1810 640 1810 640 1914.5 692.5 c 128,-1,50
 2019 745 2019 745 2126 745 c 0,51,52
 2255 745 2255 745 2326 668 c 0,53,54
 2392 598 2392 598 2392 484 c 0,55,56
 2392 280 2392 280 2187 136 c 0,57,58
 1994 0 1994 0 1754 0 c 2,59,-1
 1615 0 l 2,0,1
EndSplineSet
Substitution2: "'medi' Medial Forms in Arabic lookup 3 subtable" afii62791
Substitution2: "'fina' Terminal Forms in Arabic lookup 2 subtable" afii62792
Substitution2: "'init' Initial Forms in Arabic lookup 1 subtable" afii62790
EndChar

StartChar: afii62792
Encoding: 65210 65210 207
Width: 2429
GlyphClass: 2
Flags: W
AnchorPoint: "Anchor-3" 1470 -990 basechar 0
AnchorPoint: "Anchor-2" 1605 1080 basechar 0
LayerCount: 2
Fore
SplineSet
2351 317 m 1,0,1
 2359 283 2359 283 2390 283 c 2,2,-1
 2448 283 l 1,3,-1
 2448 0 l 1,4,-1
 2344 0 l 2,5,6
 2284 0 2284 0 2247 65.5 c 128,-1,7
 2210 131 2210 131 2194 131 c 0,8,9
 2188 131 2188 131 2132 97 c 0,10,11
 2066 57 2066 57 1995 34 c 0,12,13
 1887 0 1887 0 1754 0 c 2,14,-1
 1615 0 l 2,15,16
 1573 0 1573 0 1545 20 c 1,17,18
 1497 -234 1497 -234 1261 -404 c 0,19,20
 1032 -569 1032 -569 754 -569 c 0,21,22
 477 -569 477 -569 310 -428 c 0,23,24
 149 -292 149 -292 149 -77 c 0,25,26
 149 137 149 137 356 345 c 0,27,28
 531 522 531 522 826 669 c 1,29,-1
 826 394 l 1,30,31
 662 330 662 330 515 214 c 0,32,33
 337 76 337 76 337 -35 c 0,34,35
 337 -143 337 -143 472 -209 c 0,36,37
 602 -273 602 -273 797 -273 c 0,38,39
 1045 -273 1045 -273 1204 -167 c 0,40,41
 1376 -52 1376 -52 1376 150 c 0,42,43
 1376 324 1376 324 1272 505 c 1,44,-1
 1515 583 l 1,45,46
 1549 506 1549 506 1571 369 c 0,47,48
 1585 283 1585 283 1620 283 c 2,49,-1
 1697 283 l 2,50,51
 1852 283 1852 283 1991 316 c 0,52,53
 2158 356 2158 356 2190 425 c 0,54,55
 2203 450 2203 450 2203 468 c 0,56,57
 2203 514 2203 514 2124 514 c 0,58,59
 2030 514 2030 514 1929 462 c 0,60,61
 1814 402 1814 402 1744 300 c 1,62,-1
 1744 553 l 1,63,64
 1810 640 1810 640 1914.5 692.5 c 128,-1,65
 2019 745 2019 745 2126 745 c 0,66,67
 2255 745 2255 745 2326 668 c 0,68,69
 2392 598 2392 598 2392 484 c 0,70,71
 2392 395 2392 395 2351 317 c 1,0,1
EndSplineSet
EndChar

StartChar: afii62790
Encoding: 65211 65211 208
Width: 1251
GlyphClass: 2
Flags: W
AnchorPoint: "Anchor-3" 480 -630 basechar 0
AnchorPoint: "Anchor-2" 525 1125 basechar 0
LayerCount: 2
Fore
SplineSet
415 0 m 2,0,1
 366 0 366 0 337 30 c 0,2,3
 320 47 320 47 305 84 c 0,4,5
 293 114 293 114 286 114 c 0,6,7
 282 114 282 114 225 57 c 128,-1,8
 168 0 168 0 113 0 c 2,9,-1
 -19 0 l 1,10,-1
 -19 283 l 1,11,-1
 74 283 l 2,12,13
 207 283 207 283 310 577 c 1,14,-1
 518 480 l 1,15,16
 516 469 516 469 475.5 404 c 128,-1,17
 435 339 435 339 435 313 c 0,18,19
 435 283 435 283 477 283 c 2,20,-1
 556 283 l 2,21,22
 711 283 711 283 851 316 c 0,23,24
 1017 356 1017 356 1050 425 c 0,25,26
 1062 450 1062 450 1062 468 c 0,27,28
 1062 514 1062 514 984 514 c 0,29,30
 889 514 889 514 788 462 c 0,31,32
 673 402 673 402 603 300 c 1,33,-1
 603 553 l 1,34,35
 669 640 669 640 773.5 692.5 c 128,-1,36
 878 745 878 745 985 745 c 0,37,38
 1114 745 1114 745 1185 668 c 0,39,40
 1251 598 1251 598 1251 484 c 0,41,42
 1251 280 1251 280 1046 136 c 0,43,44
 853 0 853 0 614 0 c 2,45,-1
 415 0 l 2,0,1
EndSplineSet
EndChar

StartChar: afii62791
Encoding: 65212 65212 209
Width: 1288
GlyphClass: 2
Flags: W
AnchorPoint: "Anchor-3" 465 -660 basechar 0
AnchorPoint: "Anchor-2" 555 960 basechar 0
LayerCount: 2
Fore
SplineSet
406 0 m 2,0,1
 356 0 356 0 327 30 c 0,2,3
 310 47 310 47 295 84 c 0,4,5
 284 114 284 114 276 114 c 0,6,7
 273 114 273 114 216 57 c 128,-1,8
 159 0 159 0 104 0 c 2,9,-1
 -19 0 l 1,10,-1
 -19 283 l 1,11,-1
 64 283 l 2,12,13
 198 283 198 283 300 577 c 1,14,-1
 508 480 l 1,15,16
 506 469 506 469 465.5 404 c 128,-1,17
 425 339 425 339 425 313 c 0,18,19
 425 283 425 283 468 283 c 2,20,-1
 546 283 l 2,21,22
 702 283 702 283 841 316 c 0,23,24
 1007 356 1007 356 1040 425 c 0,25,26
 1052 450 1052 450 1052 468 c 0,27,28
 1052 514 1052 514 974 514 c 0,29,30
 880 514 880 514 778 462 c 0,31,32
 663 402 663 402 593 300 c 1,33,-1
 593 553 l 1,34,35
 659 640 659 640 764 692.5 c 128,-1,36
 869 745 869 745 976 745 c 0,37,38
 1105 745 1105 745 1176 668 c 0,39,40
 1241 598 1241 598 1241 484 c 0,41,42
 1241 395 1241 395 1200 317 c 1,43,44
 1208 283 1208 283 1240 283 c 2,45,-1
 1308 283 l 1,46,-1
 1308 0 l 1,47,-1
 1193 0 l 2,48,49
 1133 0 1133 0 1096.5 65.5 c 128,-1,50
 1060 131 1060 131 1044 131 c 0,51,52
 1037 131 1037 131 982 97 c 0,53,54
 915 57 915 57 844 34 c 0,55,56
 737 0 737 0 604 0 c 2,57,-1
 406 0 l 2,0,1
EndSplineSet
EndChar

StartChar: afii57431
Encoding: 1591 1591 214
Width: 923
GlyphClass: 2
Flags: W
AnchorPoint: "Anchor-3" 405 -435 basechar 0
AnchorPoint: "Anchor-2" 690 1395 basechar 0
LayerCount: 2
Fore
SplineSet
275 553 m 1,0,1
 297 580 297 580 321 605 c 1,2,3
 339 814 339 814 329 939 c 0,4,5
 323 1011 323 1011 275 1170 c 1,6,-1
 531 1246 l 1,7,8
 549 1168 549 1168 569 1020 c 1,9,10
 575 896 575 896 562 734 c 1,11,12
 611 745 611 745 658 745 c 0,13,14
 786 745 786 745 858 668 c 0,15,16
 923 598 923 598 923 484 c 0,17,18
 923 280 923 280 718 136 c 0,19,20
 525 0 525 0 286 0 c 2,21,-1
 150 0 l 1,22,-1
 150 283 l 1,23,-1
 228 283 l 2,24,25
 383 283 383 283 523 316 c 0,26,27
 689 356 689 356 722 425 c 0,28,29
 734 450 734 450 734 468 c 0,30,31
 734 514 734 514 656 514 c 0,32,33
 561 514 561 514 460 462 c 0,34,35
 345 402 345 402 275 300 c 1,36,-1
 275 553 l 1,0,1
EndSplineSet
Substitution2: "'medi' Medial Forms in Arabic lookup 3 subtable" afii62797
Substitution2: "'fina' Terminal Forms in Arabic lookup 2 subtable" afii62798
Substitution2: "'init' Initial Forms in Arabic lookup 1 subtable" afii62796
EndChar

StartChar: afii62798
Encoding: 65218 65218 215
Width: 956
GlyphClass: 2
Flags: W
AnchorPoint: "Anchor-3" 420 -570 basechar 0
AnchorPoint: "Anchor-2" 675 1485 basechar 0
LayerCount: 2
Fore
SplineSet
316 605 m 1,0,1
 332 787 332 787 318 937 c 0,2,3
 314 986 314 986 270 1170 c 1,4,-1
 526 1246 l 1,5,6
 541 1169 541 1169 565 1020 c 0,7,8
 574 942 574 942 557 734 c 1,9,10
 607 745 607 745 653 745 c 0,11,12
 782 745 782 745 853 668 c 0,13,14
 918 598 918 598 918 484 c 0,15,16
 918 395 918 395 877 317 c 1,17,18
 885 283 885 283 916 283 c 2,19,-1
 975 283 l 1,20,-1
 975 0 l 1,21,-1
 870 0 l 2,22,23
 810 0 810 0 773.5 65.5 c 128,-1,24
 737 131 737 131 721 131 c 0,25,26
 714 131 714 131 659 97 c 0,27,28
 592 57 592 57 521 34 c 0,29,30
 414 0 414 0 281 0 c 2,31,-1
 150 0 l 1,32,-1
 150 283 l 1,33,-1
 223 283 l 2,34,35
 379 283 379 283 518 316 c 0,36,37
 684 356 684 356 717 425 c 0,38,39
 729 450 729 450 729 468 c 0,40,41
 729 514 729 514 651 514 c 0,42,43
 557 514 557 514 455 462 c 0,44,45
 340 402 340 402 270 300 c 1,46,-1
 270 553 l 1,47,48
 292 580 292 580 316 605 c 1,0,1
EndSplineSet
EndChar

StartChar: afii62796
Encoding: 65219 65219 216
Width: 774
GlyphClass: 2
Flags: W
AnchorPoint: "Anchor-3" 330 -495 basechar 0
AnchorPoint: "Anchor-2" 600 1485 basechar 0
LayerCount: 2
Fore
SplineSet
170 944 m 0,0,1
 166 994 166 994 126 1170 c 1,2,-1
 382 1246 l 1,3,4
 394 1168 394 1168 415 1019 c 0,5,6
 427 917 427 917 412 734 c 1,7,8
 462 745 462 745 508 745 c 0,9,10
 637 745 637 745 708 668 c 0,11,12
 774 598 774 598 774 484 c 0,13,14
 774 280 774 280 568 136 c 0,15,16
 376 0 376 0 136 0 c 2,17,-1
 -19 0 l 1,18,-1
 -19 283 l 1,19,-1
 79 283 l 2,20,21
 234 283 234 283 373 316 c 0,22,23
 539 356 539 356 572 425 c 0,24,25
 584 450 584 450 584 468 c 0,26,27
 584 514 584 514 506 514 c 0,28,29
 412 514 412 514 310 462 c 0,30,31
 196 402 196 402 126 300 c 1,32,-1
 126 553 l 1,33,34
 147 580 147 580 172 605 c 1,35,36
 183 744 183 744 170 944 c 0,0,1
EndSplineSet
EndChar

StartChar: afii62797
Encoding: 65220 65220 217
Width: 806
GlyphClass: 2
Flags: W
AnchorPoint: "Anchor-3" 315 -465 basechar 0
AnchorPoint: "Anchor-2" 570 1440 basechar 0
LayerCount: 2
Fore
SplineSet
407 734 m 1,0,1
 457 745 457 745 503 745 c 0,2,3
 632 745 632 745 703 668 c 0,4,5
 769 598 769 598 769 484 c 0,6,7
 769 395 769 395 728 317 c 1,8,9
 736 283 736 283 767 283 c 2,10,-1
 825 283 l 1,11,-1
 825 0 l 1,12,-1
 721 0 l 2,13,14
 661 0 661 0 624.5 65.5 c 128,-1,15
 588 131 588 131 571 131 c 0,16,17
 565 131 565 131 509 97 c 0,18,19
 443 57 443 57 372 34 c 0,20,21
 264 0 264 0 131 0 c 2,22,-1
 -19 0 l 1,23,-1
 -19 283 l 1,24,-1
 74 283 l 2,25,26
 229 283 229 283 368 316 c 0,27,28
 535 356 535 356 568 425 c 0,29,30
 580 450 580 450 580 468 c 0,31,32
 580 514 580 514 501 514 c 0,33,34
 407 514 407 514 306 462 c 0,35,36
 191 402 191 402 121 300 c 1,37,-1
 121 553 l 1,38,39
 142 580 142 580 167 605 c 1,40,41
 182 787 182 787 169 937 c 0,42,43
 164 986 164 986 121 1170 c 1,44,-1
 377 1246 l 1,45,46
 392 1178 392 1178 415 1020 c 1,47,48
 423 924 423 924 407 734 c 1,0,1
EndSplineSet
EndChar

StartChar: afii57433
Encoding: 1593 1593 222
Width: 1136
GlyphClass: 2
Flags: W
AnchorPoint: "Anchor-3" 660 -1440 basechar 0
AnchorPoint: "Anchor-2" 750 1380 basechar 0
LayerCount: 2
Fore
SplineSet
1137 -942 m 1,0,1
 1063 -947 1063 -947 994 -947 c 0,2,3
 584 -947 584 -947 364 -776 c 0,4,5
 150 -610 150 -610 150 -309 c 0,6,7
 150 -130 150 -130 278 72 c 0,8,9
 388 244 388 244 489 299 c 1,10,11
 437 333 437 333 362 435 c 0,12,13
 278 547 278 547 278 604 c 0,14,15
 278 732 278 732 472 901 c 0,16,17
 658 1062 658 1062 861 1129 c 1,18,-1
 861 851 l 1,19,20
 842 855 842 855 820 855 c 0,21,22
 727 855 727 855 642 799.5 c 128,-1,23
 557 744 557 744 557 677 c 0,24,25
 557 605 557 605 622.5 551.5 c 128,-1,26
 688 498 688 498 778 498 c 0,27,28
 922 498 922 498 1055 570 c 1,29,-1
 1055 301 l 1,30,-1
 838 263 l 2,31,32
 681 235 681 235 535 51 c 128,-1,33
 389 -133 389 -133 389 -300 c 0,34,35
 389 -487 389 -487 566 -589 c 0,36,37
 728 -681 728 -681 996 -681 c 0,38,39
 1064 -681 1064 -681 1136 -675 c 1,40,-1
 1137 -942 l 1,0,1
EndSplineSet
Substitution2: "'medi' Medial Forms in Arabic lookup 3 subtable" afii62803
Substitution2: "'fina' Terminal Forms in Arabic lookup 2 subtable" afii62804
Substitution2: "'init' Initial Forms in Arabic lookup 1 subtable" afii62802
EndChar

StartChar: afii62804
Encoding: 65226 65226 223
Width: 1168
GlyphClass: 2
Flags: W
AnchorPoint: "Anchor-3" 660 -1455 basechar 0
AnchorPoint: "Anchor-2" 660 1080 basechar 0
LayerCount: 2
Fore
SplineSet
1187 0 m 1,0,-1
 847 0 l 2,1,2
 721 0 721 0 653 116 c 1,3,4
 536 71 536 71 463 -43.5 c 128,-1,5
 390 -158 390 -158 390 -288 c 0,6,7
 390 -469 390 -469 545 -571 c 128,-1,8
 700 -673 700 -673 974 -673 c 0,9,10
 1041 -673 1041 -673 1113 -666 c 1,11,-1
 1113 -942 l 1,12,13
 1040 -949 1040 -949 971 -949 c 0,14,15
 601 -949 601 -949 381 -782 c 0,16,17
 150 -607 150 -607 150 -292 c 0,18,19
 150 -142 150 -142 238 12 c 0,20,21
 320 154 320 154 444 250 c 1,22,-1
 444 324 l 2,23,24
 444 377 444 377 362 402 c 0,25,26
 306 420 306 420 238 420 c 1,27,-1
 238 675 l 1,28,29
 538 769 538 769 799 769 c 0,30,31
 931 769 931 769 1007 704.5 c 128,-1,32
 1083 640 1083 640 1083 536 c 0,33,34
 1083 393 1083 393 911 283 c 1,35,-1
 1187 283 l 1,36,-1
 1187 0 l 1,0,-1
807 492 m 0,37,38
 801 508 801 508 726 507 c 0,39,40
 653 506 653 506 609 492 c 1,41,42
 648 461 648 461 647 411 c 0,43,44
 647 391 647 391 639 372 c 1,45,46
 683 387 683 387 746 429 c 0,47,48
 814 474 814 474 807 492 c 0,37,38
EndSplineSet
EndChar

StartChar: afii62802
Encoding: 65227 65227 224
Width: 885
GlyphClass: 2
Flags: W
AnchorPoint: "Anchor-3" 375 -525 basechar 0
AnchorPoint: "Anchor-2" 525 1185 basechar 0
LayerCount: 2
Fore
SplineSet
107 422 m 0,0,1
 107 551 107 551 301 719 c 0,2,3
 487 880 487 880 690 947 c 1,4,-1
 690 669 l 1,5,6
 671 673 671 673 650 673 c 0,7,8
 556 673 556 673 471 617.5 c 128,-1,9
 386 562 386 562 386 495 c 0,10,11
 386 422 386 422 452 368.5 c 128,-1,12
 518 315 518 315 608 315 c 0,13,14
 752 315 752 315 885 388 c 1,15,-1
 885 118 l 1,16,-1
 597 75 l 2,17,18
 586 73 586 73 377 31 c 0,19,20
 224 0 224 0 135 0 c 2,21,-1
 -19 0 l 1,22,-1
 -19 283 l 1,23,-1
 164 283 l 1,24,25
 107 350 107 350 107 422 c 0,0,1
EndSplineSet
EndChar

StartChar: afii62803
Encoding: 65228 65228 225
Width: 1008
GlyphClass: 2
Flags: W
AnchorPoint: "Anchor-3" 435 -525 basechar 0
AnchorPoint: "Anchor-2" 540 1140 basechar 0
LayerCount: 2
Fore
SplineSet
657 492 m 0,0,1
 650 508 650 508 575 507 c 0,2,3
 503 506 503 506 458 492 c 1,4,5
 497 461 497 461 497 412 c 0,6,7
 497 391 497 391 489 372 c 1,8,9
 533 387 533 387 596 429 c 0,10,11
 663 474 663 474 657 492 c 0,0,1
123 0 m 2,12,-1
 -19 0 l 1,13,-1
 -19 283 l 1,14,-1
 160 283 l 2,15,16
 264 283 264 283 293 310 c 1,17,18
 293 420 293 420 87 420 c 1,19,-1
 87 675 l 1,20,21
 387 769 387 769 648 769 c 0,22,23
 780 769 780 769 858 704 c 0,24,25
 933 640 933 640 933 536 c 0,26,27
 933 393 933 393 760 283 c 1,28,-1
 1027 283 l 1,29,-1
 1027 0 l 1,30,-1
 697 0 l 2,31,32
 534 0 534 0 483 116 c 1,33,34
 424 67 424 67 317.5 33.5 c 128,-1,35
 211 0 211 0 123 0 c 2,12,-1
EndSplineSet
EndChar

StartChar: afii57443
Encoding: 1603 1603 238
Width: 1897
GlyphClass: 2
Flags: W
AnchorPoint: "Anchor-3" 915 -570 basechar 0
AnchorPoint: "Anchor-2" 1095 1395 basechar 0
LayerCount: 2
Fore
SplineSet
1863 581 m 0,0,1
 1863 449 1863 449 1820 339 c 1,2,3
 1781 206 1781 206 1672 129 c 0,4,5
 1618 90 1618 90 1554 70 c 0,6,7
 1357 0 1357 0 925 0 c 0,8,9
 635 0 635 0 447 57 c 0,10,11
 150 146 150 146 150 365 c 0,12,13
 150 546 150 546 427 752 c 0,14,15
 646 916 646 916 897 1009 c 1,16,-1
 898 734 l 1,17,18
 751 706 751 706 574 624 c 0,19,20
 367 528 367 528 367 454 c 0,21,22
 367 372 367 372 553 324 c 0,23,24
 711 284 711 284 925 284 c 0,25,26
 1228 284 1228 284 1373 304 c 0,27,28
 1435 312 1435 312 1489.5 327.5 c 128,-1,29
 1544 343 1544 343 1571 359 c 0,30,31
 1617 393 1617 393 1629 462 c 1,32,-1
 1629 463 l 1,33,34
 1633 486 1633 486 1633 514 c 0,35,36
 1633 900 1633 900 1589 1230 c 1,37,-1
 1832 1306 l 1,38,39
 1863 818 1863 818 1863 581 c 0,0,1
1459 970 m 1,40,-1
 1150 808 l 1,41,-1
 1094 878 l 1,42,-1
 1193 935 l 1,43,44
 1128 991 1128 991 1128 1062 c 0,45,46
 1128 1137 1128 1137 1193.5 1194 c 128,-1,47
 1259 1251 1259 1251 1342 1237 c 1,48,-1
 1352 1126 l 1,49,50
 1336 1140 1336 1140 1305 1140 c 0,51,52
 1268 1140 1268 1140 1245 1124 c 128,-1,53
 1222 1108 1222 1108 1217 1080.5 c 128,-1,54
 1212 1053 1212 1053 1232.5 1027.5 c 128,-1,55
 1253 1002 1253 1002 1282 1002 c 0,56,57
 1325 1002 1325 1002 1363 1027.5 c 128,-1,58
 1401 1053 1401 1053 1408 1085 c 1,59,-1
 1459 970 l 1,40,-1
EndSplineSet
Substitution2: "'medi' Medial Forms in Arabic lookup 3 subtable" afii52306
Substitution2: "'fina' Terminal Forms in Arabic lookup 2 subtable" afii62816
Substitution2: "'init' Initial Forms in Arabic lookup 1 subtable" afii52305
EndChar

StartChar: afii62816
Encoding: 65242 65242 239
Width: 2032
GlyphClass: 2
Flags: W
AnchorPoint: "Anchor-3" 1005 -570 basechar 0
AnchorPoint: "Anchor-2" 1110 1410 basechar 0
LayerCount: 2
Fore
SplineSet
2048 283 m 1,0,-1
 2048 0 l 1,1,-1
 1900 0 l 2,2,3
 1862 0 1862 0 1815.5 30 c 128,-1,4
 1769 60 1769 60 1748 95 c 1,5,6
 1702 57 1702 57 1625.5 28.5 c 128,-1,7
 1549 0 1549 0 1493 0 c 1,8,9
 1311 -25 1311 -25 960 -25 c 0,10,11
 670 -25 670 -25 482 32 c 0,12,13
 185 121 185 121 185 340 c 0,14,15
 185 521 185 521 462 727 c 0,16,17
 681 891 681 891 932 984 c 1,18,-1
 933 709 l 1,19,20
 786 681 786 681 609 599 c 0,21,22
 402 503 402 503 402 429 c 0,23,24
 402 347 402 347 588 299 c 0,25,26
 746 259 746 259 960 259 c 0,27,28
 1256 255 1256 255 1515 281 c 1,29,30
 1592 283 1592 283 1616 375 c 0,31,32
 1630 432 1630 432 1630 601 c 0,33,34
 1630 799 1630 799 1593 1170 c 1,35,-1
 1873 1246 l 1,36,37
 1850 795 1850 795 1850 644 c 0,38,39
 1850 479 1850 479 1863 417 c 0,40,41
 1890 283 1890 283 1981 283 c 2,42,-1
 2048 283 l 1,0,-1
1485 943 m 1,43,-1
 1176 781 l 1,44,-1
 1120 851 l 1,45,-1
 1219 908 l 1,46,47
 1154 964 1154 964 1154 1035 c 0,48,49
 1154 1110 1154 1110 1219.5 1167 c 128,-1,50
 1285 1224 1285 1224 1368 1210 c 1,51,-1
 1378 1099 l 1,52,53
 1362 1113 1362 1113 1331 1113 c 0,54,55
 1294 1113 1294 1113 1271 1097 c 128,-1,56
 1248 1081 1248 1081 1243 1053.5 c 128,-1,57
 1238 1026 1238 1026 1258.5 1000.5 c 128,-1,58
 1279 975 1279 975 1308 975 c 0,59,60
 1351 975 1351 975 1389 1000.5 c 128,-1,61
 1427 1026 1427 1026 1434 1058 c 1,62,-1
 1485 943 l 1,43,-1
EndSplineSet
EndChar

StartChar: afii57444
Encoding: 1604 1604 242
Width: 1595
GlyphClass: 2
Flags: W
AnchorPoint: "Anchor-3" 825 -1080 basechar 0
AnchorPoint: "Anchor-2" 1200 1425 basechar 0
LayerCount: 2
Fore
SplineSet
1273 -95 m 0,0,1
 1370 13 1370 13 1370 446 c 0,2,3
 1370 674 1370 674 1273 1170 c 1,4,-1
 1520 1246 l 1,5,6
 1595 835 1595 835 1595 571 c 0,7,8
 1595 166 1595 166 1511 -70 c 0,9,10
 1436 -278 1436 -278 1233 -420 c 0,11,12
 1017 -569 1017 -569 754 -569 c 0,13,14
 477 -569 477 -569 310 -428 c 0,15,16
 149 -292 149 -292 149 -77 c 0,17,18
 149 137 149 137 356 345 c 0,19,20
 531 522 531 522 826 669 c 1,21,-1
 826 394 l 1,22,23
 662 330 662 330 515 214 c 0,24,25
 337 76 337 76 337 -35 c 0,26,27
 337 -143 337 -143 472 -209 c 0,28,29
 602 -273 602 -273 797 -273 c 0,30,31
 1005 -273 1005 -273 1125 -215 c 0,32,33
 1197 -180 1197 -180 1273 -95 c 0,0,1
EndSplineSet
Substitution2: "'medi' Medial Forms in Arabic lookup 3 subtable" afii62818
Substitution2: "'fina' Terminal Forms in Arabic lookup 2 subtable" afii62819
Substitution2: "'init' Initial Forms in Arabic lookup 1 subtable" afii62817
EndChar

StartChar: afii62817
Encoding: 65247 65247 243
Width: 465
GlyphClass: 2
Flags: W
AnchorPoint: "Anchor-3" 180 -480 basechar 0
AnchorPoint: "Anchor-2" 330 1410 basechar 0
LayerCount: 2
Fore
SplineSet
460 521 m 0,0,1
 460 312 460 312 353 160 c 0,2,3
 240 0 240 0 72 0 c 2,4,-1
 -19 0 l 1,5,-1
 -19 283 l 1,6,-1
 81 283 l 2,7,8
 230 283 230 283 230 454 c 0,9,10
 230 840 230 840 186 1170 c 1,11,-1
 429 1246 l 1,12,13
 460 758 460 758 460 521 c 0,0,1
EndSplineSet
EndChar

StartChar: afii62818
Encoding: 65248 65248 244
Width: 609
GlyphClass: 2
Flags: W
AnchorPoint: "Anchor-3" 300 -540 basechar 0
AnchorPoint: "Anchor-2" 255 1440 basechar 0
LayerCount: 2
Fore
SplineSet
628 283 m 1,0,-1
 628 0 l 1,1,-1
 480 0 l 2,2,3
 442 0 442 0 395.5 30 c 128,-1,4
 349 60 349 60 328 94 c 1,5,6
 282 57 282 57 205.5 28.5 c 128,-1,7
 129 0 129 0 73 0 c 2,8,-1
 -19 0 l 1,9,-1
 -19 283 l 1,10,-1
 95 283 l 2,11,12
 172 283 172 283 196 375 c 0,13,14
 210 432 210 432 210 601 c 0,15,16
 210 799 210 799 173 1170 c 1,17,-1
 453 1246 l 1,18,19
 430 795 430 795 430 644 c 0,20,21
 430 479 430 479 443 417 c 0,22,23
 470 283 470 283 561 283 c 2,24,-1
 628 283 l 1,0,-1
EndSplineSet
EndChar

StartChar: afii57445
Encoding: 1605 1605 245
Width: 1199
GlyphClass: 2
Flags: W
AnchorPoint: "Anchor-3" 750 -1065 basechar 0
AnchorPoint: "Anchor-2" 720 900 basechar 0
LayerCount: 2
Fore
SplineSet
971 320 m 0,0,1
 971 358 971 358 918 402 c 0,2,3
 870 441 870 441 820 456 c 1,4,-1
 760 299 l 1,5,6
 825 260 825 260 892 260 c 0,7,8
 971 260 971 260 971 320 c 0,0,1
834 -23 m 0,9,10
 771 -10 771 -10 699 46 c 0,11,12
 637 95 637 95 568 95 c 0,13,14
 444 95 444 95 405 -61 c 0,15,16
 382 -147 382 -147 382 -360 c 0,17,18
 382 -632 382 -632 413 -787 c 1,19,-1
 174 -787 l 1,20,21
 150 -613 150 -613 150 -410 c 0,22,23
 150 264 150 264 568 371 c 1,24,25
 595 417 595 417 628 528 c 0,26,27
 659 633 659 633 685 672 c 0,28,29
 727 735 727 735 801 735 c 0,30,31
 914 735 914 735 1047 606 c 0,32,33
 1199 458 1199 458 1199 278 c 0,34,35
 1199 251 1199 251 1195 224 c 0,36,37
 1178 95 1178 95 1077 27 c 0,38,39
 995 -28 995 -28 890 -28 c 0,40,41
 860 -28 860 -28 834 -23 c 0,9,10
EndSplineSet
Substitution2: "'medi' Medial Forms in Arabic lookup 3 subtable" afii62821
Substitution2: "'fina' Terminal Forms in Arabic lookup 2 subtable" afii62822
Substitution2: "'init' Initial Forms in Arabic lookup 1 subtable" afii62820
EndChar

StartChar: afii62822
Encoding: 65250 65250 246
Width: 1307
GlyphClass: 2
Flags: W
AnchorPoint: "Anchor-3" 810 -930 basechar 0
AnchorPoint: "Anchor-2" 765 1005 basechar 0
LayerCount: 2
Fore
SplineSet
1326 0 m 1,0,-1
 1286 0 l 2,1,2
 1242 0 1242 0 1203 36 c 128,-1,3
 1164 72 1164 72 1154 118 c 1,4,5
 1102 38 1102 38 1028 7 c 0,6,7
 958 -23 958 -23 834 -23 c 0,8,9
 729 -23 729 -23 693.5 39 c 128,-1,10
 658 101 658 101 572 101 c 0,11,12
 448 101 448 101 407 -58 c 0,13,14
 382 -150 382 -150 382 -360 c 0,15,16
 382 -632 382 -632 413 -787 c 1,17,-1
 174 -787 l 1,18,19
 150 -613 150 -613 150 -410 c 0,20,21
 150 264 150 264 568 371 c 1,22,23
 595 417 595 417 628 528 c 0,24,25
 659 633 659 633 685 672 c 0,26,27
 727 735 727 735 801 735 c 0,28,29
 906 735 906 735 1048 598 c 0,30,31
 1195 454 1195 454 1195 327 c 1,32,33
 1206 283 1206 283 1266 283 c 2,34,-1
 1326 283 l 1,35,-1
 1326 0 l 1,0,-1
971 320 m 0,36,37
 971 358 971 358 918 402 c 0,38,39
 870 441 870 441 820 456 c 1,40,-1
 760 299 l 1,41,42
 825 260 825 260 892 260 c 0,43,44
 971 260 971 260 971 320 c 0,36,37
EndSplineSet
EndChar

StartChar: afii62820
Encoding: 65251 65251 247
Width: 846
GlyphClass: 2
Flags: W
AnchorPoint: "Anchor-3" 330 -525 basechar 0
AnchorPoint: "Anchor-2" 450 960 basechar 0
LayerCount: 2
Fore
SplineSet
622 320 m 0,0,1
 622 358 622 358 569 402 c 0,2,3
 521 441 521 441 471 456 c 1,4,-1
 411 299 l 1,5,6
 476 260 476 260 543 260 c 0,7,8
 622 260 622 260 622 320 c 0,0,1
846 224 m 0,9,10
 811 -28 811 -28 572 -28 c 0,11,12
 530 -28 530 -28 485 -18 c 0,13,14
 388 2 388 2 354 39 c 0,15,16
 330 66 330 66 315 141 c 1,17,18
 180 0 180 0 35 0 c 2,19,-1
 -19 0 l 1,20,-1
 -19 283 l 1,21,-1
 38 283 l 2,22,23
 174 283 174 283 220 371 c 0,24,25
 243 416 243 416 277 532 c 0,26,27
 308 634 308 634 336 674 c 0,28,29
 378 735 378 735 452 735 c 0,30,31
 561 735 561 735 699 592 c 0,32,33
 850 435 850 435 850 268 c 0,34,35
 850 246 850 246 846 224 c 0,9,10
EndSplineSet
EndChar

StartChar: afii57446
Encoding: 1606 1606 248
Width: 1568
GlyphClass: 2
Flags: W
AnchorPoint: "Anchor-3" 780 -1065 basechar 0
AnchorPoint: "Anchor-2" 1050 1215 basechar 0
LayerCount: 2
Fore
SplineSet
1545 19 m 0,0,1
 1497 -234 1497 -234 1261 -405 c 0,2,3
 1032 -569 1032 -569 754 -569 c 0,4,5
 477 -569 477 -569 310 -428 c 0,6,7
 149 -292 149 -292 149 -77 c 0,8,9
 149 130 149 130 351 340 c 0,10,11
 529 526 529 526 817 669 c 1,12,-1
 817 394 l 1,13,14
 655 331 655 331 510 214 c 0,15,16
 337 76 337 76 337 -35 c 0,17,18
 337 -143 337 -143 472 -209 c 0,19,20
 602 -273 602 -273 797 -273 c 0,21,22
 1045 -273 1045 -273 1204 -167 c 0,23,24
 1376 -52 1376 -52 1376 150 c 0,25,26
 1376 316 1376 316 1263 515 c 1,27,-1
 1505 592 l 1,28,29
 1568 452 1568 452 1568 254 c 0,30,31
 1568 136 1568 136 1545 19 c 0,0,1
974 713 m 1,32,-1
 974 972 l 1,33,-1
 1231 972 l 1,34,-1
 1231 713 l 1,35,-1
 974 713 l 1,32,-1
EndSplineSet
Substitution2: "'medi' Medial Forms in Arabic lookup 3 subtable" afii62824
Substitution2: "'fina' Terminal Forms in Arabic lookup 2 subtable" afii62825
Substitution2: "'init' Initial Forms in Arabic lookup 1 subtable" afii62823
EndChar

StartChar: afii62825
Encoding: 65254 65254 249
Width: 1722
GlyphClass: 2
Flags: W
AnchorPoint: "Anchor-3" 735 -1125 basechar 0
AnchorPoint: "Anchor-2" 1020 1185 basechar 0
LayerCount: 2
Fore
SplineSet
1566 311 m 1,0,1
 1587 283 1587 283 1626 283 c 2,2,-1
 1741 283 l 1,3,-1
 1741 0 l 1,4,-1
 1616 0 l 2,5,6
 1580 0 1580 0 1544 26 c 1,7,8
 1499 -230 1499 -230 1262 -403 c 0,9,10
 1032 -569 1032 -569 754 -569 c 0,11,12
 477 -569 477 -569 310 -428 c 0,13,14
 149 -292 149 -292 149 -77 c 256,15,16
 149 138 149 138 351 345 c 0,17,18
 524 523 524 523 817 669 c 1,19,-1
 817 394 l 1,20,21
 655 331 655 331 510 214 c 0,22,23
 337 76 337 76 337 -35 c 0,24,25
 337 -143 337 -143 472 -209 c 0,26,27
 602 -273 602 -273 797 -273 c 0,28,29
 1045 -273 1045 -273 1204 -167 c 0,30,31
 1376 -52 1376 -52 1376 150 c 0,32,33
 1376 316 1376 316 1263 515 c 1,34,-1
 1505 592 l 1,35,36
 1559 472 1559 472 1566 311 c 1,0,1
974 713 m 1,37,-1
 974 972 l 1,38,-1
 1231 972 l 1,39,-1
 1231 713 l 1,40,-1
 974 713 l 1,37,-1
EndSplineSet
EndChar

StartChar: afii62828
Encoding: 65258 65258 253
Width: 864
GlyphClass: 2
Flags: W
AnchorPoint: "Anchor-3" 330 -555 basechar 0
AnchorPoint: "Anchor-2" 345 1005 basechar 0
LayerCount: 2
Fore
SplineSet
883 0 m 1,0,-1
 703 0 l 2,1,2
 595 0 595 0 534 90 c 0,3,4
 483 165 483 165 483 270 c 1,5,-1
 312 140 l 1,6,7
 264 155 264 155 212 235 c 0,8,9
 150 330 150 330 150 437 c 0,10,11
 150 562 150 562 238 614 c 0,12,13
 290 644 290 644 458 675 c 1,14,-1
 458 842 l 1,15,-1
 714 890 l 1,16,-1
 714 354 l 2,17,18
 714 283 714 283 798 283 c 2,19,-1
 883 283 l 1,20,-1
 883 0 l 1,0,-1
477 306 m 1,21,-1
 463 519 l 1,22,-1
 326 492 l 1,23,-1
 477 306 l 1,21,-1
EndSplineSet
EndChar

StartChar: afii57448
Encoding: 1608 1608 254
Width: 893
GlyphClass: 2
Flags: W
AnchorPoint: "Anchor-3" 375 -1080 basechar 0
AnchorPoint: "Anchor-2" 525 870 basechar 0
LayerCount: 2
Fore
SplineSet
893 186 m 0,0,1
 893 -127 893 -127 668 -383 c 0,2,3
 439 -642 439 -642 150 -642 c 1,4,-1
 188 -361 l 1,5,6
 361 -361 361 -361 506 -238 c 0,7,8
 643 -121 643 -121 643 4 c 1,9,10
 627 2 627 2 609 2 c 0,11,12
 493 2 493 2 411 55 c 0,13,14
 310 120 310 120 310 241 c 0,15,16
 310 394 310 394 412 520 c 0,17,18
 507 638 507 638 604 638 c 0,19,20
 716 638 716 638 797 533 c 0,21,22
 893 408 893 408 893 186 c 0,0,1
716 267 m 1,23,24
 709 323 709 323 664 363 c 128,-1,25
 619 403 619 403 556 403 c 0,26,27
 492 403 492 403 492 342 c 0,28,29
 492 326 492 326 500 316 c 0,30,31
 553 258 553 258 642 258 c 0,32,33
 678 258 678 258 716 267 c 1,23,24
EndSplineSet
Substitution2: "'fina' Terminal Forms in Arabic lookup 2 subtable" afii62829
PairPos2: "'kern' Horizontal Kerning in Arabic lookup 0 subtable" afii62817 dx=0 dy=0 dh=0 dv=0 dx=0 dy=0 dh=-100 dv=0
PairPos2: "'kern' Horizontal Kerning in Arabic lookup 0 subtable" afii57410 dx=0 dy=0 dh=0 dv=0 dx=0 dy=0 dh=-150 dv=0
PairPos2: "'kern' Horizontal Kerning in Arabic lookup 0 subtable" afii57443 dx=0 dy=0 dh=0 dv=0 dx=0 dy=0 dh=-100 dv=0
PairPos2: "'kern' Horizontal Kerning in Arabic lookup 0 subtable" afii62965 dx=0 dy=0 dh=0 dv=0 dx=0 dy=0 dh=-150 dv=0
PairPos2: "'kern' Horizontal Kerning in Arabic lookup 0 subtable" afii57509 dx=0 dy=0 dh=0 dv=0 dx=0 dy=0 dh=-150 dv=0
PairPos2: "'kern' Horizontal Kerning in Arabic lookup 0 subtable" afii52305 dx=0 dy=0 dh=0 dv=0 dx=0 dy=0 dh=-150 dv=0
PairPos2: "'kern' Horizontal Kerning in Arabic lookup 0 subtable" afii57567 dx=0 dy=0 dh=0 dv=0 dx=0 dy=0 dh=-150 dv=0
EndChar

StartChar: afii62829
Encoding: 65262 65262 255
Width: 1007
GlyphClass: 2
Flags: W
AnchorPoint: "Anchor-3" 360 -1125 basechar 0
AnchorPoint: "Anchor-2" 555 945 basechar 0
LayerCount: 2
Fore
SplineSet
707 267 m 1,0,1
 699 323 699 323 656 362 c 0,2,3
 610 403 610 403 546 403 c 256,4,5
 482 403 482 403 482 342 c 0,6,7
 482 326 482 326 491 316 c 0,8,9
 543 258 543 258 632 258 c 0,10,11
 668 258 668 258 707 267 c 1,0,1
879 283 m 1,12,-1
 1026 283 l 1,13,-1
 1026 0 l 1,14,-1
 862 0 l 1,15,16
 798 -264 798 -264 599 -450 c 0,17,18
 392 -642 392 -642 150 -642 c 1,19,-1
 188 -361 l 1,20,21
 362 -361 362 -361 509 -237 c 0,22,23
 649 -119 649 -119 649 6 c 1,24,25
 632 4 632 4 614 4 c 0,26,27
 494 4 494 4 407 56 c 0,28,29
 300 120 300 120 300 241 c 0,30,31
 300 394 300 394 402 520 c 0,32,33
 498 638 498 638 594 638 c 0,34,35
 692 638 692 638 769 555 c 0,36,37
 859 458 859 458 879 283 c 1,12,-1
EndSplineSet
PairPos2: "'kern' Horizontal Kerning in Arabic lookup 0 subtable" afii62817 dx=0 dy=0 dh=0 dv=0 dx=0 dy=0 dh=-100 dv=0
PairPos2: "'kern' Horizontal Kerning in Arabic lookup 0 subtable" afii57410 dx=0 dy=0 dh=0 dv=0 dx=0 dy=0 dh=-150 dv=0
PairPos2: "'kern' Horizontal Kerning in Arabic lookup 0 subtable" afii57443 dx=0 dy=0 dh=0 dv=0 dx=0 dy=0 dh=-100 dv=0
PairPos2: "'kern' Horizontal Kerning in Arabic lookup 0 subtable" afii57422 dx=0 dy=0 dh=0 dv=0 dx=0 dy=0 dh=50 dv=0
PairPos2: "'kern' Horizontal Kerning in Arabic lookup 0 subtable" afii57421 dx=0 dy=0 dh=0 dv=0 dx=0 dy=0 dh=50 dv=0
PairPos2: "'kern' Horizontal Kerning in Arabic lookup 0 subtable" afii57420 dx=0 dy=0 dh=0 dv=0 dx=0 dy=0 dh=50 dv=0
PairPos2: "'kern' Horizontal Kerning in Arabic lookup 0 subtable" afii62965 dx=0 dy=0 dh=0 dv=0 dx=0 dy=0 dh=-150 dv=0
PairPos2: "'kern' Horizontal Kerning in Arabic lookup 0 subtable" afii57509 dx=0 dy=0 dh=0 dv=0 dx=0 dy=0 dh=-150 dv=0
PairPos2: "'kern' Horizontal Kerning in Arabic lookup 0 subtable" afii52305 dx=0 dy=0 dh=0 dv=0 dx=0 dy=0 dh=-150 dv=0
PairPos2: "'kern' Horizontal Kerning in Arabic lookup 0 subtable" afii57567 dx=0 dy=0 dh=0 dv=0 dx=0 dy=0 dh=-150 dv=0
PairPos2: "'kern' Horizontal Kerning in Arabic lookup 0 subtable" afii57507 dx=0 dy=0 dh=0 dv=0 dx=0 dy=0 dh=50 dv=0
EndChar

StartChar: afii62840
Encoding: 65275 65275 268
Width: 1008
GlyphClass: 3
Flags: W
AnchorPoint: "Anchor-1" 795 -390 baselig 0
AnchorPoint: "Anchor-0" 855 1410 baselig 0
AnchorPoint: "Anchor-1" 345 -510 baselig 1
AnchorPoint: "Anchor-0" 255 1290 baselig 1
LayerCount: 2
Fore
SplineSet
626 0 m 2,0,-1
 290 0 l 1,1,-1
 290 283 l 1,2,-1
 340 283 l 1,3,4
 355 295 355 295 355 347 c 0,5,6
 355 540 355 540 150 1074 c 1,7,-1
 394 1150 l 1,8,9
 582 737 582 737 585 358 c 1,10,-1
 372 283 l 1,11,-1
 616 283 l 2,12,13
 703 283 703 283 739 318 c 0,14,15
 799 377 799 377 799 558 c 0,16,17
 799 771 799 771 717 1170 c 1,18,-1
 948 1246 l 1,19,20
 998 964 998 964 998 701 c 0,21,22
 998 0 998 0 626 0 c 2,0,-1
EndSplineSet
Ligature2: "'rlig' Required Ligatures in Arabic lookup 6 subtable" afii62817 afii62760
Substitution2: "'fina' Terminal Forms in Arabic lookup 2 subtable" afii62841
EndChar

StartChar: afii62841
Encoding: 65276 65276 269
Width: 1177
GlyphClass: 3
Flags: W
AnchorPoint: "Anchor-1" 885 -405 baselig 0
AnchorPoint: "Anchor-0" 855 1425 baselig 0
AnchorPoint: "Anchor-1" 345 -465 baselig 1
AnchorPoint: "Anchor-0" 255 1305 baselig 1
LayerCount: 2
Fore
SplineSet
1196 0 m 1,0,-1
 1090 0 l 2,1,2
 954 0 954 0 896 129 c 1,3,4
 800 0 800 0 626 0 c 2,5,-1
 290 0 l 1,6,-1
 290 283 l 1,7,-1
 340 283 l 1,8,9
 355 295 355 295 355 347 c 0,10,11
 355 540 355 540 150 1074 c 1,12,-1
 394 1150 l 1,13,14
 582 737 582 737 585 358 c 1,15,-1
 372 283 l 1,16,-1
 616 283 l 2,17,18
 710 283 710 283 736 305 c 0,19,20
 791 352 791 352 791 529 c 0,21,22
 791 738 791 738 717 1170 c 1,23,-1
 948 1246 l 1,24,25
 1004 947 1004 947 1004 645 c 0,26,27
 1004 614 1004 614 1003 564 c 0,28,29
 1003 514 1003 514 1003 494 c 0,30,31
 1003 369 1003 369 1029 330 c 0,32,33
 1061 283 1061 283 1168 283 c 2,34,-1
 1196 283 l 1,35,-1
 1196 0 l 1,0,-1
EndSplineSet
Ligature2: "'rlig' Required Ligatures in Arabic lookup 6 subtable" afii62818 afii62760
EndChar

StartChar: afii59759
Encoding: 3663 3663 276
Width: 1233
GlyphClass: 2
Flags: W
LayerCount: 2
Fore
SplineSet
616 983 m 0,0,1
 823 983 823 983 969.5 836.5 c 128,-1,2
 1116 690 1116 690 1116 483 c 0,3,4
 1116 277 1116 277 969.5 130.5 c 128,-1,5
 823 -16 823 -16 616 -16 c 0,6,7
 410 -16 410 -16 263.5 130.5 c 128,-1,8
 117 277 117 277 117 483 c 0,9,10
 117 690 117 690 263.5 836.5 c 128,-1,11
 410 983 410 983 616 983 c 0,0,1
616 147 m 0,12,13
 758 147 758 147 849 242 c 128,-1,14
 940 337 940 337 940 483 c 256,15,16
 940 629 940 629 849 724 c 128,-1,17
 758 819 758 819 616 819 c 0,18,19
 475 819 475 819 384 724 c 128,-1,20
 293 629 293 629 293 483 c 256,21,22
 293 337 293 337 384 242 c 128,-1,23
 475 147 475 147 616 147 c 0,12,13
616 598 m 0,24,25
 664 598 664 598 697.5 565 c 128,-1,26
 731 532 731 532 731 485 c 256,27,28
 731 438 731 438 697.5 404.5 c 128,-1,29
 664 371 664 371 616 371 c 0,30,31
 569 371 569 371 535.5 404.5 c 128,-1,32
 502 438 502 438 502 485 c 256,33,34
 502 532 502 532 535.5 565 c 128,-1,35
 569 598 569 598 616 598 c 0,24,25
EndSplineSet
EndChar

StartChar: afii59760
Encoding: 3664 3664 277
Width: 1233
GlyphClass: 2
Flags: W
LayerCount: 2
Fore
SplineSet
616 924 m 0,0,1
 834 924 834 924 975 794.5 c 128,-1,2
 1116 665 1116 665 1116 453 c 0,3,4
 1116 242 1116 242 975 113 c 128,-1,5
 834 -16 834 -16 616 -16 c 0,6,7
 399 -16 399 -16 258 113 c 128,-1,8
 117 242 117 242 117 453 c 0,9,10
 117 665 117 665 258 794.5 c 128,-1,11
 399 924 399 924 616 924 c 0,0,1
616 150 m 0,12,13
 765 150 765 150 852.5 231 c 128,-1,14
 940 312 940 312 940 453 c 256,15,16
 940 594 940 594 852 677 c 128,-1,17
 764 760 764 760 616 760 c 0,18,19
 469 760 469 760 381 677 c 128,-1,20
 293 594 293 594 293 453 c 0,21,22
 293 310 293 310 381.5 230 c 128,-1,23
 470 150 470 150 616 150 c 0,12,13
EndSplineSet
EndChar

StartChar: glyph279
Encoding: 65559 -1 279
Width: 0
GlyphClass: 2
Flags: W
LayerCount: 2
Fore
SplineSet
36 1831 m 1,0,-1
 36 863 l 1,1,-1
 -36 863 l 1,2,-1
 -36 1831 l 1,3,-1
 36 1831 l 1,0,-1
36 543 m 1,4,-1
 36 -423 l 1,5,-1
 -36 -423 l 1,6,-1
 -36 543 l 1,7,-1
 36 543 l 1,4,-1
EndSplineSet
EndChar

StartChar: glyph280
Encoding: 65560 -1 280
Width: 0
GlyphClass: 2
Flags: W
LayerCount: 2
Fore
SplineSet
-234 -423 m 1,0,-1
 -234 -352 l 1,1,-1
 -36 -352 l 1,2,-1
 -36 1760 l 1,3,-1
 -234 1760 l 1,4,-1
 -234 1831 l 1,5,-1
 234 1831 l 1,6,-1
 234 1760 l 1,7,-1
 36 1760 l 1,8,-1
 36 -352 l 1,9,-1
 234 -352 l 1,10,-1
 234 -423 l 1,11,-1
 -234 -423 l 1,0,-1
EndSplineSet
EndChar

StartChar: glyph281
Encoding: 65561 -1 281
Width: 0
GlyphClass: 2
Flags: W
LayerCount: 2
Fore
SplineSet
224 1646 m 1,0,-1
 36 1504 l 1,1,-1
 36 -423 l 1,2,-1
 -36 -423 l 1,3,-1
 -36 1831 l 1,4,-1
 224 1646 l 1,0,-1
EndSplineSet
EndChar

StartChar: glyph282
Encoding: 65562 -1 282
Width: 0
GlyphClass: 2
Flags: W
LayerCount: 2
Fore
SplineSet
36 1831 m 1,0,-1
 36 -423 l 1,1,-1
 -36 -423 l 1,2,-1
 -36 1504 l 1,3,-1
 -224 1646 l 1,4,-1
 36 1831 l 1,0,-1
EndSplineSet
EndChar

StartChar: glyph283
Encoding: 65563 -1 283
Width: 0
GlyphClass: 2
Flags: W
LayerCount: 2
Fore
SplineSet
36 1831 m 1,0,-1
 36 -352 l 1,1,-1
 234 -352 l 1,2,-1
 234 -423 l 1,3,-1
 -36 -423 l 1,4,-1
 -36 1831 l 1,5,-1
 36 1831 l 1,0,-1
EndSplineSet
EndChar

StartChar: glyph284
Encoding: 65564 -1 284
Width: 0
GlyphClass: 2
Flags: W
LayerCount: 2
Fore
SplineSet
224 1646 m 1,0,-1
 36 1504 l 1,1,-1
 36 -423 l 1,2,-1
 -36 -423 l 1,3,-1
 -36 1504 l 1,4,-1
 -224 1641 l 1,5,-1
 0 1831 l 1,6,-1
 224 1646 l 1,0,-1
EndSplineSet
EndChar

StartChar: uni0670
Encoding: 1648 1648 297
Width: 0
GlyphClass: 4
Flags: W
AnchorPoint: "Anchor-2" 0 0 mark 0
AnchorPoint: "Anchor-0" 0 0 mark 0
LayerCount: 2
Fore
SplineSet
50 28 m 1,0,-1
 -25 -5 l 1,1,2
 -26 30 -26 30 -30 66 c 0,3,4
 -41 154 -41 154 -69 317 c 1,5,-1
 12 368 l 1,6,7
 57 155 57 155 57 75 c 0,8,9
 57 42 57 42 50 28 c 1,0,-1
EndSplineSet
EndChar

StartChar: glyph298
Encoding: 65565 -1 298
Width: 458
GlyphClass: 2
Flags: W
LayerCount: 2
Fore
SplineSet
235 1433 m 2,0,1
 266 1457 266 1457 294 1461.5 c 128,-1,2
 322 1466 322 1466 343 1455 c 128,-1,3
 364 1444 364 1444 377 1419 c 128,-1,4
 390 1394 390 1394 390 1357 c 2,5,-1
 389 1277 l 1,6,-1
 69 1277 l 1,7,-1
 69 1335 l 1,8,-1
 123 1335 l 1,9,-1
 235 1433 l 2,0,1
203 1335 m 1,10,-1
 331 1335 l 1,11,-1
 331 1365 l 2,12,13
 329 1394 329 1394 311 1402 c 128,-1,14
 293 1410 293 1410 263 1388 c 2,15,-1
 203 1335 l 1,10,-1
EndSplineSet
EndChar

StartChar: glyph299
Encoding: 65566 -1 299
Width: 1577
GlyphClass: 2
Flags: W
LayerCount: 2
Fore
SplineSet
1378 315 m 1,0,1
 1370 371 1370 371 1327 410 c 0,2,3
 1281 451 1281 451 1217 451 c 0,4,5
 1152 451 1152 451 1152 391 c 0,6,7
 1152 376 1152 376 1162 364 c 0,8,9
 1215 302 1215 302 1292 302 c 0,10,11
 1327 302 1327 302 1378 315 c 1,0,1
754 -569 m 0,12,13
 477 -569 477 -569 310 -428 c 0,14,15
 149 -292 149 -292 149 -77 c 0,16,17
 149 137 149 137 356 345 c 0,18,19
 531 522 531 522 826 669 c 1,20,-1
 826 394 l 1,21,22
 662 330 662 330 515 214 c 0,23,24
 337 76 337 76 337 -35 c 0,25,26
 337 -143 337 -143 472 -209 c 0,27,28
 602 -273 602 -273 797 -273 c 0,29,30
 1036 -273 1036 -273 1188 -183 c 0,31,32
 1345 -91 1345 -91 1345 61 c 1,33,34
 1301 54 1301 54 1260 54 c 0,35,36
 1137 54 1137 54 1062 115 c 0,37,38
 984 179 984 179 984 290 c 0,39,40
 984 443 984 443 1067.5 566.5 c 128,-1,41
 1151 690 1151 690 1258 690 c 0,42,43
 1400 690 1400 690 1494 529 c 0,44,45
 1577 387 1577 387 1577 217 c 0,46,47
 1577 -136 1577 -136 1325 -360 c 0,48,49
 1088 -569 1088 -569 754 -569 c 0,12,13
EndSplineSet
EndChar

StartChar: uni06DD
Encoding: 1757 1757 388
Width: 2300
GlyphClass: 2
Flags: W
LayerCount: 2
Fore
SplineSet
2250 715 m 256,0,1
 2250 469 2250 469 2146 249 c 0,2,3
 2046 35 2046 35 1867 -119 c 1,4,5
 1870 -133 1870 -133 1870 -148 c 0,6,7
 1870 -203 1870 -203 1831 -241.5 c 128,-1,8
 1792 -280 1792 -280 1737 -280 c 0,9,10
 1697 -280 1697 -280 1664 -258 c 1,11,12
 1424 -385 1424 -385 1149 -385 c 0,13,14
 876 -385 876 -385 636 -258 c 1,15,16
 603 -280 603 -280 563 -280 c 0,17,18
 508 -280 508 -280 469 -241.5 c 128,-1,19
 430 -203 430 -203 430 -148 c 0,20,21
 430 -133 430 -133 433 -119 c 1,22,23
 254 35 254 35 154 249 c 0,24,25
 50 469 50 469 50 715 c 256,26,27
 50 961 50 961 154 1181 c 0,28,29
 254 1394 254 1394 433 1548 c 1,30,31
 430 1562 430 1562 430 1577 c 0,32,33
 430 1632 430 1632 469 1670.5 c 128,-1,34
 508 1709 508 1709 563 1709 c 0,35,36
 603 1709 603 1709 636 1687 c 1,37,38
 876 1814 876 1814 1151 1814 c 0,39,40
 1424 1814 1424 1814 1664 1687 c 1,41,42
 1697 1709 1697 1709 1737 1709 c 0,43,44
 1792 1709 1792 1709 1831 1670.5 c 128,-1,45
 1870 1632 1870 1632 1870 1577 c 0,46,47
 1870 1562 1870 1562 1867 1548 c 1,48,49
 2046 1394 2046 1394 2146 1181 c 0,50,51
 2250 961 2250 961 2250 715 c 256,0,1
1816 1576 m 0,52,53
 1816 1609 1816 1609 1793 1632 c 128,-1,54
 1770 1655 1770 1655 1738 1655 c 256,55,56
 1706 1655 1706 1655 1682.5 1631.5 c 128,-1,57
 1659 1608 1659 1608 1659 1576 c 256,58,59
 1659 1544 1659 1544 1682 1521 c 128,-1,60
 1705 1498 1705 1498 1738 1498 c 0,61,62
 1770 1498 1770 1498 1793 1521 c 128,-1,63
 1816 1544 1816 1544 1816 1576 c 0,52,53
1602 1595 m 1,64,65
 1390 1704 1390 1704 1151 1704 c 0,66,67
 910 1704 910 1704 698 1595 c 1,68,-1
 1602 1595 l 1,64,65
641 1576 m 256,69,70
 641 1608 641 1608 617.5 1631.5 c 128,-1,71
 594 1655 594 1655 562 1655 c 256,72,73
 530 1655 530 1655 507 1632 c 128,-1,74
 484 1609 484 1609 484 1576 c 0,75,76
 484 1544 484 1544 507 1521 c 128,-1,77
 530 1498 530 1498 562 1498 c 0,78,79
 595 1498 595 1498 618 1521 c 128,-1,80
 641 1544 641 1544 641 1576 c 256,69,70
2140 714 m 0,81,82
 2140 933 2140 933 2048 1131 c 0,83,84
 1960 1321 1960 1321 1801 1460 c 1,85,86
 1772 1444 1772 1444 1737 1444 c 0,87,88
 1681 1444 1681 1444 1642 1485 c 1,89,-1
 658 1485 l 1,90,91
 619 1444 619 1444 563 1444 c 0,92,93
 528 1444 528 1444 499 1460 c 1,94,95
 340 1321 340 1321 252 1131 c 0,96,97
 160 933 160 933 160 714 c 0,98,99
 160 265 160 265 499 -31 c 1,100,101
 528 -15 528 -15 563 -15 c 0,102,103
 619 -15 619 -15 658 -56 c 1,104,-1
 1642 -56 l 1,105,106
 1681 -15 1681 -15 1737 -15 c 0,107,108
 1772 -15 1772 -15 1801 -31 c 1,109,110
 2140 265 2140 265 2140 714 c 0,81,82
1816 -147 m 0,111,112
 1816 -115 1816 -115 1793 -92 c 128,-1,113
 1770 -69 1770 -69 1738 -69 c 0,114,115
 1705 -69 1705 -69 1682 -92 c 128,-1,116
 1659 -115 1659 -115 1659 -147 c 256,117,118
 1659 -179 1659 -179 1682.5 -202.5 c 128,-1,119
 1706 -226 1706 -226 1738 -226 c 256,120,121
 1770 -226 1770 -226 1793 -203 c 128,-1,122
 1816 -180 1816 -180 1816 -147 c 0,111,112
1602 -166 m 1,123,-1
 698 -166 l 1,124,125
 910 -275 910 -275 1151 -275 c 0,126,127
 1390 -275 1390 -275 1602 -166 c 1,123,-1
641 -147 m 256,128,129
 641 -115 641 -115 618 -92 c 128,-1,130
 595 -69 595 -69 562 -69 c 0,131,132
 530 -69 530 -69 507 -92 c 128,-1,133
 484 -115 484 -115 484 -147 c 0,134,135
 484 -180 484 -180 507 -203 c 128,-1,136
 530 -226 530 -226 562 -226 c 256,137,138
 594 -226 594 -226 617.5 -202.5 c 128,-1,139
 641 -179 641 -179 641 -147 c 256,128,129
EndSplineSet
EndChar

StartChar: uni06DE
Encoding: 1758 1758 389
Width: 2221
GlyphClass: 2
Flags: W
LayerCount: 2
Fore
SplineSet
2171 750 m 1,0,-1
 1861 439 l 1,1,-1
 1861 0 l 1,2,-1
 1421 0 l 1,3,-1
 1111 -311 l 1,4,-1
 800 0 l 1,5,-1
 361 0 l 1,6,-1
 361 439 l 1,7,-1
 50 750 l 1,8,-1
 361 1061 l 1,9,-1
 361 1500 l 1,10,-1
 800 1500 l 1,11,-1
 1111 1811 l 1,12,-1
 1421 1500 l 1,13,-1
 1861 1500 l 1,14,-1
 1861 1061 l 1,15,-1
 2171 750 l 1,0,-1
436 364 m 1,16,-1
 436 75 l 1,17,-1
 725 75 l 1,18,-1
 436 364 l 1,16,-1
725 1425 m 1,19,-1
 436 1425 l 1,20,-1
 436 1136 l 1,21,-1
 725 1425 l 1,19,-1
1786 1136 m 1,22,-1
 1786 1425 l 1,23,-1
 1496 1425 l 1,24,-1
 1786 1136 l 1,22,-1
1786 75 m 1,25,-1
 1786 364 l 1,26,-1
 1496 75 l 1,27,-1
 1786 75 l 1,25,-1
906 0 m 1,28,-1
 1111 -205 l 1,29,-1
 1315 0 l 1,30,-1
 906 0 l 1,28,-1
361 955 m 1,31,-1
 156 750 l 1,32,-1
 361 545 l 1,33,-1
 361 955 l 1,31,-1
1315 1500 m 1,34,-1
 1111 1705 l 1,35,-1
 906 1500 l 1,36,-1
 1315 1500 l 1,34,-1
1786 1030 m 1,37,-1
 1390 1425 l 1,38,-1
 831 1425 l 1,39,-1
 436 1030 l 1,40,-1
 436 470 l 1,41,-1
 831 75 l 1,42,-1
 1390 75 l 1,43,-1
 1786 470 l 1,44,-1
 1786 1030 l 1,37,-1
2065 750 m 1,45,-1
 1861 955 l 1,46,-1
 1861 545 l 1,47,-1
 2065 750 l 1,45,-1
1328 750 m 256,48,49
 1328 660 1328 660 1264.5 596 c 128,-1,50
 1201 532 1201 532 1111 532 c 256,51,52
 1021 532 1021 532 957 596 c 128,-1,53
 893 660 893 660 893 750 c 256,54,55
 893 840 893 840 957 903.5 c 128,-1,56
 1021 967 1021 967 1111 967 c 256,57,58
 1201 967 1201 967 1264.5 903.5 c 128,-1,59
 1328 840 1328 840 1328 750 c 256,48,49
1253 750 m 256,60,61
 1253 809 1253 809 1211 850.5 c 128,-1,62
 1169 892 1169 892 1110 892 c 256,63,64
 1051 892 1051 892 1009 850.5 c 128,-1,65
 967 809 967 809 967 750 c 256,66,67
 967 691 967 691 1009 649 c 128,-1,68
 1051 607 1051 607 1110 607 c 256,69,70
 1169 607 1169 607 1211 649 c 128,-1,71
 1253 691 1253 691 1253 750 c 256,60,61
EndSplineSet
EndChar

StartChar: uni06DF
Encoding: 1759 1759 390
Width: 0
GlyphClass: 2
Flags: W
LayerCount: 2
Fore
SplineSet
75 1429 m 256,0,1
 75 1398 75 1398 53 1376 c 128,-1,2
 31 1354 31 1354 0 1354 c 256,3,4
 -31 1354 -31 1354 -53 1376 c 128,-1,5
 -75 1398 -75 1398 -75 1429 c 256,6,7
 -75 1460 -75 1460 -53 1482 c 128,-1,8
 -31 1504 -31 1504 0 1504 c 256,9,10
 31 1504 31 1504 53 1482 c 128,-1,11
 75 1460 75 1460 75 1429 c 256,0,1
EndSplineSet
EndChar

StartChar: uni06E9
Encoding: 1769 1769 391
Width: 1229
GlyphClass: 2
Flags: W
LayerCount: 2
Fore
SplineSet
1179 0 m 1,0,-1
 50 0 l 1,1,-1
 278 261 l 1,2,-1
 278 849 l 1,3,-1
 50 1108 l 1,4,-1
 614 1676 l 1,5,-1
 1179 1108 l 1,6,-1
 951 849 l 1,7,-1
 951 261 l 1,8,-1
 1179 0 l 1,0,-1
1101 1108 m 1,9,-1
 614 1598 l 1,10,-1
 128 1108 l 1,11,-1
 338 871 l 1,12,-1
 338 239 l 1,13,-1
 178 56 l 1,14,-1
 1051 56 l 1,15,-1
 891 239 l 1,16,-1
 891 871 l 1,17,-1
 1101 1108 l 1,9,-1
995 1108 m 1,18,-1
 845 937 l 1,19,-1
 845 131 l 1,20,-1
 384 131 l 1,21,-1
 384 937 l 1,22,-1
 234 1108 l 1,23,-1
 614 1489 l 1,24,-1
 995 1108 l 1,18,-1
922 1108 m 1,25,-1
 614 1416 l 1,26,-1
 307 1108 l 1,27,-1
 433 968 l 1,28,-1
 433 186 l 1,29,-1
 796 186 l 1,30,-1
 796 968 l 1,31,-1
 922 1108 l 1,25,-1
833 1108 m 1,32,-1
 745 1011 l 1,33,-1
 745 267 l 1,34,-1
 484 267 l 1,35,-1
 484 1011 l 1,36,-1
 396 1108 l 1,37,-1
 614 1331 l 1,38,-1
 833 1108 l 1,32,-1
780 1108 m 1,39,-1
 614 1278 l 1,40,-1
 449 1108 l 1,41,-1
 523 1027 l 1,42,-1
 523 309 l 1,43,-1
 705 309 l 1,44,-1
 705 1027 l 1,45,-1
 780 1108 l 1,39,-1
EndSplineSet
EndChar

StartChar: uni06EB
Encoding: 1771 1771 393
Width: 0
GlyphClass: 2
Flags: W
LayerCount: 2
Fore
SplineSet
168 1522 m 1,0,-1
 -1 1354 l 1,1,-1
 -168 1521 l 1,2,-1
 1 1689 l 1,3,-1
 168 1522 l 1,0,-1
104 1522 m 1,4,-1
 0 1626 l 1,5,-1
 -104 1521 l 1,6,-1
 0 1417 l 1,7,-1
 104 1522 l 1,4,-1
EndSplineSet
EndChar

StartChar: comma
Encoding: 44 44 402
Width: 545
Flags: W
LayerCount: 2
Fore
SplineSet
152 -270 m 1,0,1
 249 -202 249 -202 293.5 -147 c 128,-1,2
 338 -92 338 -92 338 -42 c 0,3,4
 338 -28 338 -28 329 -17.5 c 128,-1,5
 320 -7 320 -7 308 -7 c 2,6,-1
 295 -7 l 1,7,-1
 274 -10 l 1,8,-1
 261 -10 l 2,9,10
 253 -10 253 -10 242.5 -7.5 c 128,-1,11
 232 -5 232 -5 221.5 -1 c 128,-1,12
 211 3 211 3 201 8.5 c 128,-1,13
 191 14 191 14 184 20 c 0,14,15
 162 36 162 36 151 62.5 c 128,-1,16
 140 89 140 89 140 122 c 0,17,18
 140 187 140 187 179 225.5 c 128,-1,19
 218 264 218 264 281 264 c 0,20,21
 319 264 319 264 351 249.5 c 128,-1,22
 383 235 383 235 406 209 c 128,-1,23
 429 183 429 183 441.5 147 c 128,-1,24
 454 111 454 111 454 67 c 0,25,26
 454 12 454 12 437 -37.5 c 128,-1,27
 420 -87 420 -87 386 -132.5 c 128,-1,28
 352 -178 352 -178 298.5 -221.5 c 128,-1,29
 245 -265 245 -265 171 -308 c 1,30,-1
 152 -270 l 1,0,1
EndSplineSet
EndChar

StartChar: afii57407
Encoding: 1567 1567 403
Width: 696
GlyphClass: 2
Flags: W
LayerCount: 2
Fore
SplineSet
150 854 m 0,0,1
 150 995 150 995 245 1086 c 0,2,3
 333 1170 333 1170 448 1170 c 0,4,5
 561 1170 561 1170 628.5 1100 c 128,-1,6
 696 1030 696 1030 696 914 c 0,7,8
 696 820 696 820 644 741 c 0,9,10
 585 652 585 652 499 652 c 0,11,12
 460 652 460 652 425 678 c 0,13,14
 379 713 379 713 379 780 c 0,15,16
 379 828 379 828 408 863 c 0,17,18
 441 903 441 903 498 903 c 0,19,20
 544 903 544 903 576.5 870.5 c 128,-1,21
 609 838 609 838 606 838 c 1,22,23
 608 839 608 839 610 844 c 0,24,25
 614 862 614 862 573 898 c 0,26,27
 525 939 525 939 463 939 c 256,28,29
 401 939 401 939 362 893.5 c 128,-1,30
 323 848 323 848 323 784 c 0,31,32
 323 676 323 676 424 614 c 0,33,34
 593 508 593 508 622 314 c 1,35,-1
 424 263 l 1,36,37
 424 366 424 366 353 459 c 0,38,39
 287 539 287 539 221 619 c 1,40,41
 150 723 150 723 150 854 c 0,0,1
642 -19 m 1,42,-1
 402 -19 l 1,43,-1
 402 221 l 1,44,-1
 642 221 l 1,45,-1
 642 -19 l 1,42,-1
EndSplineSet
EndChar

StartChar: afii57392
Encoding: 1776 1776 404
Width: 706
Flags: W
LayerCount: 2
Fore
SplineSet
496 274 m 1,0,-1
 185 274 l 1,1,-1
 185 585 l 1,2,-1
 496 585 l 1,3,-1
 496 274 l 1,0,-1
EndSplineSet
EndChar

StartChar: afii57393
Encoding: 1777 1777 405
Width: 662
Flags: W
LayerCount: 2
Fore
SplineSet
432 -30 m 1,0,-1
 202 -90 l 1,1,2
 240 158 240 158 218 591 c 0,3,4
 209 770 209 770 201 855 c 0,5,6
 185 1045 185 1045 158 1152 c 1,7,-1
 404 1224 l 1,8,9
 444 1031 444 1031 466 646 c 0,10,11
 473 527 473 527 465 328 c 0,12,13
 455 100 455 100 432 -30 c 1,0,-1
EndSplineSet
EndChar

StartChar: afii57394
Encoding: 1778 1778 406
Width: 934
Flags: W
LayerCount: 2
Fore
SplineSet
447 1021 m 1,0,1
 473 1010 473 1010 495 1010 c 0,2,3
 652 1010 652 1010 695 1237 c 1,4,-1
 934 1167 l 1,5,6
 890 994 890 994 794 883 c 0,7,8
 668 738 668 738 474 729 c 1,9,10
 480 615 480 615 480 483 c 0,11,12
 480 170 480 170 445 -30 c 1,13,-1
 214 -90 l 1,14,15
 231 23 231 23 235 259 c 0,16,17
 238 461 238 461 230 591 c 0,18,19
 207 984 207 984 165 1152 c 1,20,-1
 415 1224 l 1,21,22
 434 1142 434 1142 447 1021 c 1,0,1
EndSplineSet
EndChar

StartChar: afii57395
Encoding: 1779 1779 407
Width: 1321
Flags: W
LayerCount: 2
Fore
SplineSet
875 1006 m 1,0,1
 894 1000 894 1000 902 1000 c 0,2,3
 1057 1000 1057 1000 1101 1167 c 1,4,-1
 1321 1065 l 1,5,6
 1268 936 1268 936 1163 833 c 0,7,8
 1030 702 1030 702 887 702 c 0,9,10
 770 702 770 702 694 796 c 1,11,12
 597 734 597 734 474 729 c 1,13,14
 480 615 480 615 480 483 c 0,15,16
 480 170 480 170 445 -30 c 1,17,-1
 214 -90 l 1,18,19
 231 23 231 23 235 259 c 0,20,21
 238 461 238 461 230 591 c 0,22,23
 207 984 207 984 165 1152 c 1,24,-1
 415 1224 l 1,25,26
 434 1142 434 1142 447 1021 c 1,27,28
 473 1010 473 1010 495 1010 c 0,29,30
 652 1010 652 1010 695 1237 c 1,31,-1
 934 1167 l 1,32,33
 908 1071 908 1071 875 1006 c 1,0,1
EndSplineSet
EndChar

StartChar: afii62843
Encoding: 1780 1780 408
Width: 1057
Flags: W
LayerCount: 2
Fore
SplineSet
1057 735 m 1,0,1
 888 568 888 568 703 568 c 0,2,3
 619 568 619 568 474 626 c 1,4,5
 474 191 474 191 445 -30 c 1,6,-1
 214 -90 l 1,7,8
 231 23 231 23 235 259 c 0,9,10
 238 461 238 461 230 591 c 0,11,12
 207 984 207 984 165 1152 c 1,13,-1
 415 1224 l 1,14,15
 432 1151 432 1151 452 975 c 1,16,17
 526 1224 526 1224 746 1224 c 0,18,19
 857 1224 857 1224 958 1144 c 1,20,-1
 853 970 l 1,21,22
 811 1001 811 1001 762 1001 c 0,23,24
 668 1001 668 1001 668 926 c 0,25,26
 668 889 668 889 697 861 c 128,-1,27
 726 833 726 833 776 833 c 0,28,29
 853 833 853 833 950 902 c 1,30,-1
 1057 735 l 1,31,-1
 1057 735 l 1,0,1
EndSplineSet
EndChar

StartChar: afii62844
Encoding: 1781 1781 409
Width: 1155
Flags: W
LayerCount: 2
Fore
SplineSet
1155 365 m 0,0,1
 1155 155 1155 155 1009 29 c 0,2,3
 870 -90 870 -90 657 -90 c 0,4,5
 412 -90 412 -90 284 19 c 0,6,7
 165 121 165 121 165 299 c 0,8,9
 165 602 165 602 485 907 c 1,10,-1
 452 933 l 1,11,-1
 468 1209 l 1,12,13
 602 1147 602 1147 665 1083 c 1,14,-1
 737 1155 l 1,15,-1
 875 994 l 1,16,-1
 833 953 l 1,17,18
 1155 661 1155 661 1155 365 c 0,0,1
932 377 m 0,19,20
 932 482 932 482 813 626 c 0,21,22
 738 717 738 717 647 792 c 1,23,24
 565 735 565 735 492 644 c 0,25,26
 386 512 386 512 386 393 c 0,27,28
 386 291 386 291 464 231 c 0,29,30
 539 174 539 174 655 174 c 0,31,32
 932 174 932 174 932 377 c 0,19,20
EndSplineSet
EndChar

StartChar: afii62845
Encoding: 1782 1782 410
Width: 968
Flags: W
LayerCount: 2
Fore
SplineSet
555 -29 m 1,0,-1
 320 -90 l 1,1,2
 346 11 346 11 375 106 c 0,3,4
 443 332 443 332 515 483 c 1,5,6
 502 479 502 479 478 479 c 0,7,8
 371 479 371 479 285 544 c 0,9,10
 165 634 165 634 165 819 c 0,11,12
 165 1008 165 1008 312 1122 c 0,13,14
 445 1224 445 1224 629 1224 c 1,15,-1
 629 1007 l 1,16,17
 418 946 418 946 418 875 c 0,18,19
 418 822 418 822 454.5 785.5 c 128,-1,20
 491 749 491 749 544 749 c 0,21,22
 621 749 621 749 667 829 c 1,23,24
 714 922 714 922 761 1015 c 1,25,-1
 968 894 l 1,26,27
 882 746 882 746 809 600 c 0,28,29
 634 250 634 250 555 -29 c 1,0,-1
EndSplineSet
EndChar

StartChar: afii57399
Encoding: 1783 1783 411
Width: 1316
Flags: W
LayerCount: 2
Fore
SplineSet
1316 1095 m 1,0,1
 1199 962 1199 962 1024 634 c 0,2,3
 857 322 857 322 802 149 c 1,4,-1
 843 33 l 1,5,-1
 609 -90 l 1,6,7
 560 196 560 196 429 560 c 128,-1,8
 298 924 298 924 165 1147 c 1,9,-1
 397 1252 l 1,10,11
 471 1133 471 1133 568 904 c 0,12,13
 663 681 663 681 704 536 c 1,14,15
 761 675 761 675 884 898 c 0,16,17
 1004 1115 1004 1115 1094 1247 c 1,18,-1
 1316 1095 l 1,0,1
EndSplineSet
EndChar

StartChar: afii57400
Encoding: 1784 1784 412
Width: 1316
Flags: W
LayerCount: 2
Fore
SplineSet
1316 15 m 1,0,-1
 1084 -90 l 1,1,2
 1010 29 1010 29 913 258 c 0,3,4
 818 480 818 480 778 626 c 1,5,6
 718 484 718 484 597 264 c 128,-1,7
 476 44 476 44 387 -86 c 1,8,-1
 165 66 l 1,9,10
 282 202 282 202 457 529 c 0,11,12
 624 842 624 842 678 1014 c 1,13,-1
 638 1129 l 1,14,-1
 873 1252 l 1,15,16
 922 965 922 965 1052.5 601.5 c 128,-1,17
 1183 238 1183 238 1316 15 c 1,0,-1
EndSplineSet
EndChar

StartChar: afii57401
Encoding: 1785 1785 413
Width: 940
Flags: W
LayerCount: 2
Fore
SplineSet
940 -90 m 1,0,1
 739 -62 739 -62 608 142 c 0,2,3
 488 328 488 328 488 548 c 1,4,5
 359 548 359 548 264 629 c 0,6,7
 165 713 165 713 165 837 c 0,8,9
 165 993 165 993 242 1109 c 0,10,11
 329 1240 329 1240 474 1240 c 0,12,13
 580 1240 580 1240 650 1152.5 c 128,-1,14
 720 1065 720 1065 720 933 c 0,15,16
 720 893 720 893 707.5 812.5 c 128,-1,17
 695 732 695 732 695 667 c 0,18,19
 695 530 695 530 758 400 c 0,20,21
 829 253 829 253 940 218 c 1,22,-1
 940 -90 l 1,0,1
459 997 m 1,23,24
 396 998 396 998 387 908 c 0,25,26
 384 871 384 871 400 840.5 c 128,-1,27
 416 810 416 810 443 807 c 0,28,29
 470 805 470 805 490.5 832 c 128,-1,30
 511 859 511 859 514 896 c 0,31,32
 520 990 520 990 459 997 c 1,23,24
EndSplineSet
EndChar

StartChar: afii57392.001
Encoding: 1632 1632 414
Width: 706
Flags: W
LayerCount: 2
Fore
SplineSet
496 274 m 1,0,-1
 185 274 l 1,1,-1
 185 585 l 1,2,-1
 496 585 l 1,3,-1
 496 274 l 1,0,-1
EndSplineSet
EndChar

StartChar: afii57393.001
Encoding: 1633 1633 415
Width: 662
Flags: W
LayerCount: 2
Fore
SplineSet
432 -30 m 1,0,-1
 202 -90 l 1,1,2
 240 158 240 158 218 591 c 0,3,4
 209 770 209 770 201 855 c 0,5,6
 185 1045 185 1045 158 1152 c 1,7,-1
 404 1224 l 1,8,9
 444 1031 444 1031 466 646 c 0,10,11
 473 527 473 527 465 328 c 0,12,13
 455 100 455 100 432 -30 c 1,0,-1
EndSplineSet
EndChar

StartChar: afii57394.001
Encoding: 1634 1634 416
Width: 934
Flags: W
LayerCount: 2
Fore
SplineSet
447 1021 m 1,0,1
 473 1010 473 1010 495 1010 c 0,2,3
 652 1010 652 1010 695 1237 c 1,4,-1
 934 1167 l 1,5,6
 890 994 890 994 794 883 c 0,7,8
 668 738 668 738 474 729 c 1,9,10
 480 615 480 615 480 483 c 0,11,12
 480 170 480 170 445 -30 c 1,13,-1
 214 -90 l 1,14,15
 231 23 231 23 235 259 c 0,16,17
 238 461 238 461 230 591 c 0,18,19
 207 984 207 984 165 1152 c 1,20,-1
 415 1224 l 1,21,22
 434 1142 434 1142 447 1021 c 1,0,1
EndSplineSet
EndChar

StartChar: afii57395.001
Encoding: 1635 1635 417
Width: 1321
Flags: W
LayerCount: 2
Fore
SplineSet
875 1006 m 1,0,1
 894 1000 894 1000 902 1000 c 0,2,3
 1057 1000 1057 1000 1101 1167 c 1,4,-1
 1321 1065 l 1,5,6
 1268 936 1268 936 1163 833 c 0,7,8
 1030 702 1030 702 887 702 c 0,9,10
 770 702 770 702 694 796 c 1,11,12
 597 734 597 734 474 729 c 1,13,14
 480 615 480 615 480 483 c 0,15,16
 480 170 480 170 445 -30 c 1,17,-1
 214 -90 l 1,18,19
 231 23 231 23 235 259 c 0,20,21
 238 461 238 461 230 591 c 0,22,23
 207 984 207 984 165 1152 c 1,24,-1
 415 1224 l 1,25,26
 434 1142 434 1142 447 1021 c 1,27,28
 473 1010 473 1010 495 1010 c 0,29,30
 652 1010 652 1010 695 1237 c 1,31,-1
 934 1167 l 1,32,33
 908 1071 908 1071 875 1006 c 1,0,1
EndSplineSet
EndChar

StartChar: afii57396
Encoding: 1636 1636 418
Width: 1057
Flags: W
LayerCount: 2
Fore
SplineSet
1057 735 m 1,0,1
 888 568 888 568 703 568 c 0,2,3
 619 568 619 568 474 626 c 1,4,5
 474 191 474 191 445 -30 c 1,6,-1
 214 -90 l 1,7,8
 231 23 231 23 235 259 c 0,9,10
 238 461 238 461 230 591 c 0,11,12
 207 984 207 984 165 1152 c 1,13,-1
 415 1224 l 1,14,15
 432 1151 432 1151 452 975 c 1,16,17
 526 1224 526 1224 746 1224 c 0,18,19
 857 1224 857 1224 958 1144 c 1,20,-1
 853 970 l 1,21,22
 811 1001 811 1001 762 1001 c 0,23,24
 668 1001 668 1001 668 926 c 0,25,26
 668 889 668 889 697 861 c 128,-1,27
 726 833 726 833 776 833 c 0,28,29
 853 833 853 833 950 902 c 1,30,-1
 1057 735 l 1,31,-1
 1057 735 l 1,0,1
EndSplineSet
EndChar

StartChar: afii57397
Encoding: 1637 1637 419
Width: 1155
Flags: W
LayerCount: 2
Fore
SplineSet
1155 365 m 0,0,1
 1155 155 1155 155 1009 29 c 0,2,3
 870 -90 870 -90 657 -90 c 0,4,5
 412 -90 412 -90 284 19 c 0,6,7
 165 121 165 121 165 299 c 0,8,9
 165 602 165 602 485 907 c 1,10,-1
 452 933 l 1,11,-1
 468 1209 l 1,12,13
 602 1147 602 1147 665 1083 c 1,14,-1
 737 1155 l 1,15,-1
 875 994 l 1,16,-1
 833 953 l 1,17,18
 1155 661 1155 661 1155 365 c 0,0,1
932 377 m 0,19,20
 932 482 932 482 813 626 c 0,21,22
 738 717 738 717 647 792 c 1,23,24
 565 735 565 735 492 644 c 0,25,26
 386 512 386 512 386 393 c 0,27,28
 386 291 386 291 464 231 c 0,29,30
 539 174 539 174 655 174 c 0,31,32
 932 174 932 174 932 377 c 0,19,20
EndSplineSet
EndChar

StartChar: afii57398
Encoding: 1638 1638 420
Width: 968
Flags: W
LayerCount: 2
Fore
SplineSet
555 -29 m 1,0,-1
 320 -90 l 1,1,2
 346 11 346 11 375 106 c 0,3,4
 443 332 443 332 515 483 c 1,5,6
 502 479 502 479 478 479 c 0,7,8
 371 479 371 479 285 544 c 0,9,10
 165 634 165 634 165 819 c 0,11,12
 165 1008 165 1008 312 1122 c 0,13,14
 445 1224 445 1224 629 1224 c 1,15,-1
 629 1007 l 1,16,17
 418 946 418 946 418 875 c 0,18,19
 418 822 418 822 454.5 785.5 c 128,-1,20
 491 749 491 749 544 749 c 0,21,22
 621 749 621 749 667 829 c 1,23,24
 714 922 714 922 761 1015 c 1,25,-1
 968 894 l 1,26,27
 882 746 882 746 809 600 c 0,28,29
 634 250 634 250 555 -29 c 1,0,-1
EndSplineSet
EndChar

StartChar: afii57399.001
Encoding: 1639 1639 421
Width: 1316
Flags: W
LayerCount: 2
Fore
SplineSet
1316 1095 m 1,0,1
 1199 962 1199 962 1024 634 c 0,2,3
 857 322 857 322 802 149 c 1,4,-1
 843 33 l 1,5,-1
 609 -90 l 1,6,7
 560 196 560 196 429 560 c 128,-1,8
 298 924 298 924 165 1147 c 1,9,-1
 397 1252 l 1,10,11
 471 1133 471 1133 568 904 c 0,12,13
 663 681 663 681 704 536 c 1,14,15
 761 675 761 675 884 898 c 0,16,17
 1004 1115 1004 1115 1094 1247 c 1,18,-1
 1316 1095 l 1,0,1
EndSplineSet
EndChar

StartChar: afii57400.001
Encoding: 1640 1640 422
Width: 1316
Flags: W
LayerCount: 2
Fore
SplineSet
1316 15 m 1,0,-1
 1084 -90 l 1,1,2
 1010 29 1010 29 913 258 c 0,3,4
 818 480 818 480 778 626 c 1,5,6
 718 484 718 484 597 264 c 128,-1,7
 476 44 476 44 387 -86 c 1,8,-1
 165 66 l 1,9,10
 282 202 282 202 457 529 c 0,11,12
 624 842 624 842 678 1014 c 1,13,-1
 638 1129 l 1,14,-1
 873 1252 l 1,15,16
 922 965 922 965 1052.5 601.5 c 128,-1,17
 1183 238 1183 238 1316 15 c 1,0,-1
EndSplineSet
EndChar

StartChar: afii57401.001
Encoding: 1641 1641 423
Width: 940
Flags: W
LayerCount: 2
Fore
SplineSet
940 -90 m 1,0,1
 739 -62 739 -62 608 142 c 0,2,3
 488 328 488 328 488 548 c 1,4,5
 359 548 359 548 264 629 c 0,6,7
 165 713 165 713 165 837 c 0,8,9
 165 993 165 993 242 1109 c 0,10,11
 329 1240 329 1240 474 1240 c 0,12,13
 580 1240 580 1240 650 1152.5 c 128,-1,14
 720 1065 720 1065 720 933 c 0,15,16
 720 893 720 893 707.5 812.5 c 128,-1,17
 695 732 695 732 695 667 c 0,18,19
 695 530 695 530 758 400 c 0,20,21
 829 253 829 253 940 218 c 1,22,-1
 940 -90 l 1,0,1
459 997 m 1,23,24
 396 998 396 998 387 908 c 0,25,26
 384 871 384 871 400 840.5 c 128,-1,27
 416 810 416 810 443 807 c 0,28,29
 470 805 470 805 490.5 832 c 128,-1,30
 511 859 511 859 514 896 c 0,31,32
 520 990 520 990 459 997 c 1,23,24
EndSplineSet
EndChar

StartChar: guillemotleft
Encoding: 171 171 424
Width: 836
Flags: W
LayerCount: 2
Fore
SplineSet
442 616 m 1,0,1
 387 507 387 507 387 393 c 0,2,3
 387 255 387 255 518 82 c 1,4,-1
 518 83 l 1,5,6
 538 60 538 60 547.5 44 c 128,-1,7
 557 28 557 28 560 20 c 0,8,9
 560 -5 560 -5 534 -5 c 0,10,11
 528 -5 528 -5 513 1 c 0,12,13
 377 71 377 71 294 168 c 1,14,-1
 294 167 l 1,15,16
 202 276 202 276 202 396 c 0,17,18
 203 448 203 448 222.5 500 c 128,-1,19
 242 552 242 552 280 603 c 0,20,21
 307 640 307 640 344.5 676.5 c 128,-1,22
 382 713 382 713 426 745 c 0,23,24
 499 799 499 799 528 799 c 0,25,26
 563 799 563 799 563 775 c 0,27,28
 563 765 563 765 555 757 c 0,29,30
 528 730 528 730 509 708 c 128,-1,31
 490 686 490 686 477 668.5 c 128,-1,32
 464 651 464 651 455.5 638 c 128,-1,33
 447 625 447 625 441 615 c 2,34,-1
 442 616 l 1,0,1
721 616 m 1,35,36
 666 507 666 507 666 393 c 0,37,38
 666 255 666 255 797 82 c 1,39,-1
 797 83 l 1,40,41
 817 60 817 60 826.5 44 c 128,-1,42
 836 28 836 28 839 20 c 0,43,44
 839 -5 839 -5 813 -5 c 0,45,46
 806 -5 806 -5 793 1 c 0,47,48
 725 36 725 36 670 77 c 128,-1,49
 615 118 615 118 573 168 c 1,50,-1
 573 167 l 1,51,52
 481 276 481 276 481 396 c 0,53,54
 482 448 482 448 501.5 500 c 128,-1,55
 521 552 521 552 559 603 c 0,56,57
 586 640 586 640 623.5 676.5 c 128,-1,58
 661 713 661 713 705 745 c 0,59,60
 778 799 778 799 807 799 c 0,61,62
 842 799 842 799 842 775 c 0,63,64
 842 765 842 765 834 757 c 0,65,66
 807 730 807 730 788 708 c 128,-1,67
 769 686 769 686 756 668.5 c 128,-1,68
 743 651 743 651 734.5 638 c 128,-1,69
 726 625 726 625 720 615 c 2,70,-1
 721 616 l 1,35,36
EndSplineSet
EndChar

StartChar: guillemotright
Encoding: 187 187 425
Width: 836
Flags: W
LayerCount: 2
Fore
SplineSet
573 622 m 1,0,1
 561 641 561 641 537.5 674.5 c 128,-1,2
 514 708 514 708 460 762 c 0,3,4
 452 770 452 770 452 780 c 0,5,6
 452 804 452 804 487 804 c 0,7,8
 514 804 514 804 588 751 c 0,9,10
 631 719 631 719 668 683 c 128,-1,11
 705 647 705 647 732 610 c 0,12,13
 769 559 769 559 788.5 508 c 128,-1,14
 808 457 808 457 809 406 c 0,15,16
 809 287 809 287 718 179 c 1,17,-1
 718 180 l 1,18,19
 636 83 636 83 501 15 c 0,20,21
 487 9 487 9 481 9 c 0,22,23
 455 9 455 9 455 34 c 0,24,25
 458 42 458 42 467.5 57.5 c 128,-1,26
 477 73 477 73 497 96 c 1,27,-1
 497 95 l 1,28,29
 626 266 626 266 626 403 c 0,30,31
 626 515 626 515 572 623 c 1,32,-1
 573 622 l 1,0,1
297 622 m 1,33,34
 285 641 285 641 261.5 674.5 c 128,-1,35
 238 708 238 708 184 762 c 0,36,37
 176 770 176 770 176 780 c 0,38,39
 176 804 176 804 211 804 c 0,40,41
 238 804 238 804 312 751 c 0,42,43
 355 719 355 719 392 683 c 128,-1,44
 429 647 429 647 456 610 c 0,45,46
 493 559 493 559 512.5 508 c 128,-1,47
 532 457 532 457 533 406 c 0,48,49
 533 287 533 287 442 179 c 1,50,-1
 442 180 l 1,51,52
 360 83 360 83 225 15 c 0,53,54
 211 9 211 9 205 9 c 0,55,56
 179 9 179 9 179 34 c 0,57,58
 182 42 182 42 191.5 57.5 c 128,-1,59
 201 73 201 73 221 96 c 1,60,-1
 221 95 l 1,61,62
 350 266 350 266 350 403 c 0,63,64
 350 515 350 515 296 623 c 1,65,-1
 297 622 l 1,33,34
EndSplineSet
EndChar

StartChar: quoteleft
Encoding: 8216 8216 426
Width: 425
Flags: W
LayerCount: 2
Fore
SplineSet
121 959 m 0,0,1
 122 1034 122 1034 173 1107.5 c 128,-1,2
 224 1181 224 1181 287 1211 c 1,3,-1
 323 1144 l 1,4,5
 305 1134 305 1134 279.5 1106 c 128,-1,6
 254 1078 254 1078 242 1034 c 1,7,8
 319 1001 319 1001 315 938 c 0,9,10
 315 919 315 919 307.5 902 c 128,-1,11
 300 885 300 885 287 872.5 c 128,-1,12
 274 860 274 860 257 852.5 c 128,-1,13
 240 845 240 845 221 845 c 0,14,15
 198 845 198 845 179.5 855 c 128,-1,16
 161 865 161 865 148 881 c 128,-1,17
 135 897 135 897 128 917.5 c 128,-1,18
 121 938 121 938 121 959 c 0,0,1
EndSplineSet
EndChar

StartChar: quoteright
Encoding: 8217 8217 427
Width: 418
Flags: W
LayerCount: 2
Fore
SplineSet
323 1097 m 0,0,1
 321 1022 321 1022 270 948.5 c 128,-1,2
 219 875 219 875 157 845 c 1,3,-1
 121 912 l 1,4,5
 140 922 140 922 165.5 950 c 128,-1,6
 191 978 191 978 202 1022 c 1,7,8
 126 1055 126 1055 129 1118 c 0,9,10
 129 1137 129 1137 136.5 1153.5 c 128,-1,11
 144 1170 144 1170 156.5 1183 c 128,-1,12
 169 1196 169 1196 186 1203.5 c 128,-1,13
 203 1211 203 1211 222 1211 c 0,14,15
 246 1211 246 1211 265 1201 c 128,-1,16
 284 1191 284 1191 296.5 1175 c 128,-1,17
 309 1159 309 1159 316 1138.5 c 128,-1,18
 323 1118 323 1118 323 1097 c 0,0,1
EndSplineSet
EndChar

StartChar: afii57451
Encoding: 1611 1611 428
Width: 0
GlyphClass: 4
Flags: W
AnchorPoint: "Anchor-2" 0 0 mark 0
AnchorPoint: "Anchor-0" 0 0 mark 0
LayerCount: 2
Fore
SplineSet
234 258 m 1,0,-1
 207 137 l 1,1,-1
 -250 -5 l 1,2,-1
 -232 116 l 1,3,-1
 234 258 l 1,0,-1
234 464 m 1,4,-1
 207 344 l 1,5,-1
 -250 202 l 1,6,-1
 -232 322 l 1,7,-1
 234 464 l 1,4,-1
EndSplineSet
EndChar

StartChar: afii57454
Encoding: 1614 1614 429
Width: 0
GlyphClass: 4
Flags: W
AnchorPoint: "Anchor-2" 0 0 mark 0
AnchorPoint: "Anchor-0" 0 0 mark 0
LayerCount: 2
Fore
SplineSet
234 263 m 1,0,-1
 207 143 l 1,1,-1
 -250 1 l 1,2,-1
 -232 121 l 1,3,-1
 234 263 l 1,0,-1
EndSplineSet
EndChar

StartChar: afii57455
Encoding: 1615 1615 430
Width: 0
GlyphClass: 4
Flags: W
AnchorPoint: "Anchor-2" 0 0 mark 0
AnchorPoint: "Anchor-0" 0 0 mark 0
LayerCount: 2
Fore
SplineSet
190 255 m 1,0,1
 190 203 190 203 132 113 c 1,2,-1
 39 152 l 1,3,4
 3 107 3 107 -73 57 c 0,5,6
 -170 -6 -170 -6 -242 -6 c 0,7,8
 -258 -6 -258 -6 -276 91 c 1,9,10
 -114 133 -114 133 -53 219 c 1,11,12
 -114 275 -114 275 -114 357 c 0,13,14
 -114 436 -114 436 -71 507 c 0,15,16
 -21 591 -21 591 50 591 c 0,17,18
 163 591 163 591 163 447 c 0,19,20
 163 361 163 361 125 284 c 1,21,22
 141 269 141 269 190 255 c 1,0,1
48 329 m 1,23,24
 73 366 73 366 73 402 c 0,25,26
 73 476 73 476 21 476 c 0,27,28
 -19 476 -19 476 -19 411 c 0,29,30
 -19 388 -19 388 3 362 c 128,-1,31
 25 336 25 336 48 329 c 1,23,24
EndSplineSet
EndChar

StartChar: afii57452
Encoding: 1612 1612 431
Width: 0
GlyphClass: 4
Flags: W
AnchorPoint: "Anchor-2" 0 0 mark 0
AnchorPoint: "Anchor-0" 0 0 mark 0
LayerCount: 2
Fore
SplineSet
178 261 m 1,0,1
 178 209 178 209 120 119 c 1,2,-1
 27 158 l 1,3,4
 -9 113 -9 113 -85 63 c 0,5,6
 -182 0 -182 0 -254 0 c 0,7,8
 -270 0 -270 0 -288 97 c 1,9,10
 -279 99 -279 99 -239 117 c 1,11,12
 -236 144 -236 144 -236 167 c 0,13,14
 -236 241 -236 241 -279 241 c 0,15,16
 -296 241 -296 241 -320 208.5 c 128,-1,17
 -344 176 -344 176 -347 176 c 0,18,19
 -376 176 -376 176 -376 252 c 0,20,21
 -376 295 -376 295 -340.5 341 c 128,-1,22
 -305 387 -305 387 -263 387 c 0,23,24
 -215 387 -215 387 -185 347.5 c 128,-1,25
 -155 308 -155 308 -155 259 c 0,26,27
 -155 176 -155 176 -167 144 c 1,28,29
 -92 185 -92 185 -65 225 c 1,30,31
 -126 281 -126 281 -126 363 c 0,32,33
 -126 442 -126 442 -83 513 c 0,34,35
 -33 597 -33 597 38 597 c 0,36,37
 151 597 151 597 151 453 c 0,38,39
 151 367 151 367 113 290 c 1,40,41
 129 275 129 275 178 261 c 1,0,1
36 335 m 1,42,43
 61 372 61 372 61 408 c 0,44,45
 61 482 61 482 9 482 c 0,46,47
 -31 482 -31 482 -31 417 c 0,48,49
 -31 394 -31 394 -9 368 c 128,-1,50
 13 342 13 342 36 335 c 1,42,43
EndSplineSet
EndChar

StartChar: afii57456
Encoding: 1616 1616 432
Width: 0
GlyphClass: 4
Flags: W
AnchorPoint: "Anchor-3" 0 0 mark 0
AnchorPoint: "Anchor-1" 0 0 mark 0
LayerCount: 2
Fore
SplineSet
234 263 m 1,0,-1
 207 143 l 1,1,-1
 -250 1 l 1,2,-1
 -232 121 l 1,3,-1
 234 263 l 1,0,-1
EndSplineSet
EndChar

StartChar: afii57457
Encoding: 1617 1617 433
Width: 0
GlyphClass: 4
Flags: W
AnchorPoint: "Anchor-2" 0 0 mark 0
AnchorPoint: "Anchor-0" 0 0 mark 0
LayerCount: 2
Fore
SplineSet
207 260 m 0,0,1
 210 239 210 239 210 217 c 0,2,3
 210 148 210 148 179 94 c 0,4,5
 141 29 141 29 76 29 c 0,6,7
 48 29 48 29 18.5 46 c 128,-1,8
 -11 63 -11 63 -11 63 c 1,9,10
 -24 50 -24 50 -36 38 c 0,11,12
 -63 14 -63 14 -111 6 c 0,13,14
 -122 4 -122 4 -132 4 c 0,15,16
 -182 4 -182 4 -215 47 c 0,17,18
 -244 86 -244 86 -244 138 c 0,19,20
 -244 182 -244 182 -225 239 c 1,21,-1
 -118 230 l 1,22,23
 -132 170 -132 170 -129 152 c 0,24,25
 -128 135 -128 135 -103 135 c 0,26,27
 -57 135 -57 135 -57 203 c 0,28,29
 -57 223 -57 223 -60 250 c 1,30,-1
 49 255 l 1,31,32
 56 229 56 229 53 207 c 0,33,34
 49 173 49 173 49 186 c 1,35,36
 49 181 49 181 60.5 173 c 128,-1,37
 72 165 72 165 84 167 c 0,38,39
 110 171 110 171 110 198 c 0,40,41
 110 226 110 226 79 291 c 1,42,-1
 186 339 l 1,43,44
 195 312 195 312 207 260 c 0,0,1
EndSplineSet
EndChar

StartChar: afii57458
Encoding: 1618 1618 434
Width: 0
GlyphClass: 4
Flags: W
AnchorPoint: "Anchor-2" 0 0 mark 0
AnchorPoint: "Anchor-0" 0 0 mark 0
LayerCount: 2
Fore
SplineSet
164 223 m 0,0,1
 164 136 164 136 121 74 c 0,2,3
 73 4 73 4 -9 4 c 0,4,5
 -194 4 -194 4 -194 225 c 0,6,7
 -194 291 -194 291 -146 367 c 0,8,9
 -94 450 -94 450 -32 450 c 0,10,11
 52 450 52 450 110 377 c 0,12,13
 164 309 164 309 164 223 c 0,0,1
72 205 m 1,14,15
 34 290 34 290 -50 290 c 0,16,17
 -70 290 -70 290 -89 272.5 c 128,-1,18
 -108 255 -108 255 -108 234 c 0,19,20
 -108 176 -108 176 -36 176 c 0,21,22
 40 176 40 176 72 205 c 1,14,15
EndSplineSet
EndChar

StartChar: exclam
Encoding: 33 33 437
Width: 413
GlyphClass: 2
Flags: W
LayerCount: 2
Fore
SplineSet
384 338 m 1,0,-1
 187 288 l 1,1,2
 214 463 214 463 200 719 c 0,3,4
 195 817 195 817 150 1110 c 1,5,-1
 359 1171 l 1,6,7
 413 979 413 979 413 667 c 0,8,9
 413 499 413 499 384 338 c 1,0,-1
406 -19 m 1,10,-1
 165 -19 l 1,11,-1
 165 221 l 1,12,-1
 406 221 l 1,13,-1
 406 -19 l 1,10,-1
EndSplineSet
EndChar

StartChar: afii64060
Encoding: 64830 64830 438
Width: 673
GlyphClass: 2
Flags: W
LayerCount: 2
Fore
SplineSet
578 973 m 1,0,1
 475 900 475 900 416.5 785.5 c 128,-1,2
 358 671 358 671 358 546 c 0,3,4
 358 423 358 423 416.5 309.5 c 128,-1,5
 475 196 475 196 578 124 c 1,6,-1
 578 -102 l 1,7,8
 401 -64 401 -64 272 141 c 0,9,10
 150 336 150 336 150 548 c 0,11,12
 150 767 150 767 272 960 c 0,13,14
 399 1160 399 1160 578 1198 c 1,15,-1
 578 973 l 1,16,-1
 578 973 l 1,0,1
EndSplineSet
EndChar

StartChar: afii64061
Encoding: 64831 64831 439
Width: 673
GlyphClass: 2
Flags: W
LayerCount: 2
Fore
SplineSet
578 548 m 0,0,1
 578 336 578 336 455 141 c 0,2,3
 327 -64 327 -64 150 -102 c 1,4,-1
 150 124 l 1,5,6
 253 196 253 196 311.5 309.5 c 128,-1,7
 370 423 370 423 370 546 c 0,8,9
 370 671 370 671 311.5 785.5 c 128,-1,10
 253 900 253 900 150 973 c 1,11,-1
 150 1198 l 1,12,13
 328 1160 328 1160 455 960 c 0,14,15
 578 767 578 767 578 548 c 0,0,1
EndSplineSet
EndChar

StartChar: afii62821
Encoding: 65252 65252 440
Width: 966
GlyphClass: 2
Flags: W
AnchorPoint: "Anchor-3" 480 -690 basechar 0
AnchorPoint: "Anchor-2" 510 1065 basechar 0
LayerCount: 2
Fore
SplineSet
622 320 m 0,0,1
 622 358 622 358 569 402 c 0,2,3
 521 441 521 441 471 456 c 1,4,-1
 411 299 l 1,5,6
 475 260 475 260 542 260 c 0,7,8
 622 260 622 260 622 320 c 0,0,1
220 371 m 0,9,10
 243 416 243 416 277 532 c 0,11,12
 308 634 308 634 336 674 c 0,13,14
 378 735 378 735 452 735 c 0,15,16
 557 735 557 735 699 598 c 0,17,18
 846 454 846 454 846 327 c 1,19,20
 857 283 857 283 917 283 c 2,21,-1
 986 283 l 1,22,-1
 986 0 l 1,23,-1
 937 0 l 2,24,25
 893 0 893 0 854.5 36 c 128,-1,26
 816 72 816 72 805 118 c 1,27,28
 743 46 743 46 667 15 c 0,29,30
 599 -13 599 -13 483 -21 c 0,31,32
 388 -28 388 -28 351 22 c 0,33,34
 331 51 331 51 315 141 c 1,35,36
 180 0 180 0 35 0 c 2,37,-1
 -19 0 l 1,38,-1
 -19 283 l 1,39,-1
 38 283 l 2,40,41
 174 283 174 283 220 371 c 0,9,10
EndSplineSet
EndChar

StartChar: uni25CC
Encoding: 9676 9676 441
Width: 911
Flags: W
AnchorPoint: "Anchor-3" 435 -450 basechar 0
AnchorPoint: "Anchor-2" 465 975 basechar 0
LayerCount: 2
Fore
SplineSet
771 629 m 256,0,1
 771 592 771 592 734 592 c 0,2,3
 695 592 695 592 695 629 c 256,4,5
 695 666 695 666 734 666 c 0,6,7
 771 666 771 666 771 629 c 256,0,1
658 703 m 0,8,9
 658 666 658 666 621 666 c 0,10,11
 582 666 582 666 582 703 c 0,12,13
 582 742 582 742 621 742 c 0,14,15
 658 742 658 742 658 703 c 0,8,9
847 516 m 0,16,17
 847 477 847 477 808 477 c 0,18,19
 771 477 771 477 771 516 c 0,20,21
 771 553 771 553 810 553 c 0,22,23
 847 553 847 553 847 516 c 0,16,17
873 384 m 256,24,25
 873 347 873 347 836 347 c 0,26,27
 797 347 797 347 797 384 c 256,28,29
 797 421 797 421 836 421 c 0,30,31
 873 421 873 421 873 384 c 256,24,25
525 731 m 0,32,33
 525 692 525 692 488 692 c 256,34,35
 451 692 451 692 451 731 c 0,36,37
 451 768 451 768 488 768 c 256,38,39
 525 768 525 768 525 731 c 0,32,33
847 251 m 0,40,41
 847 214 847 214 808 214 c 0,42,43
 771 214 771 214 771 251 c 0,44,45
 771 290 771 290 808 290 c 0,46,47
 847 290 847 290 847 251 c 0,40,41
394 703 m 0,48,49
 394 666 394 666 356 666 c 0,50,51
 319 666 319 666 319 703 c 0,52,53
 319 742 319 742 356 742 c 0,54,55
 394 742 394 742 394 703 c 0,48,49
282 629 m 256,56,57
 282 592 282 592 243 592 c 0,58,59
 206 592 206 592 206 627 c 0,60,61
 206 666 206 666 243 666 c 0,62,63
 282 666 282 666 282 629 c 256,56,57
771 138 m 0,64,65
 771 101 771 101 734 101 c 256,66,67
 697 101 697 101 697 138 c 0,68,69
 697 177 697 177 734 177 c 256,70,71
 771 177 771 177 771 138 c 0,64,65
658 64 m 0,72,73
 658 27 658 27 621 27 c 256,74,75
 584 27 584 27 584 64 c 0,76,77
 584 103 584 103 621 103 c 256,78,79
 658 103 658 103 658 64 c 0,72,73
206 516 m 0,80,81
 206 477 206 477 171 477 c 0,82,83
 132 477 132 477 132 516 c 0,84,85
 132 553 132 553 169 553 c 256,86,87
 206 553 206 553 206 516 c 0,80,81
180 384 m 256,88,89
 180 347 180 347 143 347 c 0,90,91
 104 347 104 347 104 384 c 256,92,93
 104 421 104 421 143 421 c 0,94,95
 180 421 180 421 180 384 c 256,88,89
525 38 m 0,96,97
 525 -1 525 -1 488 -1 c 256,98,99
 451 -1 451 -1 451 38 c 0,100,101
 451 75 451 75 488 75 c 256,102,103
 525 75 525 75 525 38 c 0,96,97
394 66 m 0,104,105
 394 27 394 27 356 27 c 0,106,107
 319 27 319 27 319 64 c 0,108,109
 319 103 319 103 356 103 c 0,110,111
 394 103 394 103 394 66 c 0,104,105
206 251 m 0,112,113
 206 214 206 214 169 214 c 256,114,115
 132 214 132 214 132 251 c 0,116,117
 132 290 132 290 169 290 c 256,118,119
 206 290 206 290 206 251 c 0,112,113
282 138 m 0,120,121
 282 101 282 101 245 101 c 0,122,123
 206 101 206 101 206 138 c 0,124,125
 206 177 206 177 243 177 c 0,126,127
 282 177 282 177 282 138 c 0,120,121
EndSplineSet
EndChar

StartChar: afii62819
Encoding: 65246 65246 442
Width: 1720
GlyphClass: 2
Flags: W
AnchorPoint: "Anchor-3" 675 -1065 basechar 0
AnchorPoint: "Anchor-2" 1245 1380 basechar 0
LayerCount: 2
Fore
SplineSet
1362 446 m 0,0,1
 1362 674 1362 674 1273 1170 c 1,2,-1
 1520 1246 l 1,3,4
 1588 872 1588 872 1588 571 c 0,5,6
 1588 351 1588 351 1585 326 c 1,7,8
 1602 282 1602 282 1665 282 c 2,9,-1
 1739 282 l 1,10,-1
 1739 0 l 1,11,-1
 1677 0 l 2,12,13
 1605 0 1605 0 1549 60 c 1,14,15
 1531 -12 1531 -12 1511 -70 c 0,16,17
 1437 -278 1437 -278 1233 -420 c 0,18,19
 1017 -569 1017 -569 754 -569 c 0,20,21
 477 -569 477 -569 310 -428 c 0,22,23
 149 -292 149 -292 149 -77 c 0,24,25
 149 137 149 137 356 345 c 0,26,27
 531 522 531 522 826 669 c 1,28,-1
 826 394 l 1,29,30
 662 330 662 330 515 214 c 0,31,32
 337 76 337 76 337 -35 c 0,33,34
 337 -143 337 -143 472 -209 c 0,35,36
 602 -273 602 -273 797 -273 c 0,37,38
 1005 -273 1005 -273 1125 -215 c 0,39,40
 1197 -180 1197 -180 1273 -95 c 0,41,42
 1362 4 1362 4 1362 446 c 0,0,1
EndSplineSet
EndChar

StartChar: braceright
Encoding: 125 125 445
Width: 672
GlyphClass: 2
Flags: W
LayerCount: 2
Fore
SplineSet
273 224 m 2,0,1
 273 277 273 277 282 314 c 128,-1,2
 291 351 291 351 314 376.5 c 128,-1,3
 337 402 337 402 376 418 c 128,-1,4
 415 434 415 434 474 447 c 1,5,6
 414 460 414 460 375 476 c 128,-1,7
 336 492 336 492 313.5 517 c 128,-1,8
 291 542 291 542 282 578.5 c 128,-1,9
 273 615 273 615 273 669 c 2,10,-1
 273 960 l 2,11,12
 273 1008 273 1008 264 1043 c 128,-1,13
 255 1078 255 1078 233.5 1103 c 128,-1,14
 212 1128 212 1128 177 1143.5 c 128,-1,15
 142 1159 142 1159 92 1170 c 1,16,-1
 92 1191 l 1,17,18
 150 1190 150 1190 192.5 1187.5 c 128,-1,19
 235 1185 235 1185 267 1179 c 128,-1,20
 299 1173 299 1173 322.5 1163.5 c 128,-1,21
 346 1154 346 1154 367 1141 c 0,22,23
 453 1088 453 1088 453 951 c 2,24,-1
 453 645 l 2,25,26
 453 600 453 600 460.5 568.5 c 128,-1,27
 468 537 468 537 489 514.5 c 128,-1,28
 510 492 510 492 545 476.5 c 128,-1,29
 580 461 580 461 635 447 c 1,30,31
 580 433 580 433 545 418 c 128,-1,32
 510 403 510 403 489 380.5 c 128,-1,33
 468 358 468 358 460.5 326 c 128,-1,34
 453 294 453 294 453 249 c 2,35,-1
 453 -57 l 2,36,37
 453 -196 453 -196 367 -249 c 0,38,39
 346 -263 346 -263 322 -272 c 128,-1,40
 298 -281 298 -281 266 -286.5 c 128,-1,41
 234 -292 234 -292 191.5 -295 c 128,-1,42
 149 -298 149 -298 92 -298 c 1,43,-1
 92 -278 l 1,44,45
 143 -268 143 -268 178 -251.5 c 128,-1,46
 213 -235 213 -235 234 -210 c 128,-1,47
 255 -185 255 -185 264 -150.5 c 128,-1,48
 273 -116 273 -116 273 -67 c 2,49,-1
 273 224 l 2,0,1
EndSplineSet
EndChar

StartChar: uni0656
Encoding: 1622 1622 452
Width: 0
GlyphClass: 4
Flags: W
AnchorPoint: "Anchor-3" 0 0 mark 0
AnchorPoint: "Anchor-1" 0 0 mark 0
LayerCount: 2
Fore
SplineSet
50 28 m 1,0,-1
 -25 -5 l 1,1,2
 -26 30 -26 30 -30 66 c 0,3,4
 -41 154 -41 154 -69 317 c 1,5,-1
 12 368 l 1,6,7
 57 155 57 155 57 75 c 0,8,9
 57 42 57 42 50 28 c 1,0,-1
EndSplineSet
EndChar

StartChar: E005
Encoding: 65578 -1 470
Width: 476
GlyphClass: 3
Flags: W
LayerCount: 2
Fore
SplineSet
-43 0 m 1,0,-1
 -43 207 l 1,1,-1
 581 207 l 1,2,-1
 581 0 l 1,3,-1
 -43 0 l 1,0,-1
EndSplineSet
EndChar

StartChar: afii57470
Encoding: 1726 1726 480
Width: 927
Flags: W
AnchorPoint: "Anchor-3" 330 -540 basechar 0
AnchorPoint: "Anchor-2" 405 1095 basechar 0
LayerCount: 2
Fore
SplineSet
927 348 m 0,0,1
 927 286 927 286 860 154 c 0,2,3
 785 4 785 4 719 4 c 0,4,5
 643 4 643 4 547 30 c 0,6,7
 447 58 447 58 383 99 c 1,8,9
 326 57 326 57 210 28 c 0,10,11
 101 0 101 0 11 0 c 2,12,-1
 -19 0 l 1,13,-1
 -19 283 l 1,14,-1
 44 283 l 2,15,16
 108 283 108 283 163 304 c 1,17,18
 117 356 117 356 117 407 c 0,19,20
 117 507 117 507 179 599 c 1,21,-1
 116 630 l 1,22,-1
 116 901 l 1,23,24
 394 812 394 812 631 671 c 0,25,26
 927 493 927 493 927 348 c 0,0,1
671 256 m 0,27,28
 683 274 683 274 683 294 c 0,29,30
 683 360 683 360 594 406 c 1,31,32
 582 332 582 332 519 250 c 1,33,34
 573 233 573 233 612 233 c 0,35,36
 656 233 656 233 671 256 c 0,27,28
331 361 m 1,37,38
 406 404 406 404 419 495 c 1,39,40
 368 516 368 516 323 516 c 0,41,42
 279 516 279 516 266 489 c 0,43,44
 258 471 258 471 258 454 c 0,45,46
 258 398 258 398 331 361 c 1,37,38
EndSplineSet
Substitution2: "'medi' Medial Forms in Arabic lookup 3 subtable" afii62827
Substitution2: "'fina' Terminal Forms in Arabic lookup 2 subtable" afii62827
Substitution2: "'init' Initial Forms in Arabic lookup 1 subtable" afii57470
EndChar

StartChar: at
Encoding: 64 64 489
Width: 1587
Flags: W
LayerCount: 2
Fore
SplineSet
1034 863 m 1,0,-1
 1154 863 l 1,1,-1
 1042 419 l 2,2,3
 1041 414 1041 414 1040 405.5 c 128,-1,4
 1039 397 1039 397 1039 389 c 0,5,6
 1039 308 1039 308 1103 308 c 0,7,8
 1146 308 1146 308 1185.5 337 c 128,-1,9
 1225 366 1225 366 1255.5 414.5 c 128,-1,10
 1286 463 1286 463 1304 526 c 128,-1,11
 1322 589 1322 589 1322 657 c 0,12,13
 1322 749 1322 749 1282.5 831.5 c 128,-1,14
 1243 914 1243 914 1175.5 976.5 c 128,-1,15
 1108 1039 1108 1039 1018.5 1075.5 c 128,-1,16
 929 1112 929 1112 829 1112 c 0,17,18
 723 1112 723 1112 633.5 1070.5 c 128,-1,19
 544 1029 544 1029 479 955 c 128,-1,20
 414 881 414 881 377.5 778.5 c 128,-1,21
 341 676 341 676 341 555 c 0,22,23
 341 443 341 443 378.5 350 c 128,-1,24
 416 257 416 257 484 189.5 c 128,-1,25
 552 122 552 122 646 84 c 128,-1,26
 740 46 740 46 852 46 c 0,27,28
 894 46 894 46 933 50.5 c 128,-1,29
 972 55 972 55 1012 64.5 c 128,-1,30
 1052 74 1052 74 1095.5 90.5 c 128,-1,31
 1139 107 1139 107 1191 130 c 1,32,-1
 1213 70 l 1,33,34
 1151 40 1151 40 1101.5 20.5 c 128,-1,35
 1052 1 1052 1 1007 -11 c 128,-1,36
 962 -23 962 -23 920 -27.5 c 128,-1,37
 878 -32 878 -32 830 -32 c 0,38,39
 694 -32 694 -32 576.5 14 c 128,-1,40
 459 60 459 60 371.5 140 c 128,-1,41
 284 220 284 220 234 329 c 128,-1,42
 184 438 184 438 184 563 c 0,43,44
 184 692 184 692 234 804 c 128,-1,45
 284 916 284 916 371.5 999.5 c 128,-1,46
 459 1083 459 1083 576 1131 c 128,-1,47
 693 1179 693 1179 827 1179 c 0,48,49
 949 1179 949 1179 1054 1139.5 c 128,-1,50
 1159 1100 1159 1100 1236.5 1030.5 c 128,-1,51
 1314 961 1314 961 1358 867.5 c 128,-1,52
 1402 774 1402 774 1402 665 c 0,53,54
 1402 580 1402 580 1376 503.5 c 128,-1,55
 1350 427 1350 427 1306 369.5 c 128,-1,56
 1262 312 1262 312 1203.5 278 c 128,-1,57
 1145 244 1145 244 1080 244 c 256,58,59
 1015 244 1015 244 971.5 279 c 128,-1,60
 928 314 928 314 919 371 c 1,61,62
 874 313 874 313 817 279.5 c 128,-1,63
 760 246 760 246 705 246 c 0,64,65
 670 246 670 246 641 260.5 c 128,-1,66
 612 275 612 275 590 301.5 c 128,-1,67
 568 328 568 328 556 364 c 128,-1,68
 544 400 544 400 544 441 c 0,69,70
 544 489 544 489 553.5 537 c 128,-1,71
 563 585 563 585 582 631 c 128,-1,72
 601 677 601 677 627.5 719 c 128,-1,73
 654 761 654 761 687 797 c 0,74,75
 728 839 728 839 781 862.5 c 128,-1,76
 834 886 834 886 891 886 c 0,77,78
 914 886 914 886 931.5 882 c 128,-1,79
 949 878 949 878 962.5 867.5 c 128,-1,80
 976 857 976 857 989 839.5 c 128,-1,81
 1002 822 1002 822 1015 795 c 1,82,-1
 1034 863 l 1,0,-1
913 804 m 0,83,84
 880 807 880 807 840.5 783 c 128,-1,85
 801 759 801 759 764 716 c 0,86,87
 720 667 720 667 697.5 604.5 c 128,-1,88
 675 542 675 542 675 472 c 0,89,90
 675 405 675 405 702 365 c 128,-1,91
 729 325 729 325 776 325 c 0,92,93
 814 325 814 325 851 355.5 c 128,-1,94
 888 386 888 386 916 441 c 0,95,96
 930 467 930 467 942 499 c 128,-1,97
 954 531 954 531 963 564.5 c 128,-1,98
 972 598 972 598 977.5 630.5 c 128,-1,99
 983 663 983 663 985 692 c 0,100,101
 987 742 987 742 969 772 c 128,-1,102
 951 802 951 802 913 804 c 0,83,84
EndSplineSet
EndChar

StartChar: A
Encoding: 65 65 490
Width: 1232
Flags: W
LayerCount: 2
Fore
SplineSet
1175 0 m 1,0,-1
 623 0 l 1,1,-1
 623 42 l 1,2,3
 641 45 641 45 656 46 c 128,-1,4
 671 47 671 47 677 47 c 0,5,6
 722 50 722 50 740.5 63.5 c 128,-1,7
 759 77 759 77 759 104 c 0,8,9
 759 118 759 118 755 137.5 c 128,-1,10
 751 157 751 157 741.5 184.5 c 128,-1,11
 732 212 732 212 717 249 c 128,-1,12
 702 286 702 286 680 336 c 1,13,-1
 297 336 l 1,14,-1
 271 269 l 2,15,16
 258 235 258 235 248.5 209 c 128,-1,17
 239 183 239 183 233 164.5 c 128,-1,18
 227 146 227 146 224 134 c 128,-1,19
 221 122 221 122 221 113 c 0,20,21
 221 79 221 79 253 63 c 128,-1,22
 285 47 285 47 362 42 c 1,23,-1
 362 0 l 1,24,-1
 15 0 l 1,25,-1
 15 42 l 1,26,27
 45 48 45 48 66 58 c 128,-1,28
 87 68 87 68 104.5 89 c 128,-1,29
 122 110 122 110 140 146 c 128,-1,30
 158 182 158 182 182 242 c 2,31,-1
 562 1177 l 1,32,-1
 609 1177 l 1,33,-1
 990 280 l 2,34,35
 1021 205 1021 205 1043.5 158 c 128,-1,36
 1066 111 1066 111 1085.5 85.5 c 128,-1,37
 1105 60 1105 60 1124.5 51 c 128,-1,38
 1144 42 1144 42 1169 42 c 2,39,-1
 1175 42 l 1,40,-1
 1175 0 l 1,0,-1
655 403 m 1,41,-1
 483 817 l 1,42,-1
 322 403 l 1,43,-1
 655 403 l 1,41,-1
EndSplineSet
EndChar

StartChar: B
Encoding: 66 66 491
Width: 1138
Flags: W
LayerCount: 2
Fore
SplineSet
555 1152 m 2,0,1
 768 1152 768 1152 883 1082 c 128,-1,2
 998 1012 998 1012 998 880 c 0,3,4
 998 831 998 831 983 793.5 c 128,-1,5
 968 756 968 756 936 725 c 128,-1,6
 904 694 904 694 852.5 669.5 c 128,-1,7
 801 645 801 645 726 623 c 1,8,9
 771 613 771 613 805.5 603 c 128,-1,10
 840 593 840 593 867.5 581 c 128,-1,11
 895 569 895 569 918 554 c 128,-1,12
 941 539 941 539 963 520 c 0,13,14
 1009 480 1009 480 1032.5 429 c 128,-1,15
 1056 378 1056 378 1056 320 c 0,16,17
 1056 248 1056 248 1022 189 c 128,-1,18
 988 130 988 130 924.5 88 c 128,-1,19
 861 46 861 46 772.5 23 c 128,-1,20
 684 0 684 0 576 0 c 2,21,-1
 27 0 l 1,22,-1
 27 42 l 1,23,24
 74 48 74 48 103 55.5 c 128,-1,25
 132 63 132 63 149 76 c 128,-1,26
 166 89 166 89 171.5 110 c 128,-1,27
 177 131 177 131 177 164 c 2,28,-1
 177 990 l 2,29,30
 177 1022 177 1022 170.5 1044 c 128,-1,31
 164 1066 164 1066 146.5 1080 c 128,-1,32
 129 1094 129 1094 100.5 1100.5 c 128,-1,33
 72 1107 72 1107 27 1110 c 1,34,-1
 27 1152 l 1,35,-1
 555 1152 l 2,0,1
451 158 m 2,36,37
 451 102 451 102 474.5 78.5 c 128,-1,38
 498 55 498 55 555 55 c 0,39,40
 762 55 762 55 762 306 c 0,41,42
 762 585 762 585 502 585 c 2,43,-1
 451 585 l 1,44,-1
 451 158 l 2,36,37
451 636 m 1,45,46
 529 638 529 638 580.5 649.5 c 128,-1,47
 632 661 632 661 662 687 c 128,-1,48
 692 713 692 713 704 757 c 128,-1,49
 716 801 716 801 716 868 c 0,50,51
 716 990 716 990 674.5 1046 c 128,-1,52
 633 1102 633 1102 542 1102 c 0,53,54
 492 1102 492 1102 471.5 1083.5 c 128,-1,55
 451 1065 451 1065 451 1019 c 2,56,-1
 451 636 l 1,45,46
EndSplineSet
EndChar

StartChar: C
Encoding: 67 67 492
Width: 1232
Flags: W
LayerCount: 2
Fore
SplineSet
1172 217 m 1,0,1
 1144 184 1144 184 1121.5 161 c 128,-1,2
 1099 138 1099 138 1079 120 c 128,-1,3
 1059 102 1059 102 1041 87.5 c 128,-1,4
 1023 73 1023 73 1003 60 c 0,5,6
 932 13 932 13 855.5 -9.5 c 128,-1,7
 779 -32 779 -32 687 -32 c 0,8,9
 555 -32 555 -32 444 12.5 c 128,-1,10
 333 57 333 57 252.5 136.5 c 128,-1,11
 172 216 172 216 127.5 326 c 128,-1,12
 83 436 83 436 83 568 c 0,13,14
 83 699 83 699 128 810.5 c 128,-1,15
 173 922 173 922 252.5 1004 c 128,-1,16
 332 1086 332 1086 441 1132.5 c 128,-1,17
 550 1179 550 1179 677 1179 c 0,18,19
 739 1179 739 1179 802 1165 c 128,-1,20
 865 1151 865 1151 941 1119 c 0,21,22
 970 1106 970 1106 989 1101 c 128,-1,23
 1008 1096 1008 1096 1020 1096 c 0,24,25
 1045 1096 1045 1096 1061 1112 c 128,-1,26
 1077 1128 1077 1128 1096 1174 c 1,27,-1
 1141 1174 l 1,28,-1
 1141 774 l 1,29,-1
 1099 774 l 1,30,31
 1076 822 1076 822 1056.5 858.5 c 128,-1,32
 1037 895 1037 895 1017.5 924.5 c 128,-1,33
 998 954 998 954 976 978 c 128,-1,34
 954 1002 954 1002 926 1027 c 0,35,36
 870 1076 870 1076 815 1099.5 c 128,-1,37
 760 1123 760 1123 700 1123 c 0,38,39
 545 1123 545 1123 465.5 985.5 c 128,-1,40
 386 848 386 848 386 581 c 0,41,42
 386 453 386 453 403.5 359.5 c 128,-1,43
 421 266 421 266 459 198 c 0,44,45
 477 165 477 165 505.5 137.5 c 128,-1,46
 534 110 534 110 569.5 90.5 c 128,-1,47
 605 71 605 71 645.5 60 c 128,-1,48
 686 49 686 49 728 49 c 0,49,50
 764 49 764 49 804.5 57 c 128,-1,51
 845 65 845 65 882 80 c 0,52,53
 913 92 913 92 940 107 c 128,-1,54
 967 122 967 122 994.5 142.5 c 128,-1,55
 1022 163 1022 163 1052.5 191 c 128,-1,56
 1083 219 1083 219 1121 259 c 1,57,-1
 1172 217 l 1,0,1
EndSplineSet
EndChar

StartChar: D
Encoding: 68 68 493
Width: 1232
Flags: W
LayerCount: 2
Fore
SplineSet
166 997 m 2,0,1
 166 1026 166 1026 159 1045.5 c 128,-1,2
 152 1065 152 1065 136 1078.5 c 128,-1,3
 120 1092 120 1092 93 1099 c 128,-1,4
 66 1106 66 1106 24 1110 c 1,5,-1
 24 1152 l 1,6,-1
 544 1152 l 2,7,8
 692 1152 692 1152 809 1113.5 c 128,-1,9
 926 1075 926 1075 1008 1002 c 128,-1,10
 1090 929 1090 929 1133.5 824.5 c 128,-1,11
 1177 720 1177 720 1177 589 c 0,12,13
 1177 457 1177 457 1133 348 c 128,-1,14
 1089 239 1089 239 1008 162 c 128,-1,15
 927 85 927 85 814.5 42.5 c 128,-1,16
 702 0 702 0 563 0 c 2,17,-1
 24 0 l 1,18,-1
 24 42 l 1,19,20
 98 45 98 45 132 72 c 128,-1,21
 166 99 166 99 166 155 c 2,22,-1
 166 997 l 2,0,1
441 158 m 2,23,24
 441 129 441 129 446 110 c 128,-1,25
 451 91 451 91 462 80 c 128,-1,26
 473 69 473 69 492.5 64.5 c 128,-1,27
 512 60 512 60 541 60 c 0,28,29
 706 60 706 60 791 177 c 0,30,31
 811 206 811 206 828 247 c 128,-1,32
 845 288 845 288 856.5 338 c 128,-1,33
 868 388 868 388 874 445.5 c 128,-1,34
 880 503 880 503 880 563 c 0,35,36
 880 671 880 671 862.5 762 c 128,-1,37
 845 853 845 853 810 921 c 0,38,39
 766 1010 766 1010 700.5 1053 c 128,-1,40
 635 1096 635 1096 542 1096 c 0,41,42
 441 1096 441 1096 441 1036 c 2,43,-1
 441 158 l 2,23,24
EndSplineSet
EndChar

StartChar: E
Encoding: 69 69 494
Width: 1138
Flags: W
LayerCount: 2
Fore
SplineSet
1011 810 m 1,0,-1
 969 810 l 1,1,2
 953 896 953 896 927 950.5 c 128,-1,3
 901 1005 901 1005 855 1037.5 c 128,-1,4
 809 1070 809 1070 738.5 1083 c 128,-1,5
 668 1096 668 1096 564 1096 c 0,6,7
 531 1096 531 1096 509.5 1092.5 c 128,-1,8
 488 1089 488 1089 476 1080 c 128,-1,9
 464 1071 464 1071 459 1055.5 c 128,-1,10
 454 1040 454 1040 454 1015 c 2,11,-1
 454 619 l 1,12,13
 522 618 522 618 570.5 630.5 c 128,-1,14
 619 643 619 643 651.5 673 c 128,-1,15
 684 703 684 703 702 752 c 128,-1,16
 720 801 720 801 730 874 c 1,17,-1
 774 874 l 1,18,-1
 774 297 l 1,19,-1
 730 297 l 1,20,21
 722 371 722 371 704 421.5 c 128,-1,22
 686 472 686 472 653.5 503 c 128,-1,23
 621 534 621 534 572 548 c 128,-1,24
 523 562 523 562 454 562 c 1,25,-1
 454 148 l 2,26,27
 454 121 454 121 460.5 102.5 c 128,-1,28
 467 84 467 84 483.5 73 c 128,-1,29
 500 62 500 62 527.5 57.5 c 128,-1,30
 555 53 555 53 596 53 c 0,31,32
 693 53 693 53 765.5 74.5 c 128,-1,33
 838 96 838 96 897 143 c 0,34,35
 920 162 920 162 938.5 181 c 128,-1,36
 957 200 957 200 974.5 224.5 c 128,-1,37
 992 249 992 249 1009 280.5 c 128,-1,38
 1026 312 1026 312 1046 355 c 1,39,-1
 1094 355 l 1,40,-1
 1025 0 l 1,41,-1
 27 0 l 1,42,-1
 27 42 l 1,43,44
 74 48 74 48 103.5 55 c 128,-1,45
 133 62 133 62 149.5 75 c 128,-1,46
 166 88 166 88 171.5 109 c 128,-1,47
 177 130 177 130 177 164 c 2,48,-1
 177 990 l 2,49,50
 177 1022 177 1022 170.5 1044 c 128,-1,51
 164 1066 164 1066 146.5 1080 c 128,-1,52
 129 1094 129 1094 100.5 1100.5 c 128,-1,53
 72 1107 72 1107 27 1110 c 1,54,-1
 27 1152 l 1,55,-1
 1011 1152 l 1,56,-1
 1011 810 l 1,0,-1
EndSplineSet
EndChar

StartChar: F
Encoding: 70 70 495
Width: 1042
Flags: W
LayerCount: 2
Fore
SplineSet
995 810 m 1,0,-1
 954 810 l 1,1,2
 945 851 945 851 936.5 880.5 c 128,-1,3
 928 910 928 910 918.5 932.5 c 128,-1,4
 909 955 909 955 898.5 972.5 c 128,-1,5
 888 990 888 990 874 1006 c 0,6,7
 833 1052 833 1052 757 1074 c 128,-1,8
 681 1096 681 1096 563 1096 c 0,9,10
 530 1096 530 1096 509 1092 c 128,-1,11
 488 1088 488 1088 476 1079 c 128,-1,12
 464 1070 464 1070 459 1054.5 c 128,-1,13
 454 1039 454 1039 454 1015 c 2,14,-1
 454 619 l 1,15,16
 517 619 517 619 562 631.5 c 128,-1,17
 607 644 607 644 636.5 673.5 c 128,-1,18
 666 703 666 703 684.5 752 c 128,-1,19
 703 801 703 801 714 874 c 1,20,-1
 758 874 l 1,21,-1
 758 297 l 1,22,-1
 714 297 l 1,23,24
 706 371 706 371 688.5 421 c 128,-1,25
 671 471 671 471 641 502 c 128,-1,26
 611 533 611 533 565 546.5 c 128,-1,27
 519 560 519 560 454 562 c 1,28,-1
 454 164 l 2,29,30
 454 128 454 128 461 105.5 c 128,-1,31
 468 83 468 83 489 70 c 128,-1,32
 510 57 510 57 546 51 c 128,-1,33
 582 45 582 45 641 42 c 1,34,-1
 641 0 l 1,35,-1
 27 0 l 1,36,-1
 27 42 l 1,37,38
 74 48 74 48 103.5 55 c 128,-1,39
 133 62 133 62 149.5 75 c 128,-1,40
 166 88 166 88 171.5 109 c 128,-1,41
 177 130 177 130 177 164 c 2,42,-1
 177 990 l 2,43,44
 177 1023 177 1023 170.5 1045 c 128,-1,45
 164 1067 164 1067 146.5 1081 c 128,-1,46
 129 1095 129 1095 100.5 1101 c 128,-1,47
 72 1107 72 1107 27 1110 c 1,48,-1
 27 1152 l 1,49,-1
 995 1152 l 1,50,-1
 995 810 l 1,0,-1
EndSplineSet
EndChar

StartChar: G
Encoding: 71 71 496
Width: 1327
Flags: W
LayerCount: 2
Fore
SplineSet
1288 447 m 1,0,1
 1240 442 1240 442 1211 434 c 128,-1,2
 1182 426 1182 426 1166.5 409.5 c 128,-1,3
 1151 393 1151 393 1146 364.5 c 128,-1,4
 1141 336 1141 336 1141 290 c 2,5,-1
 1141 73 l 1,6,7
 1100 49 1100 49 1046.5 29.5 c 128,-1,8
 993 10 993 10 931 -4 c 128,-1,9
 869 -18 869 -18 802.5 -25 c 128,-1,10
 736 -32 736 -32 670 -32 c 0,11,12
 536 -32 536 -32 424.5 12 c 128,-1,13
 313 56 313 56 233 135 c 128,-1,14
 153 214 153 214 108.5 323.5 c 128,-1,15
 64 433 64 433 64 564 c 0,16,17
 64 697 64 697 109 809 c 128,-1,18
 154 921 154 921 233.5 1003.5 c 128,-1,19
 313 1086 313 1086 421 1132.5 c 128,-1,20
 529 1179 529 1179 657 1179 c 0,21,22
 718 1179 718 1179 781.5 1165 c 128,-1,23
 845 1151 845 1151 921 1119 c 0,24,25
 950 1106 950 1106 969.5 1101 c 128,-1,26
 989 1096 989 1096 1000 1096 c 0,27,28
 1024 1096 1024 1096 1040.5 1112 c 128,-1,29
 1057 1128 1057 1128 1074 1174 c 1,30,-1
 1121 1174 l 1,31,-1
 1121 774 l 1,32,-1
 1078 774 l 1,33,34
 1055 822 1055 822 1036 859 c 128,-1,35
 1017 896 1017 896 997.5 925.5 c 128,-1,36
 978 955 978 955 955.5 979 c 128,-1,37
 933 1003 933 1003 906 1027 c 0,38,39
 849 1076 849 1076 793.5 1099.5 c 128,-1,40
 738 1123 738 1123 679 1123 c 0,41,42
 523 1123 523 1123 444 984.5 c 128,-1,43
 365 846 365 846 365 576 c 0,44,45
 365 270 365 270 475 130 c 0,46,47
 518 74 518 74 574 49 c 128,-1,48
 630 24 630 24 711 24 c 0,49,50
 798 24 798 24 836.5 53.5 c 128,-1,51
 875 83 875 83 875 148 c 2,52,-1
 875 327 l 2,53,54
 875 362 875 362 868.5 384 c 128,-1,55
 862 406 862 406 843.5 418.5 c 128,-1,56
 825 431 825 431 791.5 437.5 c 128,-1,57
 758 444 758 444 703 447 c 1,58,-1
 703 490 l 1,59,-1
 1288 490 l 1,60,-1
 1288 447 l 1,0,1
EndSplineSet
EndChar

StartChar: H
Encoding: 72 72 497
Width: 1327
Flags: W
LayerCount: 2
Fore
SplineSet
458 557 m 1,0,-1
 458 164 l 2,1,2
 458 132 458 132 464 111.5 c 128,-1,3
 470 91 470 91 487.5 77.5 c 128,-1,4
 505 64 505 64 534 56 c 128,-1,5
 563 48 563 48 611 42 c 1,6,-1
 611 0 l 1,7,-1
 36 0 l 1,8,-1
 36 42 l 1,9,10
 80 48 80 48 108.5 56 c 128,-1,11
 137 64 137 64 153 77.5 c 128,-1,12
 169 91 169 91 174.5 111.5 c 128,-1,13
 180 132 180 132 180 164 c 2,14,-1
 180 990 l 2,15,16
 180 1021 180 1021 174 1042.5 c 128,-1,17
 168 1064 168 1064 151 1078 c 128,-1,18
 134 1092 134 1092 106 1099 c 128,-1,19
 78 1106 78 1106 36 1110 c 1,20,-1
 36 1152 l 1,21,-1
 611 1152 l 1,22,-1
 611 1110 l 1,23,24
 565 1107 565 1107 536 1100 c 128,-1,25
 507 1093 507 1093 489 1078.5 c 128,-1,26
 471 1064 471 1064 464.5 1042.5 c 128,-1,27
 458 1021 458 1021 458 990 c 2,28,-1
 458 636 l 1,29,-1
 868 636 l 1,30,-1
 868 990 l 2,31,32
 868 1021 868 1021 861 1042.5 c 128,-1,33
 854 1064 854 1064 836 1078.5 c 128,-1,34
 818 1093 818 1093 788.5 1100 c 128,-1,35
 759 1107 759 1107 714 1110 c 1,36,-1
 714 1152 l 1,37,-1
 1295 1152 l 1,38,-1
 1295 1110 l 1,39,40
 1251 1107 1251 1107 1222.5 1100 c 128,-1,41
 1194 1093 1194 1093 1176.5 1078.5 c 128,-1,42
 1159 1064 1159 1064 1152 1042.5 c 128,-1,43
 1145 1021 1145 1021 1145 990 c 2,44,-1
 1145 164 l 2,45,46
 1145 132 1145 132 1151 111.5 c 128,-1,47
 1157 91 1157 91 1174 77.5 c 128,-1,48
 1191 64 1191 64 1220 56 c 128,-1,49
 1249 48 1249 48 1295 42 c 1,50,-1
 1295 0 l 1,51,-1
 714 0 l 1,52,-1
 714 42 l 1,53,54
 761 48 761 48 791 56 c 128,-1,55
 821 64 821 64 838.5 77.5 c 128,-1,56
 856 91 856 91 862 111.5 c 128,-1,57
 868 132 868 132 868 164 c 2,58,-1
 868 557 l 1,59,-1
 458 557 l 1,0,-1
EndSplineSet
EndChar

StartChar: I
Encoding: 73 73 498
Width: 663
Flags: W
LayerCount: 2
Fore
SplineSet
192 990 m 2,0,1
 192 1022 192 1022 184.5 1043.5 c 128,-1,2
 177 1065 177 1065 159 1079.5 c 128,-1,3
 141 1094 141 1094 110.5 1100.5 c 128,-1,4
 80 1107 80 1107 34 1110 c 1,5,-1
 34 1152 l 1,6,-1
 631 1152 l 1,7,-1
 631 1110 l 1,8,9
 584 1108 584 1108 552.5 1102 c 128,-1,10
 521 1096 521 1096 502.5 1081.5 c 128,-1,11
 484 1067 484 1067 476.5 1045 c 128,-1,12
 469 1023 469 1023 469 990 c 2,13,-1
 469 164 l 2,14,15
 469 130 469 130 476 108 c 128,-1,16
 483 86 483 86 501.5 72.5 c 128,-1,17
 520 59 520 59 551 52 c 128,-1,18
 582 45 582 45 631 42 c 1,19,-1
 631 0 l 1,20,-1
 34 0 l 1,21,-1
 34 42 l 1,22,23
 82 47 82 47 113 54.5 c 128,-1,24
 144 62 144 62 161.5 75.5 c 128,-1,25
 179 89 179 89 185.5 110 c 128,-1,26
 192 131 192 131 192 164 c 2,27,-1
 192 990 l 2,0,1
EndSplineSet
EndChar

StartChar: J
Encoding: 74 74 499
Width: 853
Flags: W
LayerCount: 2
Fore
SplineSet
665 210 m 2,0,1
 665 25 665 25 572.5 -69.5 c 128,-1,2
 480 -164 480 -164 300 -164 c 0,3,4
 249 -164 249 -164 201 -153 c 128,-1,5
 153 -142 153 -142 120 -125 c 0,6,7
 94 -111 94 -111 73.5 -89.5 c 128,-1,8
 53 -68 53 -68 37.5 -43.5 c 128,-1,9
 22 -19 22 -19 13.5 8 c 128,-1,10
 5 35 5 35 5 62 c 0,11,12
 5 86 5 86 14.5 108 c 128,-1,13
 24 130 24 130 41 147 c 128,-1,14
 58 164 58 164 79.5 174 c 128,-1,15
 101 184 101 184 124 184 c 0,16,17
 149 184 149 184 172 174 c 128,-1,18
 195 164 195 164 211.5 146 c 128,-1,19
 228 128 228 128 238.5 105 c 128,-1,20
 249 82 249 82 249 57 c 0,21,22
 249 37 249 37 244 24 c 128,-1,23
 239 11 239 11 223 -9 c 0,24,25
 212 -25 212 -25 207.5 -33.5 c 128,-1,26
 203 -42 203 -42 203 -53 c 0,27,28
 203 -77 203 -77 224.5 -92.5 c 128,-1,29
 246 -108 246 -108 280 -108 c 0,30,31
 338 -108 338 -108 363.5 -73 c 128,-1,32
 389 -38 389 -38 389 41 c 2,33,-1
 389 990 l 2,34,35
 389 1024 389 1024 381.5 1046.5 c 128,-1,36
 374 1069 374 1069 354.5 1082.5 c 128,-1,37
 335 1096 335 1096 302 1102 c 128,-1,38
 269 1108 269 1108 217 1110 c 1,39,-1
 217 1152 l 1,40,-1
 817 1152 l 1,41,-1
 817 1110 l 1,42,43
 769 1107 769 1107 739.5 1099.5 c 128,-1,44
 710 1092 710 1092 693.5 1074.5 c 128,-1,45
 677 1057 677 1057 671 1028.5 c 128,-1,46
 665 1000 665 1000 665 954 c 2,47,-1
 665 210 l 2,0,1
EndSplineSet
EndChar

StartChar: K
Encoding: 75 75 500
Width: 1327
Flags: W
LayerCount: 2
Fore
SplineSet
1312 0 m 1,0,-1
 739 0 l 1,1,-1
 739 42 l 1,2,3
 757 44 757 44 772 44 c 128,-1,4
 787 44 787 44 793 44 c 0,5,6
 836 46 836 46 855 54 c 128,-1,7
 874 62 874 62 874 78 c 0,8,9
 874 92 874 92 865.5 107 c 128,-1,10
 857 122 857 122 832 153 c 2,11,-1
 522 541 l 1,12,-1
 475 498 l 1,13,-1
 475 164 l 2,14,15
 475 132 475 132 481.5 111.5 c 128,-1,16
 488 91 488 91 504.5 77.5 c 128,-1,17
 521 64 521 64 550.5 56 c 128,-1,18
 580 48 580 48 626 42 c 1,19,-1
 626 0 l 1,20,-1
 51 0 l 1,21,-1
 51 42 l 1,22,23
 97 48 97 48 126.5 55.5 c 128,-1,24
 156 63 156 63 172 76 c 128,-1,25
 188 89 188 89 194 110 c 128,-1,26
 200 131 200 131 200 164 c 2,27,-1
 200 990 l 2,28,29
 200 1023 200 1023 193.5 1045 c 128,-1,30
 187 1067 187 1067 170 1081 c 128,-1,31
 153 1095 153 1095 124 1101 c 128,-1,32
 95 1107 95 1107 51 1110 c 1,33,-1
 51 1152 l 1,34,-1
 628 1152 l 1,35,-1
 628 1110 l 1,36,37
 581 1107 581 1107 551 1099.5 c 128,-1,38
 521 1092 521 1092 504 1074 c 128,-1,39
 487 1056 487 1056 481 1027.5 c 128,-1,40
 475 999 475 999 475 954 c 2,41,-1
 475 589 l 1,42,-1
 847 960 l 2,43,44
 866 980 866 980 878 993 c 128,-1,45
 890 1006 890 1006 897 1016.5 c 128,-1,46
 904 1027 904 1027 905.5 1035.5 c 128,-1,47
 907 1044 907 1044 907 1054 c 0,48,49
 907 1080 907 1080 889 1091.5 c 128,-1,50
 871 1103 871 1103 824 1105 c 0,51,52
 817 1107 817 1107 800.5 1107.5 c 128,-1,53
 784 1108 784 1108 762 1110 c 1,54,-1
 762 1152 l 1,55,-1
 1255 1152 l 1,56,-1
 1255 1110 l 1,57,58
 1214 1106 1214 1106 1180 1099.5 c 128,-1,59
 1146 1093 1146 1093 1112 1077.5 c 128,-1,60
 1078 1062 1078 1062 1040.5 1035.5 c 128,-1,61
 1003 1009 1003 1009 955.5 967.5 c 128,-1,62
 908 926 908 926 848 866 c 128,-1,63
 788 806 788 806 708 723 c 1,64,-1
 1229 78 l 2,65,66
 1246 59 1246 59 1263 51.5 c 128,-1,67
 1280 44 1280 44 1312 42 c 1,68,-1
 1312 0 l 1,0,-1
EndSplineSet
EndChar

StartChar: L
Encoding: 76 76 501
Width: 1138
Flags: W
LayerCount: 2
Fore
SplineSet
1019 0 m 1,0,-1
 32 0 l 1,1,-1
 32 42 l 1,2,3
 79 48 79 48 107.5 55.5 c 128,-1,4
 136 63 136 63 152.5 76 c 128,-1,5
 169 89 169 89 174 110 c 128,-1,6
 179 131 179 131 179 164 c 2,7,-1
 179 990 l 2,8,9
 179 1022 179 1022 172.5 1044 c 128,-1,10
 166 1066 166 1066 149 1080 c 128,-1,11
 132 1094 132 1094 103.5 1100.5 c 128,-1,12
 75 1107 75 1107 32 1110 c 1,13,-1
 32 1152 l 1,14,-1
 628 1152 l 1,15,-1
 628 1110 l 1,16,17
 572 1107 572 1107 538.5 1100.5 c 128,-1,18
 505 1094 505 1094 486 1077 c 128,-1,19
 467 1060 467 1060 461.5 1031 c 128,-1,20
 456 1002 456 1002 456 954 c 2,21,-1
 456 148 l 2,22,23
 456 121 456 121 462.5 102.5 c 128,-1,24
 469 84 469 84 485 73 c 128,-1,25
 501 62 501 62 527 57.5 c 128,-1,26
 553 53 553 53 592 53 c 0,27,28
 691 53 691 53 763.5 76 c 128,-1,29
 836 99 836 99 889 147 c 0,30,31
 911 168 911 168 929.5 189.5 c 128,-1,32
 948 211 948 211 965.5 238 c 128,-1,33
 983 265 983 265 1000.5 301 c 128,-1,34
 1018 337 1018 337 1039 387 c 1,35,-1
 1089 387 l 1,36,-1
 1019 0 l 1,0,-1
EndSplineSet
EndChar

StartChar: M
Encoding: 77 77 502
Width: 1610
Flags: W
LayerCount: 2
Fore
SplineSet
726 0 m 1,0,-1
 680 0 l 1,1,-1
 251 1013 l 1,2,-1
 251 212 l 2,3,4
 251 165 251 165 258.5 134 c 128,-1,5
 266 103 266 103 285 84 c 128,-1,6
 304 65 304 65 337 55.5 c 128,-1,7
 370 46 370 46 423 42 c 1,8,-1
 423 0 l 1,9,-1
 24 0 l 1,10,-1
 24 42 l 1,11,12
 74 48 74 48 104.5 55.5 c 128,-1,13
 135 63 135 63 152 77.5 c 128,-1,14
 169 92 169 92 174 116.5 c 128,-1,15
 179 141 179 141 179 179 c 2,16,-1
 179 990 l 2,17,18
 179 1023 179 1023 173 1044.5 c 128,-1,19
 167 1066 167 1066 150 1079.5 c 128,-1,20
 133 1093 133 1093 103.5 1099.5 c 128,-1,21
 74 1106 74 1106 27 1110 c 1,22,-1
 27 1152 l 1,23,-1
 459 1152 l 1,24,-1
 801 348 l 1,25,-1
 1141 1152 l 1,26,-1
 1571 1152 l 1,27,-1
 1571 1110 l 1,28,29
 1524 1107 1524 1107 1495 1099.5 c 128,-1,30
 1466 1092 1466 1092 1449.5 1074.5 c 128,-1,31
 1433 1057 1433 1057 1427 1028.5 c 128,-1,32
 1421 1000 1421 1000 1421 954 c 2,33,-1
 1421 200 l 2,34,35
 1421 154 1421 154 1426 126.5 c 128,-1,36
 1431 99 1431 99 1446 82.5 c 128,-1,37
 1461 66 1461 66 1491 57.5 c 128,-1,38
 1521 49 1521 49 1571 42 c 1,39,-1
 1571 0 l 1,40,-1
 1004 0 l 1,41,-1
 1004 42 l 1,42,43
 1053 47 1053 47 1082.5 54 c 128,-1,44
 1112 61 1112 61 1129 75 c 128,-1,45
 1146 89 1146 89 1151.5 111.5 c 128,-1,46
 1157 134 1157 134 1157 171 c 2,47,-1
 1157 1039 l 1,48,-1
 726 0 l 1,0,-1
EndSplineSet
EndChar

StartChar: N
Encoding: 78 78 503
Width: 1232
Flags: W
LayerCount: 2
Fore
SplineSet
988 421 m 1,0,-1
 988 941 l 2,1,2
 988 987 988 987 981 1017.5 c 128,-1,3
 974 1048 974 1048 956 1067 c 128,-1,4
 938 1086 938 1086 907 1095.5 c 128,-1,5
 876 1105 876 1105 829 1110 c 1,6,-1
 829 1152 l 1,7,-1
 1197 1152 l 1,8,-1
 1197 1110 l 1,9,10
 1155 1104 1155 1104 1129 1095.5 c 128,-1,11
 1103 1087 1103 1087 1088.5 1072 c 128,-1,12
 1074 1057 1074 1057 1068.5 1033.5 c 128,-1,13
 1063 1010 1063 1010 1063 974 c 2,14,-1
 1063 -30 l 1,15,-1
 1015 -30 l 1,16,-1
 253 897 l 1,17,-1
 253 212 l 2,18,19
 253 167 253 167 260 137 c 128,-1,20
 267 107 267 107 285 88 c 128,-1,21
 303 69 303 69 334.5 58.5 c 128,-1,22
 366 48 366 48 415 42 c 1,23,-1
 415 0 l 1,24,-1
 27 0 l 1,25,-1
 27 42 l 1,26,27
 74 48 74 48 103 56.5 c 128,-1,28
 132 65 132 65 149 80 c 128,-1,29
 166 95 166 95 171.5 118.5 c 128,-1,30
 177 142 177 142 177 179 c 2,31,-1
 177 988 l 1,32,33
 147 1024 147 1024 125.5 1048 c 128,-1,34
 104 1072 104 1072 87.5 1086 c 128,-1,35
 71 1100 71 1100 58 1105 c 128,-1,36
 45 1110 45 1110 32 1110 c 1,37,-1
 32 1152 l 1,38,-1
 392 1152 l 1,39,-1
 988 421 l 1,0,-1
EndSplineSet
EndChar

StartChar: O
Encoding: 79 79 504
Width: 1327
Flags: W
LayerCount: 2
Fore
SplineSet
670 1179 m 0,0,1
 799 1179 799 1179 908.5 1133.5 c 128,-1,2
 1018 1088 1018 1088 1098 1007 c 128,-1,3
 1178 926 1178 926 1223 815 c 128,-1,4
 1268 704 1268 704 1268 573 c 0,5,6
 1268 441 1268 441 1223.5 330 c 128,-1,7
 1179 219 1179 219 1098.5 138.5 c 128,-1,8
 1018 58 1018 58 907 13 c 128,-1,9
 796 -32 796 -32 663 -32 c 0,10,11
 531 -32 531 -32 420.5 12.5 c 128,-1,12
 310 57 310 57 229.5 137.5 c 128,-1,13
 149 218 149 218 104.5 328.5 c 128,-1,14
 60 439 60 439 60 571 c 0,15,16
 60 705 60 705 105 816 c 128,-1,17
 150 927 150 927 231.5 1008 c 128,-1,18
 313 1089 313 1089 424.5 1134 c 128,-1,19
 536 1179 536 1179 670 1179 c 0,0,1
669 1123 m 0,20,21
 519 1123 519 1123 440.5 977.5 c 128,-1,22
 362 832 362 832 362 557 c 0,23,24
 362 298 362 298 439 161 c 128,-1,25
 516 24 516 24 663 24 c 0,26,27
 811 24 811 24 888 161 c 128,-1,28
 965 298 965 298 965 562 c 0,29,30
 965 695 965 695 945 799.5 c 128,-1,31
 925 904 925 904 887.5 976 c 128,-1,32
 850 1048 850 1048 795 1085.5 c 128,-1,33
 740 1123 740 1123 669 1123 c 0,20,21
EndSplineSet
EndChar

StartChar: P
Encoding: 80 80 505
Width: 1042
Flags: W
LayerCount: 2
Fore
SplineSet
447 200 m 2,0,1
 447 153 447 153 451.5 125 c 128,-1,2
 456 97 456 97 471.5 81 c 128,-1,3
 487 65 487 65 517 57 c 128,-1,4
 547 49 547 49 597 42 c 1,5,-1
 597 0 l 1,6,-1
 27 0 l 1,7,-1
 27 42 l 1,8,9
 41 45 41 45 53 47 c 128,-1,10
 65 49 65 49 69 49 c 0,11,12
 98 53 98 53 117.5 62.5 c 128,-1,13
 137 72 137 72 149 89 c 128,-1,14
 161 106 161 106 166 133 c 128,-1,15
 171 160 171 160 171 200 c 2,16,-1
 171 954 l 2,17,18
 171 999 171 999 165.5 1027 c 128,-1,19
 160 1055 160 1055 144 1073 c 128,-1,20
 128 1091 128 1091 100.5 1098.5 c 128,-1,21
 73 1106 73 1106 27 1110 c 1,22,-1
 27 1152 l 1,23,-1
 576 1152 l 2,24,25
 683 1152 683 1152 766.5 1131.5 c 128,-1,26
 850 1111 850 1111 907 1071.5 c 128,-1,27
 964 1032 964 1032 994 974.5 c 128,-1,28
 1024 917 1024 917 1024 843 c 0,29,30
 1024 744 1024 744 969 669.5 c 128,-1,31
 914 595 914 595 810 555 c 0,32,33
 782 543 782 543 754.5 536 c 128,-1,34
 727 529 727 529 687.5 525 c 128,-1,35
 648 521 648 521 590.5 519.5 c 128,-1,36
 533 518 533 518 447 517 c 1,37,-1
 447 200 l 2,0,1
447 576 m 1,38,39
 492 576 492 576 526.5 578.5 c 128,-1,40
 561 581 561 581 586.5 587 c 128,-1,41
 612 593 612 593 631 602 c 128,-1,42
 650 611 650 611 665 623 c 0,43,44
 699 653 699 653 714.5 703 c 128,-1,45
 730 753 730 753 730 834 c 0,46,47
 730 904 730 904 719.5 953 c 128,-1,48
 709 1002 709 1002 685 1033 c 128,-1,49
 661 1064 661 1064 623 1079 c 128,-1,50
 585 1094 585 1094 532 1094 c 0,51,52
 447 1094 447 1094 447 1034 c 2,53,-1
 447 576 l 1,38,39
EndSplineSet
EndChar

StartChar: Q
Encoding: 81 81 506
Width: 1327
Flags: W
LayerCount: 2
Fore
SplineSet
1255 -241 m 1,0,1
 1207 -258 1207 -258 1168.5 -269 c 128,-1,2
 1130 -280 1130 -280 1094 -287 c 128,-1,3
 1058 -294 1058 -294 1024 -297 c 128,-1,4
 990 -300 990 -300 951 -300 c 0,5,6
 838 -300 838 -300 735.5 -261 c 128,-1,7
 633 -222 633 -222 562 -150 c 0,8,9
 547 -135 547 -135 535 -121 c 128,-1,10
 523 -107 523 -107 512.5 -90.5 c 128,-1,11
 502 -74 502 -74 490.5 -52.5 c 128,-1,12
 479 -31 479 -31 465 -3 c 1,13,14
 416 15 416 15 380.5 31 c 128,-1,15
 345 47 345 47 316 65 c 128,-1,16
 287 83 287 83 262.5 105 c 128,-1,17
 238 127 238 127 212 157 c 0,18,19
 137 239 137 239 98.5 343.5 c 128,-1,20
 60 448 60 448 60 564 c 0,21,22
 60 698 60 698 105.5 810.5 c 128,-1,23
 151 923 151 923 231.5 1005 c 128,-1,24
 312 1087 312 1087 422.5 1133 c 128,-1,25
 533 1179 533 1179 663 1179 c 0,26,27
 796 1179 796 1179 906.5 1133.5 c 128,-1,28
 1017 1088 1017 1088 1097.5 1007 c 128,-1,29
 1178 926 1178 926 1223 814.5 c 128,-1,30
 1268 703 1268 703 1268 569 c 0,31,32
 1268 444 1268 444 1227 337 c 128,-1,33
 1186 230 1186 230 1107 147 c 0,34,35
 1080 118 1080 118 1053.5 95.5 c 128,-1,36
 1027 73 1027 73 996 55.5 c 128,-1,37
 965 38 965 38 926.5 22.5 c 128,-1,38
 888 7 888 7 836 -10 c 1,39,40
 848 -33 848 -33 857 -51 c 128,-1,41
 866 -69 866 -69 875.5 -82.5 c 128,-1,42
 885 -96 885 -96 895 -108 c 128,-1,43
 905 -120 905 -120 916 -131 c 0,44,45
 960 -175 960 -175 1015.5 -197.5 c 128,-1,46
 1071 -220 1071 -220 1131 -220 c 0,47,48
 1155 -220 1155 -220 1179.5 -215.5 c 128,-1,49
 1204 -211 1204 -211 1246 -200 c 1,50,-1
 1255 -241 l 1,0,1
665 1123 m 0,51,52
 592 1123 592 1123 535.5 1086.5 c 128,-1,53
 479 1050 479 1050 440.5 978.5 c 128,-1,54
 402 907 402 907 382 803 c 128,-1,55
 362 699 362 699 362 564 c 0,56,57
 362 297 362 297 438 160.5 c 128,-1,58
 514 24 514 24 663 24 c 0,59,60
 811 24 811 24 888 161 c 128,-1,61
 965 298 965 298 965 563 c 0,62,63
 965 697 965 697 945 801 c 128,-1,64
 925 905 925 905 887 976.5 c 128,-1,65
 849 1048 849 1048 793 1085.5 c 128,-1,66
 737 1123 737 1123 665 1123 c 0,51,52
EndSplineSet
EndChar

StartChar: R
Encoding: 82 82 507
Width: 1232
Flags: W
LayerCount: 2
Fore
SplineSet
1219 0 m 1,0,-1
 869 0 l 1,1,-1
 517 534 l 1,2,-1
 470 534 l 1,3,-1
 470 200 l 2,4,5
 470 154 470 154 475 126.5 c 128,-1,6
 480 99 480 99 496 82.5 c 128,-1,7
 512 66 512 66 541 57.5 c 128,-1,8
 570 49 570 49 620 42 c 1,9,-1
 620 0 l 1,10,-1
 44 0 l 1,11,-1
 44 42 l 1,12,13
 94 48 94 48 124 56 c 128,-1,14
 154 64 154 64 169 80 c 128,-1,15
 184 96 184 96 189 124.5 c 128,-1,16
 194 153 194 153 194 200 c 2,17,-1
 194 954 l 2,18,19
 194 1000 194 1000 188 1028.5 c 128,-1,20
 182 1057 182 1057 166 1074.5 c 128,-1,21
 150 1092 150 1092 120.5 1099.5 c 128,-1,22
 91 1107 91 1107 44 1110 c 1,23,-1
 44 1152 l 1,24,-1
 594 1152 l 2,25,26
 829 1152 829 1152 951.5 1075 c 128,-1,27
 1074 998 1074 998 1074 850 c 0,28,29
 1074 792 1074 792 1054.5 742.5 c 128,-1,30
 1035 693 1035 693 998 659 c 0,31,32
 980 642 980 642 962.5 629.5 c 128,-1,33
 945 617 945 617 923 606 c 128,-1,34
 901 595 901 595 873 584 c 128,-1,35
 845 573 845 573 808 562 c 1,36,-1
 1150 74 l 2,37,38
 1176 42 1176 42 1219 42 c 1,39,-1
 1219 0 l 1,0,-1
470 589 m 1,40,41
 519 590 519 590 555.5 592.5 c 128,-1,42
 592 595 592 595 619 600.5 c 128,-1,43
 646 606 646 606 666 613 c 128,-1,44
 686 620 686 620 703 631 c 0,45,46
 744 659 744 659 763.5 709.5 c 128,-1,47
 783 760 783 760 783 843 c 0,48,49
 783 977 783 977 731.5 1036.5 c 128,-1,50
 680 1096 680 1096 563 1096 c 0,51,52
 498 1096 498 1096 483 1069 c 0,53,54
 478 1061 478 1061 474 1046.5 c 128,-1,55
 470 1032 470 1032 470 1024 c 2,56,-1
 470 589 l 1,40,41
EndSplineSet
EndChar

StartChar: S
Encoding: 83 83 508
Width: 949
Flags: W
LayerCount: 2
Fore
SplineSet
778 810 m 1,0,1
 765 852 765 852 753 883 c 128,-1,2
 741 914 741 914 727 939 c 128,-1,3
 713 964 713 964 696.5 985.5 c 128,-1,4
 680 1007 680 1007 659 1030 c 0,5,6
 565 1126 565 1126 449 1126 c 0,7,8
 361 1126 361 1126 311 1080.5 c 128,-1,9
 261 1035 261 1035 261 955 c 0,10,11
 261 925 261 925 268.5 900.5 c 128,-1,12
 276 876 276 876 296.5 854 c 128,-1,13
 317 832 317 832 350.5 810 c 128,-1,14
 384 788 384 788 436 762 c 2,15,-1
 687 638 l 2,16,17
 728 617 728 617 762.5 584.5 c 128,-1,18
 797 552 797 552 822 510.5 c 128,-1,19
 847 469 847 469 861 422 c 128,-1,20
 875 375 875 375 875 327 c 0,21,22
 875 247 875 247 844.5 181 c 128,-1,23
 814 115 814 115 758.5 67.5 c 128,-1,24
 703 20 703 20 625 -6 c 128,-1,25
 547 -32 547 -32 453 -32 c 0,26,27
 398 -32 398 -32 346 -23 c 128,-1,28
 294 -14 294 -14 230 8 c 0,29,30
 202 18 202 18 186.5 21.5 c 128,-1,31
 171 25 171 25 161 25 c 0,32,33
 140 25 140 25 128.5 12 c 128,-1,34
 117 -1 117 -1 109 -32 c 1,35,-1
 60 -32 l 1,36,-1
 60 389 l 1,37,-1
 109 389 l 1,38,39
 120 344 120 344 130.5 310 c 128,-1,40
 141 276 141 276 152.5 248 c 128,-1,41
 164 220 164 220 177.5 196.5 c 128,-1,42
 191 173 191 173 208 150 c 0,43,44
 307 24 307 24 458 24 c 0,45,46
 507 24 507 24 546.5 38 c 128,-1,47
 586 52 586 52 614 77.5 c 128,-1,48
 642 103 642 103 657 138.5 c 128,-1,49
 672 174 672 174 672 219 c 0,50,51
 672 252 672 252 663.5 278 c 128,-1,52
 655 304 655 304 633.5 327.5 c 128,-1,53
 612 351 612 351 574.5 374 c 128,-1,54
 537 397 537 397 481 423 c 2,55,-1
 367 477 l 2,56,57
 290 514 290 514 235 552.5 c 128,-1,58
 180 591 180 591 144.5 634.5 c 128,-1,59
 109 678 109 678 91.5 727 c 128,-1,60
 74 776 74 776 74 832 c 0,61,62
 74 912 74 912 100 976.5 c 128,-1,63
 126 1041 126 1041 174.5 1086 c 128,-1,64
 223 1131 223 1131 292.5 1155 c 128,-1,65
 362 1179 362 1179 449 1179 c 0,66,67
 473 1179 473 1179 496 1177 c 128,-1,68
 519 1175 519 1175 542.5 1170.5 c 128,-1,69
 566 1166 566 1166 592 1158.5 c 128,-1,70
 618 1151 618 1151 648 1141 c 0,71,72
 676 1131 676 1131 692.5 1127 c 128,-1,73
 709 1123 709 1123 719 1123 c 0,74,75
 742 1123 742 1123 753.5 1135 c 128,-1,76
 765 1147 765 1147 774 1180 c 1,77,-1
 825 1180 l 1,78,-1
 825 810 l 1,79,-1
 778 810 l 1,0,1
EndSplineSet
EndChar

StartChar: T
Encoding: 84 84 509
Width: 1138
Flags: W
LayerCount: 2
Fore
SplineSet
431 1099 m 1,0,1
 352 1096 352 1096 294.5 1079 c 128,-1,2
 237 1062 237 1062 198.5 1028 c 128,-1,3
 160 994 160 994 137 940.5 c 128,-1,4
 114 887 114 887 103 810 c 1,5,-1
 53 810 l 1,6,-1
 58 1152 l 1,7,-1
 1081 1152 l 1,8,-1
 1086 810 l 1,9,-1
 1036 810 l 1,10,11
 1025 887 1025 887 1002 940.5 c 128,-1,12
 979 994 979 994 940 1028 c 128,-1,13
 901 1062 901 1062 844 1079 c 128,-1,14
 787 1096 787 1096 708 1099 c 1,15,-1
 708 200 l 2,16,17
 708 151 708 151 713 121.5 c 128,-1,18
 718 92 718 92 735.5 76 c 128,-1,19
 753 60 753 60 786 53 c 128,-1,20
 819 46 819 46 875 42 c 1,21,-1
 875 0 l 1,22,-1
 266 0 l 1,23,-1
 266 42 l 1,24,25
 321 47 321 47 354 54.5 c 128,-1,26
 387 62 387 62 404 78.5 c 128,-1,27
 421 95 421 95 426 124 c 128,-1,28
 431 153 431 153 431 200 c 2,29,-1
 431 1099 l 1,0,1
EndSplineSet
EndChar

StartChar: U
Encoding: 85 85 510
Width: 1232
Flags: W
LayerCount: 2
Fore
SplineSet
1063 421 m 2,0,1
 1063 302 1063 302 1031.5 210 c 128,-1,2
 1000 118 1000 118 941 69 c 0,3,4
 886 21 886 21 802 -5.5 c 128,-1,5
 718 -32 718 -32 623 -32 c 256,6,7
 528 -32 528 -32 448.5 -9.5 c 128,-1,8
 369 13 369 13 308 58 c 0,9,10
 269 86 269 86 242 117 c 128,-1,11
 215 148 215 148 198.5 186 c 128,-1,12
 182 224 182 224 175 272.5 c 128,-1,13
 168 321 168 321 168 384 c 2,14,-1
 168 954 l 2,15,16
 168 1000 168 1000 163 1028 c 128,-1,17
 158 1056 158 1056 142.5 1073.5 c 128,-1,18
 127 1091 127 1091 100 1098 c 128,-1,19
 73 1105 73 1105 27 1110 c 1,20,-1
 27 1152 l 1,21,-1
 604 1152 l 1,22,-1
 604 1110 l 1,23,24
 573 1109 573 1109 552 1107 c 128,-1,25
 531 1105 531 1105 516.5 1102 c 128,-1,26
 502 1099 502 1099 492 1094.5 c 128,-1,27
 482 1090 482 1090 474 1083 c 0,28,29
 455 1065 455 1065 446.5 1035 c 128,-1,30
 438 1005 438 1005 438 954 c 2,31,-1
 438 384 l 2,32,33
 438 210 438 210 498 130.5 c 128,-1,34
 558 51 558 51 689 51 c 0,35,36
 841 51 841 51 914.5 141.5 c 128,-1,37
 988 232 988 232 988 421 c 2,38,-1
 988 941 l 2,39,40
 988 988 988 988 980.5 1019 c 128,-1,41
 973 1050 973 1050 954 1069 c 128,-1,42
 935 1088 935 1088 902.5 1097 c 128,-1,43
 870 1106 870 1106 820 1110 c 1,44,-1
 820 1152 l 1,45,-1
 1197 1152 l 1,46,-1
 1197 1110 l 1,47,48
 1155 1104 1155 1104 1129 1095 c 128,-1,49
 1103 1086 1103 1086 1088.5 1069.5 c 128,-1,50
 1074 1053 1074 1053 1068.5 1028.5 c 128,-1,51
 1063 1004 1063 1004 1063 965 c 2,52,-1
 1063 421 l 2,0,1
EndSplineSet
EndChar

StartChar: V
Encoding: 86 86 511
Width: 1232
Flags: W
LayerCount: 2
Fore
SplineSet
1197 1110 m 1,0,1
 1163 1105 1163 1105 1140.5 1098 c 128,-1,2
 1118 1091 1118 1091 1101 1075.5 c 128,-1,3
 1084 1060 1084 1060 1070.5 1034.5 c 128,-1,4
 1057 1009 1057 1009 1042 970 c 2,5,-1
 653 -30 l 1,6,-1
 608 -30 l 1,7,-1
 171 991 l 2,8,9
 155 1026 155 1026 142.5 1047.5 c 128,-1,10
 130 1069 130 1069 115 1082 c 128,-1,11
 100 1095 100 1095 80 1100 c 128,-1,12
 60 1105 60 1105 27 1110 c 1,13,-1
 27 1152 l 1,14,-1
 601 1152 l 1,15,-1
 601 1110 l 1,16,17
 581 1108 581 1108 566 1107.5 c 128,-1,18
 551 1107 551 1107 544 1107 c 0,19,20
 495 1104 495 1104 474.5 1090 c 128,-1,21
 454 1076 454 1076 454 1046 c 0,22,23
 454 1036 454 1036 455.5 1026.5 c 128,-1,24
 457 1017 457 1017 461 1003.5 c 128,-1,25
 465 990 465 990 473 971 c 128,-1,26
 481 952 481 952 493 923 c 2,27,-1
 728 353 l 1,28,-1
 946 914 l 2,29,30
 956 942 956 942 963 960.5 c 128,-1,31
 970 979 970 979 973.5 992 c 128,-1,32
 977 1005 977 1005 978.5 1015 c 128,-1,33
 980 1025 980 1025 980 1036 c 0,34,35
 980 1056 980 1056 974 1069.5 c 128,-1,36
 968 1083 968 1083 951.5 1091 c 128,-1,37
 935 1099 935 1099 906 1103 c 128,-1,38
 877 1107 877 1107 832 1110 c 1,39,-1
 832 1152 l 1,40,-1
 1197 1152 l 1,41,-1
 1197 1110 l 1,0,1
EndSplineSet
EndChar

StartChar: W
Encoding: 87 87 512
Width: 1706
Flags: W
LayerCount: 2
Fore
SplineSet
1674 1110 m 1,0,1
 1589 1102 1589 1102 1556 1002 c 2,2,-1
 1214 -25 l 1,3,-1
 1169 -25 l 1,4,-1
 877 788 l 1,5,-1
 560 -25 l 1,6,-1
 512 -25 l 1,7,-1
 150 1002 l 2,8,9
 139 1033 139 1033 129.5 1052.5 c 128,-1,10
 120 1072 120 1072 107 1084 c 128,-1,11
 94 1096 94 1096 76.5 1101 c 128,-1,12
 59 1106 59 1106 32 1110 c 1,13,-1
 32 1152 l 1,14,-1
 534 1152 l 1,15,-1
 534 1110 l 1,16,17
 501 1107 501 1107 480 1103 c 128,-1,18
 459 1099 459 1099 446.5 1091 c 128,-1,19
 434 1083 434 1083 429 1070 c 128,-1,20
 424 1057 424 1057 424 1039 c 0,21,22
 424 1028 424 1028 427 1015.5 c 128,-1,23
 430 1003 430 1003 436 983 c 2,24,-1
 641 362 l 1,25,-1
 843 887 l 1,26,-1
 783 1052 l 2,27,28
 769 1082 769 1082 741 1095 c 128,-1,29
 713 1108 713 1108 661 1110 c 1,30,-1
 661 1152 l 1,31,-1
 1193 1152 l 1,32,-1
 1193 1110 l 1,33,34
 1185 1108 1185 1108 1179 1108 c 128,-1,35
 1173 1108 1173 1108 1170 1108 c 0,36,37
 1114 1104 1114 1104 1091.5 1091 c 128,-1,38
 1069 1078 1069 1078 1069 1047 c 0,39,40
 1069 1036 1069 1036 1074.5 1015 c 128,-1,41
 1080 994 1080 994 1094 953 c 2,42,-1
 1278 379 l 1,43,-1
 1469 963 l 2,44,45
 1476 982 1476 982 1478.5 1000.5 c 128,-1,46
 1481 1019 1481 1019 1481 1036 c 0,47,48
 1481 1055 1481 1055 1475.5 1069 c 128,-1,49
 1470 1083 1470 1083 1457 1091.5 c 128,-1,50
 1444 1100 1444 1100 1420.5 1104 c 128,-1,51
 1397 1108 1397 1108 1363 1110 c 1,52,-1
 1363 1152 l 1,53,-1
 1674 1152 l 1,54,-1
 1674 1110 l 1,0,1
EndSplineSet
EndChar

StartChar: X
Encoding: 88 88 513
Width: 1232
Flags: W
LayerCount: 2
Fore
SplineSet
1174 1110 m 1,0,1
 1126 1105 1126 1105 1091 1095 c 128,-1,2
 1056 1085 1056 1085 1022 1058.5 c 128,-1,3
 988 1032 988 1032 948 985 c 128,-1,4
 908 938 908 938 853 861 c 2,5,-1
 716 672 l 1,6,-1
 1027 189 l 2,7,8
 1057 143 1057 143 1079 114.5 c 128,-1,9
 1101 86 1101 86 1119 70.5 c 128,-1,10
 1137 55 1137 55 1154 49 c 128,-1,11
 1171 43 1171 43 1193 42 c 1,12,-1
 1193 0 l 1,13,-1
 612 0 l 1,14,-1
 612 42 l 1,15,16
 629 44 629 44 642 45 c 128,-1,17
 655 46 655 46 661 46 c 0,18,19
 749 50 749 50 749 94 c 0,20,21
 749 108 749 108 739 134.5 c 128,-1,22
 729 161 729 161 713 186 c 2,23,-1
 541 463 l 1,24,-1
 475 375 l 2,25,26
 428 312 428 312 397.5 267.5 c 128,-1,27
 367 223 367 223 348.5 194 c 128,-1,28
 330 165 330 165 323 145.5 c 128,-1,29
 316 126 316 126 316 113 c 0,30,31
 316 96 316 96 322.5 84.5 c 128,-1,32
 329 73 329 73 345.5 65 c 128,-1,33
 362 57 362 57 388.5 51.5 c 128,-1,34
 415 46 415 46 454 42 c 1,35,-1
 454 0 l 1,36,-1
 27 0 l 1,37,-1
 27 42 l 1,38,39
 60 46 60 46 84 52.5 c 128,-1,40
 108 59 108 59 128.5 70 c 128,-1,41
 149 81 149 81 167 98 c 128,-1,42
 185 115 185 115 205 138 c 2,43,-1
 503 514 l 1,44,-1
 166 1011 l 2,45,46
 146 1041 146 1041 131 1059 c 128,-1,47
 116 1077 116 1077 101 1088 c 128,-1,48
 86 1099 86 1099 69.5 1103.5 c 128,-1,49
 53 1108 53 1108 29 1110 c 1,50,-1
 29 1152 l 1,51,-1
 619 1152 l 1,52,-1
 619 1110 l 1,53,54
 602 1108 602 1108 587 1107.5 c 128,-1,55
 572 1107 572 1107 566 1107 c 0,56,57
 519 1104 519 1104 502 1093 c 128,-1,58
 485 1082 485 1082 485 1054 c 0,59,60
 485 1047 485 1047 486 1041 c 128,-1,61
 487 1035 487 1035 489.5 1028 c 128,-1,62
 492 1021 492 1021 497 1012.5 c 128,-1,63
 502 1004 502 1004 510 991 c 2,64,-1
 675 736 l 1,65,66
 708 780 708 780 734 817 c 128,-1,67
 760 854 760 854 771 866 c 0,68,69
 802 907 802 907 821 935 c 128,-1,70
 840 963 840 963 850.5 983.5 c 128,-1,71
 861 1004 861 1004 865 1018.5 c 128,-1,72
 869 1033 869 1033 869 1047 c 0,73,74
 869 1078 869 1078 850.5 1091 c 128,-1,75
 832 1104 832 1104 781 1107 c 0,76,77
 777 1108 777 1108 768 1108 c 128,-1,78
 759 1108 759 1108 747 1110 c 1,79,-1
 747 1152 l 1,80,-1
 1174 1152 l 1,81,-1
 1174 1110 l 1,0,1
EndSplineSet
EndChar

StartChar: Y
Encoding: 89 89 514
Width: 1232
Flags: W
LayerCount: 2
Fore
SplineSet
1193 1110 m 1,0,1
 1149 1104 1149 1104 1122.5 1088.5 c 128,-1,2
 1096 1073 1096 1073 1076 1044 c 2,3,-1
 751 514 l 1,4,-1
 751 200 l 2,5,6
 751 153 751 153 755.5 124 c 128,-1,7
 760 95 760 95 776.5 79 c 128,-1,8
 793 63 793 63 824.5 55.5 c 128,-1,9
 856 48 856 48 907 42 c 1,10,-1
 907 0 l 1,11,-1
 316 0 l 1,12,-1
 316 42 l 1,13,14
 368 48 368 48 399.5 55.5 c 128,-1,15
 431 63 431 63 448 79.5 c 128,-1,16
 465 96 465 96 469.5 124.5 c 128,-1,17
 474 153 474 153 474 200 c 2,18,-1
 474 451 l 1,19,-1
 163 1017 l 2,20,21
 137 1060 137 1060 103.5 1084 c 128,-1,22
 70 1108 70 1108 25 1110 c 1,23,-1
 25 1152 l 1,24,-1
 597 1152 l 1,25,-1
 597 1110 l 1,26,-1
 555 1108 l 2,27,28
 502 1108 502 1108 480.5 1097 c 128,-1,29
 459 1086 459 1086 459 1057 c 0,30,31
 459 1044 459 1044 465 1026.5 c 128,-1,32
 471 1009 471 1009 490 978 c 0,33,34
 492 973 492 973 494 969 c 256,35,36
 496 965 496 965 497.5 962 c 128,-1,37
 499 959 499 959 500 957 c 2,38,-1
 705 562 l 1,39,-1
 894 877 l 2,40,41
 925 930 925 930 942.5 972 c 128,-1,42
 960 1014 960 1014 960 1039 c 0,43,44
 960 1057 960 1057 954 1069.5 c 128,-1,45
 948 1082 948 1082 931.5 1090.5 c 128,-1,46
 915 1099 915 1099 887 1103 c 128,-1,47
 859 1107 859 1107 817 1110 c 1,48,-1
 817 1152 l 1,49,-1
 1193 1152 l 1,50,-1
 1193 1110 l 1,0,1
EndSplineSet
EndChar

StartChar: Z
Encoding: 90 90 515
Width: 1138
Flags: W
LayerCount: 2
Fore
SplineSet
1037 0 m 1,0,-1
 47 0 l 1,1,-1
 47 27 l 1,2,-1
 700 1094 l 1,3,4
 652 1092 652 1092 612.5 1091.5 c 128,-1,5
 573 1091 573 1091 558 1089 c 0,6,7
 464 1090 464 1090 399.5 1078.5 c 128,-1,8
 335 1067 335 1067 289.5 1035.5 c 128,-1,9
 244 1004 244 1004 211 947.5 c 128,-1,10
 178 891 178 891 148 803 c 1,11,-1
 101 803 l 1,12,-1
 136 1152 l 1,13,-1
 1030 1152 l 1,14,-1
 1030 1126 l 1,15,-1
 384 60 l 1,16,-1
 510 60 l 2,17,18
 571 60 571 60 627 64.5 c 128,-1,19
 683 69 683 69 730 77.5 c 128,-1,20
 777 86 777 86 813.5 98.5 c 128,-1,21
 850 111 850 111 872 126 c 0,22,23
 903 147 903 147 926 172 c 128,-1,24
 949 197 949 197 968 230 c 128,-1,25
 987 263 987 263 1003 307 c 128,-1,26
 1019 351 1019 351 1037 412 c 1,27,-1
 1081 412 l 1,28,-1
 1037 0 l 1,0,-1
EndSplineSet
EndChar

StartChar: a
Encoding: 97 97 516
Width: 853
Flags: W
LayerCount: 2
Fore
SplineSet
832 73 m 1,0,1
 784 21 784 21 740 -2 c 128,-1,2
 696 -25 696 -25 641 -25 c 0,3,4
 578 -25 578 -25 546.5 2 c 128,-1,5
 515 29 515 29 502 96 c 1,6,7
 431 31 431 31 368 3 c 128,-1,8
 305 -25 305 -25 232 -25 c 0,9,10
 191 -25 191 -25 156.5 -11 c 128,-1,11
 122 3 122 3 96.5 27 c 128,-1,12
 71 51 71 51 56.5 84.5 c 128,-1,13
 42 118 42 118 42 157 c 0,14,15
 42 213 42 213 69 257 c 128,-1,16
 96 301 96 301 152 340 c 0,17,18
 175 356 175 356 204 370.5 c 128,-1,19
 233 385 233 385 274 401 c 128,-1,20
 315 417 315 417 370 436 c 128,-1,21
 425 455 425 455 502 477 c 1,22,-1
 502 603 l 2,23,24
 502 681 502 681 467.5 717 c 128,-1,25
 433 753 433 753 358 753 c 0,26,27
 313 753 313 753 282 734 c 128,-1,28
 251 715 251 715 251 689 c 0,29,30
 251 681 251 681 255.5 673 c 128,-1,31
 260 665 260 665 271 652 c 0,32,33
 286 631 286 631 294 614 c 128,-1,34
 302 597 302 597 302 578 c 0,35,36
 302 534 302 534 269.5 506.5 c 128,-1,37
 237 479 237 479 186 479 c 0,38,39
 133 479 133 479 103.5 509 c 128,-1,40
 74 539 74 539 74 592 c 0,41,42
 74 640 74 640 98 679.5 c 128,-1,43
 122 719 122 719 164 747.5 c 128,-1,44
 206 776 206 776 265 792 c 128,-1,45
 324 808 324 808 397 808 c 0,46,47
 475 808 475 808 538 791 c 128,-1,48
 601 774 601 774 645 743.5 c 128,-1,49
 689 713 689 713 712.5 670 c 128,-1,50
 736 627 736 627 736 573 c 2,51,-1
 736 128 l 2,52,53
 736 85 736 85 771 85 c 0,54,55
 784 85 784 85 790 92 c 2,56,-1
 808 109 l 1,57,-1
 832 73 l 1,0,1
500 418 m 1,58,59
 397 391 397 391 344 338.5 c 128,-1,60
 291 286 291 286 291 212 c 0,61,62
 291 160 291 160 315.5 128.5 c 128,-1,63
 340 97 340 97 379 97 c 0,64,65
 410 97 410 97 437.5 113.5 c 128,-1,66
 465 130 465 130 500 171 c 1,67,-1
 500 418 l 1,58,59
EndSplineSet
EndChar

